<?xml version="1.0" encoding="utf-8"?>
<!-- Generator: Adobe Illustrator 18.0.0, SVG Export Plug-In . SVG Version: 6.00 Build 0)  -->
<!DOCTYPE svg PUBLIC "-//W3C//DTD SVG 1.1//EN" "http://www.w3.org/Graphics/SVG/1.1/DTD/svg11.dtd">
<svg version="1.1" id="Layer_1" xmlns="http://www.w3.org/2000/svg" xmlns:xlink="http://www.w3.org/1999/xlink" x="0px" y="0px"
	 viewBox="0 268.3 1920 562.3" enable-background="new 0 268.3 1920 562.3" xml:space="preserve">
<g id="Layer_1_1_">
	<g>
		<path d="M127.4,330.3c-7.6-7.6-18.7-12.1-31.5-12.1c-25.3,0-44,18.3-44,44s18.3,44,44,44c12.8,0,23.5-4.5,31.5-12.5l35,34.3
			c-17,17-40.5,27.7-66.4,27.7c-51.6,0-93.4-41.9-93.4-93.4s41.9-93.4,93.4-93.4c25.6,0,48.8,10.4,65.8,27L127.4,330.3z"/>
	</g>
</g>
<g id="Layer_1_copy">
	<g>
		<path d="M1594.3,330.3c-7.6-7.6-18.7-12.1-31.5-12.1c-25.3,0-44,18.3-44,44s18.3,44,44,44c12.8,0,23.5-4.5,31.5-12.5l35,34.3
			c-17,17-40.5,27.7-66.4,27.7c-51.6,0-93.4-41.9-93.4-93.4s41.9-93.4,93.4-93.4c25.6,0,48.8,10.4,65.8,27L1594.3,330.3z"/>
	</g>
</g>
<g id="Layer_6">
	<g>
		<path d="M1771.2,268.3h147.4v48.8h-49.8v138.4h-49.1V317.1h-48.4V268.3z"/>
	</g>
</g>
<g id="Layer_6_copy">
	<g>
		<path d="M891.1,268.3h147.1v48.8h-49.5v138.4h-49.1V317.1h-48.4V268.3z"/>
	</g>
</g>
<g id="Layer_11">
	<g>
		<path d="M1159.7,455.6l87.2-186.9h22.1l87.9,186.9h-49.1l-11.4-24.6h-76.5l-11.1,24.6H1159.7z M1238.9,389.8h38.1l-19-41.2
			L1238.9,389.8z"/>
	</g>
</g>
<g id="Layer_9_1_">
	<g>
		<path d="M646.5,756.3c0,13.5,11.1,24.6,24.6,24.6s24.6-11.1,24.6-24.6V643.8h49.5V757c0,41.2-33.2,73.7-73.7,73.7
			c-41.2,0-73.7-32.5-73.7-73.7V643.8h48.8V756.3z"/>
	</g>
</g>
<g id="Layer_14_1_">
	<g>
		<path d="M1233.7,643.8h49.1v186.9h-49.1V643.8z"/>
	</g>
</g>
<g id="Layer_13_1_">
	<g>
		<path d="M883.3,643.8h69.2c51.6,0,93.4,41.9,93.4,93.4s-41.9,93.4-93.4,93.4h-69.2L883.3,643.8L883.3,643.8z M932.1,782.6h20.8
			c24.6,0,44.3-20.1,44.3-44.3c0-24.2-20.1-44-44.3-44h-20.8V782.6z"/>
	</g>
</g>
<g id="Layer_6_copy_2_1_">
	<g>
		<path d="M304.4,643.6h147.4v48.8h-49.5v138.4h-49.5V692.4h-48.4V643.6z"/>
	</g>
</g>
<g id="Layer_7_1_">
	<g>
		<path d="M75.8,701.2c0-7.6-6.6-14.2-14.2-14.2s-13.8,6.6-13.8,14.2c0,7.6,6.2,13.8,13.8,13.8c18.3,0,34.6,8.7,45,22.1
			c8,10,12.5,22.5,12.5,36c0,31.8-25.6,57.4-57.4,57.4S4.2,805.4,4.2,772.5h43.6c0,8,6.2,14.2,13.8,14.2s14.2-6.2,14.2-13.8
			c0-7.6-6.6-14.2-14.2-14.2c-31.8,0-57.4-25.3-57.4-57.4s25.6-57.4,57.4-57.4S119,669,119,701.2H75.8z"/>
	</g>
</g>
<g id="Layer_7_copy_1_">
	<g>
		<path d="M1874,701.2c0-7.6-6.6-14.2-14.2-14.2c-7.6,0-13.8,6.6-13.8,14.2c0,7.6,6.2,13.8,13.8,13.8c18.3,0,34.6,8.7,45,22.1
			c8,10,12.5,22.5,12.5,36c0,31.8-25.6,57.4-57.4,57.4c-31.8,0-57.4-25.3-57.4-58.1h43.6c0,8,6.2,14.2,13.8,14.2
			c7.6,0,14.2-6.2,14.2-13.8c0-7.6-6.6-14.2-14.2-14.2c-31.8,0-57.4-25.3-57.4-57.4s25.3-57.4,57.4-57.4c31.8,0,57.4,25.3,57.4,57.4
			H1874z"/>
	</g>
</g>
<g id="Layer_2_copy_1_">
	<g>
		<path d="M1552.2,643.8c51.6,0,93.4,42.2,93.4,93.8c0,51.6-41.9,93.1-93.4,93.1c-51.6,0-93.1-41.5-93.1-93.1
			C1459.1,686,1500.6,643.8,1552.2,643.8z M1552.2,692.6c-24.6,0-44.3,20.1-44.3,44.6c0,24.6,20.1,44.6,44.3,44.6
			c24.6,0,44.6-20.1,44.6-44.6C1596.8,712.7,1576.8,692.6,1552.2,692.6z"/>
	</g>
</g>
<g id="Layer_2_copy_2">
	<g>
		<path d="M377.9,268.7c51.6,0,93.4,42.2,93.4,93.8s-41.9,93.1-93.4,93.1s-93.1-41.5-93.1-93.1S326.3,268.7,377.9,268.7z
			 M377.9,317.5c-24.6,0-44.3,20.1-44.3,44.6s20.1,44.6,44.3,44.6c24.6,0,44.6-20.1,44.6-44.6S402.5,317.5,377.9,317.5z"/>
	</g>
</g>
<g id="Layer_3">
	<g>
		<path d="M729.9,455.6L641.6,367v88.6h-49.1V268.7h20.1l88.6,88.2v-88.2h49.1v186.9H729.9z"/>
	</g>
</g>
</svg>
