<?xml version="1.0" encoding="UTF-8"?>
<svg width="127px" height="127px" viewBox="0 0 127 127" version="1.1" xmlns="http://www.w3.org/2000/svg" xmlns:xlink="http://www.w3.org/1999/xlink">
    <!-- Generator: Sketch 51.2 (57519) - http://www.bohemiancoding.com/sketch -->
    <title>Group 8</title>
    <desc>Created with Sketch.</desc>
    <defs>
        <polygon id="path-1" points="0.0002 0.472 126.519 0.472 126.519 127 0.0002 127"></polygon>
    </defs>
    <g id="Page-1" stroke="none" stroke-width="1" fill="none" fill-rule="evenodd">
        <g id="Group-8" transform="translate(0.000000, -1.000000)">
            <path d="M46.4028,59.6203 C45.9748,59.0053 45.4668,58.4813 44.8768,58.0403 C44.2888,57.6033 43.6318,57.2603 42.9318,57.0143 C42.2288,56.7713 41.4808,56.6493 40.6998,56.6493 C39.0898,56.6493 37.6738,57.1003 36.4458,58.0163 C35.2128,58.9213 34.3688,60.1223 33.9118,61.6173 L47.3338,61.6173 C47.1398,60.9013 46.8248,60.2393 46.4028,59.6203" id="Fill-1" fill="#2336AF"></path>
            <g id="Group-5" transform="translate(0.000000, 0.528000)">
                <mask id="mask-2" fill="white">
                    <use xlink:href="#path-1"></use>
                </mask>
                <g id="Clip-4"></g>
                <path d="M94.6382,68.8574 C93.6772,70.7254 92.3852,72.1784 90.7292,73.2054 C89.0702,74.2454 87.2082,74.7544 85.1512,74.7544 C83.5702,74.7544 82.0832,74.4524 80.6942,73.8424 C79.3072,73.2474 78.0942,72.4104 77.0662,71.3694 C76.0282,70.3094 75.2202,69.0864 74.6192,67.6764 C74.0372,66.2744 73.7422,64.7574 73.7422,63.1554 C73.7422,61.6154 74.0462,60.1574 74.6562,58.7804 C75.2552,57.4034 76.0812,56.2014 77.1042,55.1604 C78.1462,54.1314 79.3352,53.3164 80.6942,52.7034 C82.0532,52.0914 83.5052,51.7934 85.0542,51.7934 C86.5902,51.7934 88.0812,52.1054 89.5252,52.7314 C90.9622,53.3554 92.2102,54.2214 93.2622,55.3444 C93.9422,56.0634 94.5372,56.8734 95.0332,57.7974 C95.5262,58.7164 96.0472,59.9084 96.5982,61.3784 L101.2302,74.0234 L96.5052,74.0234 L94.6382,68.8574 Z M36.3682,73.8674 C34.9562,73.2844 33.7292,72.4774 32.6862,71.4404 C31.6352,70.4074 30.8052,69.1894 30.2032,67.7994 C29.5912,66.4024 29.2852,64.9084 29.2852,63.3024 C29.2852,61.7294 29.5912,60.2514 30.2032,58.8584 C30.8052,57.4594 31.6262,56.2414 32.6612,55.1904 C33.6892,54.1384 34.8912,53.3164 36.2712,52.7034 C37.6482,52.0914 39.1032,51.7934 40.6422,51.7934 C41.7642,51.7934 42.8552,51.9544 43.9232,52.2604 C44.9832,52.5734 45.9662,53.0124 46.8672,53.5924 C47.7682,54.1694 48.5792,54.8514 49.3022,55.6564 C50.0232,56.4624 50.5992,57.3514 51.0222,58.3364 C51.4142,59.1874 51.7042,60.1574 51.8942,61.2414 C52.0652,62.3154 52.1502,63.6474 52.1502,65.2214 L33.9102,65.2214 C34.0732,65.9734 34.3802,66.6644 34.8162,67.3064 C35.2632,67.9484 35.8032,68.4924 36.4152,68.9594 C37.0422,69.4204 37.7372,69.7784 38.5112,70.0364 C39.2762,70.3004 40.0892,70.4314 40.9392,70.4314 C41.9892,70.4314 42.8822,70.2554 43.6222,69.9124 C44.3652,69.5734 45.1592,68.9464 46.0042,68.0224 L49.1072,71.0754 C46.8752,73.5354 44.1562,74.7544 40.9392,74.7544 C39.3012,74.7544 37.7792,74.4614 36.3682,73.8674 Z M57.0232,52.5274 L62.9212,68.0694 L68.9252,52.5274 L73.7882,52.5274 L65.2402,74.0234 L60.4632,74.0234 L52.1072,52.5274 L57.0232,52.5274 Z M63.2622,0.4714 L0.0002,63.7354 L63.2622,127.0004 L126.5192,63.7354 L63.2622,0.4714 Z" id="Fill-3" fill="#2336AF" mask="url(#mask-2)"></path>
            </g>
            <path d="M90.0366,58.7399 C89.4026,58.1019 88.6476,57.6009 87.8026,57.2169 C86.9486,56.8389 86.0346,56.6489 85.0546,56.6489 C84.1016,56.6489 83.2086,56.8279 82.3636,57.1939 C81.5346,57.5559 80.8086,58.0539 80.1886,58.6879 C79.5626,59.3299 79.0656,60.0759 78.7106,60.9249 C78.3506,61.7779 78.1646,62.6959 78.1646,63.6829 C78.1646,64.7309 78.3346,65.7079 78.6816,66.6069 C79.0226,67.5189 79.5136,68.2769 80.1346,68.9179 C80.7506,69.5549 81.4916,70.0609 82.3416,70.4219 C83.1926,70.7819 84.1366,70.9599 85.1506,70.9599 C86.1326,70.9599 87.0466,70.7789 87.8776,70.3979 C88.7096,70.0139 89.4366,69.5109 90.0616,68.8689 C90.6876,68.2299 91.1796,67.4809 91.5356,66.6069 C91.9016,65.7389 92.0816,64.8009 92.0816,63.7799 C92.0816,62.7979 91.9016,61.8739 91.5356,61.0019 C91.1796,60.1319 90.6786,59.3869 90.0366,58.7399" id="Fill-6" fill="#2336AF"></path>
        </g>
    </g>
</svg>