<?xml version="1.0" encoding="utf-8"?>
<!-- Generator: Adobe Illustrator 18.0.0, SVG Export Plug-In . SVG Version: 6.00 Build 0)  -->
<!DOCTYPE svg PUBLIC "-//W3C//DTD SVG 1.1//EN" "http://www.w3.org/Graphics/SVG/1.1/DTD/svg11.dtd">
<svg version="1.1" id="Layer_1" xmlns="http://www.w3.org/2000/svg" xmlns:xlink="http://www.w3.org/1999/xlink" x="0px" y="0px"
	 viewBox="0 0 1276.9 560" enable-background="new 0 0 1276.9 560" xml:space="preserve">
<g>
	<path fill="#B20B0B" d="M518.4,199.2c5.1,10.4,5.2,19.9-4.1,28.4c-4.4,4-6.7,10-11.6,13.8c-2.2,0.9-4.3,2-3.8,5
		c-0.5,1.7-1.6,2.7-3.3,3.2c-5.2,1-7.5,5.2-10.3,9c-16.3,14.4-34.7,25-55.6,30.9c-9.6,1.7-9.3,1.7-9.6-8.3
		c-0.2-8.1,1.4-16.4-0.9-24.4c-0.5-0.4-0.6-0.9-0.3-1.5c1-3.9-1-7.6-0.5-11.5c0.1-1.1-0.3-1.8-0.2-0.6c0,0-0.5,0.1-0.8,0.2
		c-3.8-15.6-8.3-30.9-15.2-45.5c0-3.6-1.6-6.4-4.5-8.5c-8.1-14.4-19.4-26.3-30.5-38.3c-1.6-3.3-4-5.8-7.7-6.8
		c-6.3-2.8-10.1-9.2-16.8-11.5c-3.1-4.3-8.3-5.3-12.6-7.6c-15.8-7.3-32.7-11.1-49.7-14c-9.2-1.8-18.4-1.2-27.6-0.3
		c-24.2,3.4-47.3,9.7-68.1,23.1c-7.5,4.8-14.6,10.2-21.9,15.4c-3.8,2.3-7.1,4.9-8.7,9.2c-2.3,2.7-4.7,5.4-7,8.1
		c-2.7,1-4.2,3-5.1,5.7c-3.9,6.2-7.7,12.5-11.6,18.7c-5.1,4.4-6,11.2-9.7,16.4c-3.8,4.2-9.2,2.6-13.8,3.3c-13,2-25.4,5.8-38,9.3
		c-1.7,3.2-6,0.9-7.8,3.9c-3.4,0.5-6.5,1.8-9.6,3.1c-1,0.7-1.9,1.3-2.9,2c-6,3.4-13,5-18,10.2c-6.3,4.5-12.7,9-19,13.6
		c-6.5,1.9-7.1-2-6.9-6.9c0.7-15.8,3.8-31.1,7.8-46.4c0.7-2.5,1.3-5,1.7-7.5c3.2-11.4,8-22.3,12.1-33.4c3.4-7.2,8-13.8,9.8-21.7
		c5.7-11.2,12.4-21.8,20.5-31.4c2.2-1,4.2-2.1,3.9-5c3.5-5,7.1-10,11.7-14.1c4.4-2.4,7.8-5.9,10.4-10.3c1.8-2.8,4.3-4.9,7.2-6.6
		c5.7-1.6,8.6-6.4,12.1-10.6c15.9-13.2,33.1-24.3,52-32.8c11.3-2.6,21.2-9.3,32.7-11.2c0.2,0,0.4-0.5,0.3-0.7c0-0.2-0.3-0.4-0.5-0.6
		c6.2-1.9,12.1-6.2,19.1-3.4c13.1-4.5,26.9-5.2,40.6-6.8c26.8-3,53.1,1.6,79.5,5.3c6.3,0.3,12.1,2.5,17.9,4.8
		c14.1,6.3,28.4,12.1,42.8,17.9c15.1,7.3,28.9,16.7,41.8,27.4c1.5,2.7,3,5.6,6.8,5.6c3.6,2,6.5,4.9,9,8.2
		c3.5,5.6,8.2,10.1,13.7,13.8c14.7,14.9,26.7,31.8,36.2,50.5c5.6,15.2,13,29.7,18.4,45.1C514.2,187.9,514.1,194.4,518.4,199.2z"/>
	<path fill="#B20B0B" d="M299.3,362.6c-0.3,3,2.2,3.4,4,4.4c0.7,2.8,2.2,4.9,5.1,5.7c13,11.1,27.5,20.2,41.5,29.9
		c4.9,5.4,12.1,6,18.3,8.6c9.7,4,19.9,6.7,29.8,10.2c20.8,2.8,41.6,6.1,62.7,3c3.6-0.6,7.2-0.1,10.8-0.3c3-0.1,4.7,1.2,4.8,4.3
		c-2.3,2.9-4.5,5.8-6.8,8.7c-5.1,2-6.2,7.8-10.2,10.9c-7.4,8.1-16.2,14.9-22.7,23.9c-1.2,2.3-3.1,3.7-5.4,4.7c-2.8-0.1-4.1,1.7-5,4
		c-5.3,4-10.5,7.9-15.8,11.9c-3.4-0.5-5,3.1-8,3.6c-3.5,2-6.6,0.1-9.8-1c-12.5-4.1-24.4-9.8-37.6-11.5c-10-6.1-19.9-12.3-29.9-18.4
		c-2.8-5.2-7-9-11.9-12.2c-3-2.1-5.2-4.9-7.1-8c-1.7-5.2-6.2-8-10.1-11.3l0,0c-2.2-7.2-7.7-12.6-11.1-19.2
		c-4.6-12.4-10.3-24.4-14-37.1c-0.1-0.2-0.3-0.5-0.5-0.5c-0.3,0-0.5,0.2-0.8,0.4c-6.1-18.5-4.7-37.6-3.1-57.4
		c6.2,8.5,12.4,17,18.7,25.5C288.3,352.5,293.5,357.8,299.3,362.6z"/>
	<path fill="#636A7C" d="M199.5,374.8c8.1-19.4,14.1-39.8,29-55.7c3.8,1.5,3.3,4.9,3.5,8c0.3,5.7-0.7,11.5,0.8,17.1
		c0.3,10.4-0.2,20.9,0.6,31.3c0.7,1.1,1.9-0.4,0.9,0.1c-0.4,0.2-0.7,0.1-0.8-0.4c-0.6-6.7-1.4-13.4,0.5-20.1c2.5,12.6,1,25.4,5,38.2
		c12.7,40.7,35.7,73.9,68.5,100.6c9.4,7.6,20.5,12.9,31.5,18.1c4.9,2.3,12.5,4.1,12.2,9.1c-0.3,4.6-8.5,4-13.2,5.9
		c-1.5,0.7-3.4,0.5-5.1,0.7c-11.6,0.2-22.4,4.6-33.9,5.6c-20,1.7-39.9,5.3-60,1c-16.6-22.5-31.6-45.9-39.5-73
		c1.2-2.6,0.2-5.1-0.3-7.6c-4.7-24.9-5.6-49.8,0.7-74.6C200.2,377.7,200,376.2,199.5,374.8z"/>
	<path fill="#919EAE" d="M155.7,452.8c3,8.7,3.6,17.9,6.6,26.7c4.4,12.7,13.6,22.5,18.5,34.8c0.9,2.3,3.6,4.5,1.4,6.9
		c-1.9,2.2-4.4,0-6.4-0.7c-29.6-10.7-56-26.7-80-47c-5-4.2-8.9-8.9-9.2-15.7c1-7.5,1.2-14.9-0.1-22.4c0-0.6,0.1-1.3,0.1-1.9
		c1.7-3.5-0.3-7.4,1.4-10.9c-0.2-0.4-0.1-0.8,0.1-1.1c2.1-2.8,0-6.4,1.6-9.3c0.5-13.3,6.8-25,12.2-36.5
		c11.7-24.7,28.4-45.8,51.2-61.6c14.5-10,30.6-16.2,47.8-19.6c1.1,1.2,1,2.5,0,3.7c-16.9,21.9-32.9,44.4-39,72.2
		c-2.2,10-4,20.1-6,30.2C154.2,418.1,154.3,435.4,155.7,452.8z"/>
	<path fill="#EB7D50" d="M383,381.5c-21.1-7-39.5-18.5-56.3-32.8c-1.7-1.4-2.8-3.5-4.2-5.3c0.5-3.9-3.1-4.8-5.2-6.9
		c-4.9-5-8.5-10.7-10.8-17.3c1.3-2.1,3.8-0.6,5.3-1.8c8.8,3.9,17.6,7.9,26.4,11.8c9.5,2.6,19.1,3.8,29,2.3c10.5,1.1,20.9,1.1,31.4,0
		c10,1.8,19.7,0,29.4-2.1c4.8-6.4,12.7-5.8,19.2-8.3c2.1,0.7,3.5-0.5,5.1-1.6c1.8-0.7,3.5-1.3,5.3-2c2,0.3,4.1,0.8,4.9-2
		c19.1-6.9,33.4-20.7,48.6-33.3c4.4-1.4,6.8-4.9,8.8-8.8c2.3-2.5,4.5-5,6.8-7.5c0.6,26.6-0.2,52.7-10.1,77.4
		c-1.3,2.1-2.7,4.2-1.8,6.9c-2,19.9-15.1,28.7-32.9,33c-2.7-0.3-5.3,0.7-7.9,0.9c-15.4,3.5-31,5-46.8,3.3
		C412.2,387.2,397.9,382.4,383,381.5z"/>
	<path fill="#ABB9C6" d="M156.1,241.1c12.6,0.9,24.9,3.2,36.9,7.4c2,0.7,5.2,1.2,5.2,3.9c0,3.1-3.1,2.5-5.3,3
		c-17.4,4.2-34.2,10.4-49.2,20.1c-43.5,27.9-78.4,63-91.2,115.4c-1.1,4.4,0.6,9.4-2.5,13.4c-1.7,2.5-0.5,5.3-0.9,7.9
		c-0.2,1.7-0.6,3.3-2.9,2.7c-17.3-27.3-29.6-56.7-36.8-88.4c-2.3-10.2,3.7-15.5,8.5-20.9C34.1,287,51.7,269.4,73.9,258
		c17.8-9.2,36.6-16.6,57.2-17C139.4,239.9,147.8,239.9,156.1,241.1z"/>
	<path fill="#636A7C" d="M701.8,118.1c-3.3-9-4.9-18.5-6.3-27.9c0.1-2.2,1.7-4.5-0.5-6.6c-4.8-4.5-4.5-0.1-5.1,2.9
		c-5.3,25.5-13.6,50.2-20,75.3c-0.1,0.5-0.6,0.9-1,1.4c-1,2.2-2.6,4.2-1.7,6.8c-0.5,2.5-0.9,5.1-1.6,7.6
		c-2.6,9.9-7.4,12.5-17.2,10.2c-2.5-0.6-3.1-2.2-3.6-4.2c-2.8-11.5-5.5-22.9-8.3-34.4c1.3-2.7-0.3-4.7-1.6-6.8
		c-2.9-11.1-5.8-22.1-8.7-33.2c0.7-1.6,0.4-3.4,0.4-5c0-0.5,0.2-1.2-0.4-1.6c0.4,0.9,0,1.5-0.7,2C621.1,92,618.2,79,615.4,66
		c0.6-8.5,7-6.9,12.3-7c1.6,0.1,2.6,0.8,3,2.5c3.4,15.4,6.9,30.9,10.4,46.3c-1.5,2.6,0.4,4.7,0.9,7c0.4,2.3-0.4,5.1,2.2,6.7
		c3.5,14.5,7,29.1,10.6,43.6c7.4-22.2,12.1-44.5,19.5-66.1c1-2.8,3.4-5.2,2.1-8.6c0.6-10.4,5.5-19.6,7.5-29.7
		c1.3-6.6,8.3-2.4,12.6-3.4c4.1-0.9,5.3,1.5,6.1,5.1c7.4,31.3,15.8,62.3,21.5,93.9c-0.2,2.7-1.6,5.5,0.8,7.9c5.7,2,4.3-2.7,4.9-5.3
		c5.8-24.8,11.6-49.6,19.1-73.9c3.7-6.3,4.9-13.4,6.6-20.3c1.2-4.7,3.8-5.9,8.1-5.6c3.9,0.3,6,1.5,4.3,6c-1.8,4.8-3.6,9.6-3.4,14.8
		c-1.5,10.8-4.9,21-8.4,31.3c-2.2,3.8-3.6,7.8-3.5,12.2c-0.5,4.4-1.5,8.6-3.5,12.6c-6,9.4-6.8,20.3-8.9,30.8
		c-1.1,4.4-2.6,8.8-3.2,13.3c-0.7,6.1-3.7,7.4-9.6,7.8c-8.3,0.6-11.2-2.9-11.9-10.3c-0.3-3.1-1-6.2-1.5-9.3
		c0.1-7.4-2.1-14.2-5.2-20.8c-1.9-2.6-1.9-5.5-2-8.5c0.4-3.1-0.4-5.9-1.2-8.8C704.2,126.3,704.3,121.8,701.8,118.1z"/>
	<path fill="#636A7C" d="M756.7,280.9c6.9-3.1,9.5-10.8,17.9-13.5c18-5.8,30.1-2.6,40,15.2c9.9-13.9,22.6-21.6,39.8-17.1
		c9.9,2.6,16.6,8.9,19.2,19.1c3.1,23.7,2.1,47.4,1.5,71.2c-8.4,4.8-12.4,2.9-12.5-6.1c-0.1-15-0.1-29.9,0-44.9
		c0-3.5,0.1-6.9-2.2-9.9c-2.1-7.4-6-13.5-13-17.1c-4.4-3.1-8.8-3-13.2-0.2c-7.2,3.4-12.1,9-15.6,15.9c-2.9,3.1-1.9,7-2,10.6
		c-0.1,15.2,0,30.4-0.1,45.6c0,2.8,1,6.6-2.3,7.7c-3.5,1.2-7.7,2.5-10.6-1.8c-0.2-17.2,0-34.5-0.1-51.7c0-3.7,0.3-7.5-2.1-10.8
		c-2.4-6.8-6.7-11.9-12.9-15.5c-4.4-2.7-8.9-3.1-13.3,0.1c-7.2,4.1-12.6,9.7-15.9,17.3c-2.6,3.2-1.8,7-1.8,10.6
		c-0.1,14.3,0,28.6-0.1,42.9c0,3.1,0.8,6.3-1.6,9.1c-3.7,0.5-7.5,1.5-11.1-0.7c-0.6-21.9-0.2-43.8-0.2-65.7c0-5.8-1.2-11.4-1-17.2
		c0.2-4.3,1.9-6.1,6.4-6.1c4.7,0,4.8,2.6,5,6.1C755.1,276.4,753.5,279.3,756.7,280.9z"/>
	<path fill="#636A7C" d="M1216.9,305.4c3.2,4.2,4.1-0.1,5.4-1.7c10.5-12.1,20.9-24.4,31.3-36.6c0.7-0.6,1.4-0.7,2.2-0.4
		c4.5,0.9,9,0,13.5,0.7c0.8,0.3,1.5,0.7,2,1.4c-11.3,9.7-19.5,22.5-31.1,32c-3.5,2.9-1.3,5.9,1,8.9c11.4,15.1,22.5,30.4,33.7,45.6
		c-4.3,5.8-10.9,1.2-16,3.4c-8.3-11.3-16.6-22.6-25-33.9c-7.4-10-7.5-9.9-16-2c-4.2,3.3-1.8,7.9-2.4,11.9
		c-1.2,7.7,2.4,15.9-2.3,23.3c-10.7,0.3-10.7,0.3-10.7-10.5c0.1-40.5-0.2-80.9,0.1-121.4c9.2-4.6,12.7-2.7,12.8,7.2
		c0.1,21,0,41.9,0.1,62.9C1215.5,299.3,1214.7,302.6,1216.9,305.4z"/>
	<path fill="#636A7C" d="M900,303.7c4.7-28.4,26.2-44.3,52.3-38.5c16,3.5,24.2,14.2,27,29.8c-0.2,0.5-0.6,1.1-0.5,1.6
		c2.2,20,0.5,17.4-17.2,17.3c-13.6-0.1-27.2-1.2-40.1-0.7c7.3,0,15.2-0.1,23.1,0.1c1.9,0,4.9-1.5,5.5,2.2
		c-9.5,0.1-18.9,0.6-28.3,0.1c-7.4-0.4-7.8,2.5-6.7,8.5c1.7,9.4,8.1,15.4,14.1,21.8c10.8,7.3,22.9,5.6,34.2,3.1
		c7.3-1.6,9.3,0.8,10.7,6.6c-0.6,1.5-1.9,1.6-3.2,1.6c-8.5,0.6-16.9,2.3-25.5,2.1c-7.2-0.2-14.2-0.9-21.2-2.1
		c-14.8-6-22.2-17.4-24.1-32.8C901.1,317.5,901.1,310.6,900,303.7z"/>
	<path fill="#636A7C" d="M781.5,116.1c1.8-3.9,3.5-7.8,7.2-10.5c2.7-0.7,4.2-2.5,5.3-5c4-3.7,8.6-5.9,14-6.6
		c9.3-0.6,18.5,0.3,27.6,1.7c14.6,6.2,25.5,28.3,22.3,43.9c-1.1,5.2-4.4,4.4-7.8,4.4c-17.6-0.2-35.1-0.5-52.7-0.7
		c-2.3,0-4.6-0.4-6.7,0.8c-1.5,1.3-1,3.1-1,4.8c0.1,2.7,0.7-0.8,1,0.1c2.7,11.4,7.9,21,19.1,26.3c9.8,6.8,20.3,3.2,30.6,1.9
		c3.4-0.5,6.7-1.9,9.4,1.6l-0.1-0.1c1.8,6-3.4,5.8-6.5,6.7c-13.4,3.7-27,2.7-40.6,0.5c-9.4-2.8-16.4-8.4-20.5-17.4
		c-3.4-12.5-6.4-24.9-3.8-38C779.2,125.5,782.6,121.3,781.5,116.1z"/>
	<path fill="#636A7C" d="M1108.3,302c6.2-34.5,42.1-43,66.8-34.9c4.1,1.3,4.7,3.7,2.6,7.1c-2.9,0.5,0.5,5.8-3.9,5.1
		c-6.5-0.9-12.8-3.3-19.6-2.6c-16.5,1.9-27.4,11.7-30.5,27.3c-3.7,18.6,2.8,33.5,18.9,42.9c6.5,6.4,14.6,2.8,22,3.1
		c2,0.1,4-0.7,5.9-1.3c2.7-0.9,5.2-1.3,6,2.4c0.6,3-0.4,5-3.4,6c-4.4,1.5-9,2-13.5,2.8c-4.5,0.5-9.2-0.9-13.6,0.8
		c-19.9-1.3-33.5-13.8-37.8-34.7C1109.1,318,1109.1,310,1108.3,302z"/>
	<path fill="#636A7C" d="M898.2,105c-2.3,3.2-4.6,6.5-7,9.7c-1.8,2.4-1.8,4.6,0.5,6.7c4.6,7.4,12.1,10.2,19.6,13.2
		c7.8,3.1,15.5,6.6,19.8,14.4c8.2,14.9,1.2,31.5-15.9,38c-3.5-1.4-6.4,1.6-9.8,1.2c-3.9,0-7.7,0-11.6,0c-2.9,0.1-5.5-1.6-8.3-1.7
		c-2.2-0.1-4.2-2-6.6-1c-9.2-1.7-3.5-7.5-2.3-10.7c2.2-6.2,4.9,0.4,7.5,0.5c9.1,5.5,18.3,6.8,27.6,0.5c2.2-2.6,4.5-5.2,6.7-7.8
		c2.1-3.2,1.8-6.3-0.1-9.5c-4.2-6.6-10.7-10.1-17.7-13c-9.6-3.9-19.4-7.8-23.2-18.9c0.8-4.6,1-9.1-0.1-13.7c1.5-9,7-14.4,15.5-17.2
		c9.1-1.9,18.4-1.1,27.6-1.6c5.4,1.5,13.4,1.2,7.3,10.6c-2.1,0.1-3.5,3.5-6.1,1.4l-0.6,0.1l-0.5-0.4
		C913.3,101.2,905.8,100.7,898.2,105z"/>
	<path fill="#B30B0C" d="M665.9,451.7c-1.4,7.7-8.3,9.8-13.8,13.2c2.4,2.6,4.5,4.9,6.6,7.3c7.3,12.5,8.3,27,12.9,40.3
		c-1.5,6.7-6.1,2.8-9.6,2.8c-4.6-6-2.6-14.3-7-20.4c-2.5-6.7-3.6-13.9-8.6-19.4c-5.3-6.3-20.9-9.8-27.2-6.1
		c-2.2,1.3-3.3,3.1-2.3,5.7c0.5,10.6,0.1,21.3,0.2,31.9c0,2.5,0.4,5.2-1.8,7.3c-5.4,1.9-8.5,0.2-8.5-5.7c0.2-31.5-0.9-63.1,0.5-94.6
		c0.8-1.7,2.4-2.2,4-2.5c8.6-0.4,17.2,0,25.8-0.2C662.4,410.5,676,429.3,665.9,451.7z"/>
	<path fill="#B20B0C" d="M839,450.9c2.5-4,6.2-6.5,10.5-8.3c8-1.7,16.1-2.8,24.2-3.6c15,0.9,23.9,9.9,28.8,23.1
		c6.8,18.2,1,38.7-13.2,49.4c-6.3,0.7-11.2,5.3-17.8,5.6c-10.4,0.5-19.8-1.5-28.6-7.1c-1.3-1.3-2.6-2.6-3.9-3.9
		C828,487.7,828.9,469.3,839,450.9z"/>
	<path fill="#62697B" d="M622,232.5c0,35.9,0.1,71.8,0.1,107.6c0,2,0.2,4,0.3,6c1.7,3.2,4.6,1.6,6.9,1.6c13.6,0.2,27.1,0.1,40.7,0.1
		c3.4,0,6.9-0.7,7,4.9c0.2,6-3.4,5.5-7.3,5.5c-18.5-0.1-37,0-55.4-0.1c-2.4,0-5.4,1.1-6.6-2.4c-0.2-38.5,0-77-0.1-115.5
		c0-10,0.8-10.5,11.1-8.3c1.4,1.8,0.9,3.9,0.9,5.8c0,32.9,0,65.8,0,98.6c0,1.7,0.6,3.6,0.1,4.2c0-8.7,0-18.5,0-28.2
		c0-24.2-0.1-48.4,0.1-72.7C619.8,237.4,617.8,233.9,622,232.5z"/>
	<path fill="#B20C0C" d="M1192.9,480.3c-14.6,0.1-29.2,0.7-43.7,0.1c-7.1-0.3-7.5,2.9-6.4,8.1c1.4,6.7,5.8,11.6,10.6,16.1
		c2.1,4.8,6.8,4.9,10.8,5.2c8.7,0.5,17.6,0.8,25.3-4.6c3.8,9,3.8,9.5-4.8,11.3c-14,2.9-28,4.8-40.6-4.6c-2-3.7-4.6-6.7-8.5-8.6
		c-11.7-17.7-8.3-44.1,7.5-58c9.7-8.5,29.1-9.8,39.7-2.6c1.6,1.1,3.6,2,3.3,4.6c5.3,6.4,7.9,13.8,8.6,22.1c0.5,6.1-1.5,8.8-8.2,8.6
		c-13.2-0.4-26.4-0.4-39.6,0.1c-0.2,0-0.4,0.4,0.1-0.2c14.1,0.1,28.9-0.1,43.8,0.1C1192.1,478.1,1192.8,479,1192.9,480.3z"/>
	<path fill="#636A7C" d="M962.1,78.1c3.2-3.8,8.1-3.5,12.3-4.9c2.5,6.7-1.2,13.9,2,20.5c5.3,2.3,10.8,1,16.2,1.1
		c10.5,0.2,10.6,0.2,7.8,11.1c-7.5-1.3-15-1.6-22.5,0.2c-0.5,0.6-1,1.3-1.5,1.9c-2.6,7.4-0.8,15-1.1,22.5c-0.3,10-0.1,20-0.1,30
		c0,0.2,0.2,0.5,0.3,0.5c0.3,0,0.6-0.1,0.8-0.1c1.5,6.6,3.1,13.1,10.3,16.1c3.4,1.6,6.7,1.7,10,0c7.2-0.5,2.3,4.8,3.4,7.1
		c-1.7,2.8-4.5,3.8-7.5,4.2c-4.3,0.3-8.6-0.6-12.9,0.5c-11.6-2.7-16.1-8-17.4-20.5c1-20.2,1.8-40.4-0.4-60.6c-0.5-0.5-1-1-1.5-1.5
		c-3.8-2.8-8.4,0.1-12.2-1.8c-1.1-3.4-1.5-6.6,1.9-9c3.9-0.6,7.9-1.1,11.8-1.7C963.8,88.5,963.7,83.3,962.1,78.1z"/>
	<path fill="#B20B0C" d="M693.4,504.9c-10.4-14.4-9.8-29.6-3.5-45.3c4-5.2,7.9-10.5,12.2-15.5c9.9-7.1,20.5-7.7,31.6-3.7
		c5.9,4.8,13.3,8.3,14.5,17.1c6.1,20.4,6.1,20.4-14.7,20.4c-10.3,0-20.6,0-30.9,0c13.6,0,27.2-0.1,40.8,0.1c2.4,0,6-2.1,7.2,2.3
		c-14.9,0.1-29.8,0.1-44.8,0.3c-2.8,0-6.7-1.6-7.5,3.3c-0.8,13.5,10.2,24.9,24.9,26.1c5.6,0.4,10.8-1,16.2-1.8
		c2.3-0.3,5.7-2.5,6.5,1.5c0.7,3.6-2.8,4.5-5.6,5.2c-13.2,3.2-26.2,3.4-38.5-3.5C698.5,509.9,696.8,506.2,693.4,504.9z"/>
	<path fill="#636A7C" d="M1015.9,267.5c2.8,4.6,0.2,10,2.6,16.1c5.1-7.8,9.2-15.7,18.4-17.7c1.7,0.8,3.4,0.5,5.1,0.3
		c2.8-0.4,4.4,1,4.9,3.6c0.5,2.6,0.2,5.1-2.2,6.9c-1.8,1.3-4.8,0-6,2.7c-10.3,3.4-15.7,11.3-19.1,21c-2.3,3-0.5,6.5-1.1,9.7
		c0,12.9,0,25.8,0,38.7c0,3.3,0.9,7.1-3,9.2c-10.8,0.4-10.8,0.4-10.8-10.2c0-24.2,0.1-48.4-0.1-72.6c0-5,1-7.9,6.6-7.1
		c0.8,0,1.6,0,2.4,0.3c1.3,0.6,1.2,1.9,1.6,3C1015.2,270,1014.9,268.6,1015.9,267.5z"/>
	<path fill="#B20C0C" d="M786.1,480.8c-9.4-2.5-16.3-7.9-17.7-17.8c-1.2-8.5,1.9-15.8,10-20.2c7.2-2,14.5-3.5,22-2.8
		c3.5,1.7,10.8,0.5,9.4,6.1c-1.6,6.4-7.2,0.6-10.9,0.5c-6.3-0.1-12.5-1-15.8,6.2c-3.4,8.3-0.6,14,7.3,17.6c3.1,4.1,8.7,3.6,12.4,6.6
		c8.9,1.8,12.7,8.1,13.4,16.4c0.9,9.7-2.5,17.5-12,21.6c-9.8,1.5-19.6,3.4-29.5,0.7c-3.9-1.1-7.1-2.5-6.6-7.4c0-5.4,2.6-4.2,6.1-2.9
		c9.6,3.8,19.2,6,27.7-2.5c3.4-10,1.8-14.3-7.2-19C792.1,482.4,789.2,481.2,786.1,480.8z"/>
	<path fill="#B20B0B" d="M938.2,497.4c2.4,3.4,4.8,6.9,8.5,9.1c5.8,4.9,11.5,3.1,17.2-0.2c0.4-0.6,0.8-1.2,1.1-1.7
		c3-0.7,4.8-3.1,6.8-5.2c3.5-5.6,4.5-11.6,4.3-18.2c-0.3-10.4-0.2-20.7,0-31.1c0.1-3.8-1.2-8.7,5.4-8.6c5.9,0.1,4.9,4.6,4.9,8.2
		c0.1,18.7,0.1,37.4,0,56.2c0,3,1,6.9-3,8.2c-5,1.7-4.9-3.6-7.1-5.8c-0.6-2.1-2-1.9-3.6-1.4c-4.7,2-7.1,7.6-12.6,8.3
		c-8.5,2.5-16.8,3.3-24.7-1.8c-5.6-4.9-9.1-10.8-10-18.3c-2.1-17.6-2.2-35.2-0.1-52.8c7.2-2.6,9.3,0.7,9.2,7.5
		c-0.2,10.7-0.1,21.4,0,32.1C934.5,487.3,934.8,492.7,938.2,497.4z"/>
	<path fill="#636A7C" d="M1068.3,357.4c0-29.5,0-59,0-88.5c4.8-0.9,9.6-2,14.3,0.6c0.4,27.4-0.1,54.8,0.3,82.1
		c0.1,5.5-1.8,7.3-7,6.6C1073.4,357.9,1070.7,358.8,1068.3,357.4z"/>
	<path fill="#B20B0C" d="M1078.5,499.5c3.1,2.2,6.2,4.5,9.2,6.7c4.7,4.4,10.3,4.1,16,3.4c2-0.2,3.8-1.1,5.9-1.4
		c2.4-0.3,4.8-0.3,5.6,2.5c0.9,3.4-1.9,3.7-4.1,4.2c-12.1,3.3-23.9,3.2-35.2-2.9c-4.1-1.3-5.8-5.8-9.8-7.1
		c-13.3-17.3-11-42.5,5.2-57.6c9.7-4.2,19.3-8.8,30.5-7.7c3.2,0.3,6.3,0.7,9.4,1.3c2.6,0.6,5.1,2.2,4.1,5.5c-0.8,2.8-3.4,2.8-5.8,2
		c-4.5-1.5-9.2-1-13.7-0.9c-4.6,0.1-9.1,1.1-12.1,5.2c-2.9,3-5.7,6-8.6,9C1066.4,473.1,1068,491,1078.5,499.5z"/>
	<path fill="#B20B0C" d="M1239.7,485.6c-6.5-2.9-13.4-4.7-19.2-8.9c-9.7-7.1-11.5-16.6-5.2-27.5c3.7-1.1,5.2-5,8.6-6.5
		c8.2-3.3,16.6-3.7,25.1-1.6c2.4,0.6,5.6,1.3,4.5,4.8c-1,3.1-3.7,2.9-6.4,2c-5.5-1.7-11.1-2.7-16.6,0.1c-8.6,7.1-9.3,9.9-4.2,18.4
		c3.3,3.8,7.7,6,12.2,7.3c5.8,1.7,10.2,5.8,15.6,8.1c0.2,1.9,0.6,3.6,2.9,4.1c3.7,7.9,3.8,15.5-1.6,22.7
		c-11.4,9.4-24.3,10.4-37.9,6.7c-2.9-0.8-5.9-1.9-4.5-5.7c1.3-3.4,4.2-2.1,6.6-1.4c6.5,1.9,13,4,19.4-0.1c2.4-2.4,4.9-4.7,7.3-7.1
		c2.8-3.2,1.3-6.3,0-9.5C1245,488.5,1243.9,485.3,1239.7,485.6z"/>
	<path fill="#B20A0A" d="M1022.7,442.4c0.3,3.3,0.7,6.6,1,10.4c4.5-1.8,4-7.3,7.9-8.7c3.4-1.4,6.8-3.1,10.4-3.9
		c2.5-0.6,5.4-1.4,5.9,2.6c0.4,3.1,0,5.8-3.9,6.4c-10.9,1.5-16.3,8.8-19.2,18.5c-2.4,13.1-0.4,26.3-1.1,39.5c-0.1,2,0.5,4.1-0.7,5.9
		c-1.5,2.3-4,2.1-6.2,1.7c-2.8-0.4-3.6-2.5-3.4-5.1c0.7-13.2-0.6-26.4,0.2-39.5c0.4-6.6,0.4-13.1-0.1-19.6
		C1012.8,441.3,1013,441.1,1022.7,442.4z"/>
	<path fill="#AA0B08" d="M976.4,508.2c1.1-0.3,3-4.8,3.2,0.5c0.1,2-0.1,4.6,2.9,4.2c2.7-0.4,2.2-3,2.2-4.9c0-19.9,0-39.7,0-59.6
		c0-2.5,0.6-5.7-3.3-5.8c-3.9-0.1-3.5,3-3.6,5.6c-0.1,11.8,0.1,23.6-0.1,35.4c-0.1,6.7-1.1,13.2-6.9,17.7c-0.8-0.7-0.8-1.4-0.2-2.2
		c5.5-9.3,3.2-19.5,3.5-29.3c0.2-8.1,0.4-16.1-0.1-24.2c-0.4-5.9,2.8-5.6,6.8-5.5c3.9,0.1,7.2-0.5,7.2,5.5c-0.2,21,0,42,0.1,63
		c0,4.2,2,9-6.1,8.8C973.9,517.1,976.3,512.5,976.4,508.2z"/>
	<path fill="#A90808" d="M325.7,8.9c-2.1,2.4-4.6,1.4-7.1,0.8c-17.9-4.2-36.3-5.5-54.4-5.5c-19.5,0-39.1,4-58.6,6.3
		c0.4-1.3,0.6-2.7,2.4-3.1c28.6-5.7,57.4-8.4,86.5-4.3C305,4.4,315.6,5.1,325.7,8.9z"/>
	<path fill="#A20504" d="M615.3,513.5c0-13.9,0-27.7,0-41.6c0.8-0.8,1.5-0.7,2.2,0.2c0.2,13.5,0.2,27,0.7,40.5
		c0.2,6.2-3.9,4.3-6.9,4.5c-3.3,0.2-6.7,1.2-6.6-4.7c0.3-32.2,0.1-64.4,0.1-96.6c0-2.2-0.7-4.9,3.1-4.6c1.9-0.5,4.1-1.6,4,1.9
		c-1.1,0-2.3,0-3.4,0c-1.2,1.5-0.9,3.3-0.9,5c0,29.8,0.1,59.5-0.1,89.3C607.4,513.2,608.8,516.2,615.3,513.5z"/>
	<path fill="#535B6F" d="M698.7,267.4c14.8-1.6,14.8-1.6,14.8,12.4c0,23-0.5,46.1,0.3,69.1c0.3,9-2.3,12-10.8,10.4
		c-1.4-0.3-2.8-0.4-4.2-0.5c-0.2-1.9,1.1-2.6,2.5-3.3c5-1,7-4.1,7-9.2c-0.1-22.2-0.1-44.3,0-66.5c0-5.1-2-8.2-7-9.2
		C699.8,270.1,698.4,269.4,698.7,267.4z"/>
	<path fill="#656B7D" d="M716.1,237.6c-0.1,6.3-5.3,11-12.1,10.5c-6.3-0.5-8.6-5.1-8.9-10.6c-0.3-6.1,4.8-10.9,11-10.4
		C712.4,227.5,715.9,231.1,716.1,237.6z"/>
	<path fill="#656C7D" d="M1086,238.6c0.1,5.4-3.5,8.9-9.8,9.4c-6.1,0.5-10.9-4.6-10.5-10.9c0.4-6.5,4.2-10,10.5-10
		C1082.8,227,1086,230.7,1086,238.6z"/>
	<path fill="#5D6476" d="M1216.9,305.4c-2.7,2.9-3.2,2-3.2-1.5c0.1-13.8,0.1-27.6,0.1-41.4c0-8.9-0.6-17.9,0.2-26.7
		c0.7-8.4-2.3-11.7-10.5-10.2c-1-1.1-1-2.1,0-3.2c0.9-0.1,1.7-0.2,2.6-0.2c11.3-0.2,11.3-0.2,11.3,10.8
		C1217.1,257.1,1217,281.2,1216.9,305.4z"/>
	<path fill="#A70806" d="M700.3,510c12.8,6,26,6.7,39.5,3.5c2.3-0.5,4.7-0.6,4.8-4.7c-4.3,0.8-8.4,1.6-12.4,2.4
		c-17.4,3.6-36.2-10.3-36.7-27.7c-0.1-3.8,1.7,0.8,2.8,0.4c4.9,20.9,16.7,27.5,40.2,22.8c3.2-0.6,7.8-5.4,9.7,2.6
		c1.9,7.9-5.4,4.6-7.7,7.4c-0.7,0.9-3.3,0.3-5,0.4c-7.3,1.1-14.5,1.1-21.8,0c-5.1,0-9.6-1.9-13.5-5.2c-0.5-0.5-0.6-0.9-0.4-1.3
		C700,510.2,700.2,510,700.3,510z"/>
	<path fill="#5C6377" d="M698.7,267.4c0.6,0.5,1.1,1,1.7,1.5c2.8,3,2.7,6.8,2.8,10.6c0.1,22.4,0.1,44.8,0,67.2c0,3.7,0,7.5-2.7,10.6
		c-0.6,0.5-1.1,1-1.7,1.5c-1.7-0.8-1.2-2.4-1.2-3.7c0-27.7,0-55.3,0-83C697.5,270.5,696.8,268.6,698.7,267.4z"/>
	<path fill="#A00201" d="M1022.7,442.4c-8.4-0.5-9.5,3.1-7.7,10.8c1.5,6.4,0.4,13.4-0.5,20.1c-1.5,11.3,2.1,22.7-0.1,34.1
		c-0.6,2.9-0.1,5.9,4.2,5.9c4.2,0,4.4-2.7,4.4-5.8c0-10.9-0.1-21.9,0-32.8c0-2.8-1-5.8,1.7-8.1c1.1,1.3,0.8,2.7,0.2,4.1
		c0,13.6-0.2,27.1,0.2,40.7c0.1,4.9-1.7,6.1-5.9,5.5c-3.2-0.4-7.6,2-7.4-4.9c0.6-22.8,1-45.6-0.1-68.4
		C1011.5,439.2,1016.4,438.7,1022.7,442.4z"/>
	<path fill="#545B6F" d="M1203.3,222.4c0,1.1,0,2.1,0,3.2c0,40.5,0.2,81.1-0.2,121.6c-0.1,8.4,2.3,11.7,10.6,10.2
		c1.1-1,2.2-1,3.2,0.1c-4.3,4.4-9.6,1.3-14.4,1.7c-1.9,0.2-1.5-1.9-1.5-3.3c0-43.8,0-87.6,0.1-131.3
		C1201.2,223.2,1201.9,222.4,1203.3,222.4z"/>
	<path fill="#5B6275" d="M618.8,232.5c-8.2-1.4-10.7,1.8-10.6,10.2c0.4,37.6,0.2,75.3,0.2,112.9c-0.6,0.8-1.1,0.8-1.7,0
		c-0.1-40.6-0.2-81.2-0.4-121.8c0-3.2,0.8-5.2,4.3-4.5c3.7,0.7,7.9-2,11.3,1.5C621,231.6,619.9,232.2,618.8,232.5z"/>
	<path fill="#5F6678" d="M199.5,374.8c2.1,2.5,1.6,5.6,1,8.3c-5.1,22.8-4.5,45.5,0,68.3c0.6,3.2,1.4,6.9-1.1,10
		C192.6,432.5,190.5,403.7,199.5,374.8z"/>
	<path fill="#A70B09" d="M1083.8,452.9c1.9-4,5.4-6.7,10.4-6.9c4.5-0.2,9.1-0.8,13.6,0.7c2.1,0.7,5,2.2,5.9-0.7
		c0.9-3.1-2.4-3-4.5-3.7c-11.5-3.8-21.9-0.3-32.2,4.4c-1.8,0.8-3.3,3.9-5.6,0.8c12.1-10,26.1-10.4,40.6-7.7c4.4,0.8,6.9,2.1,5.1,8
		c-1.8,5.9-4.3,3.4-7.5,2.6C1100.8,448,1092.1,448.4,1083.8,452.9z"/>
	<path fill="#555D70" d="M804.4,355.7c9,3.2,10.3,2.5,10.4-6.2c0.1-14.9,0.1-29.9,0-44.8c0-4.1,0.5-7.9,2.3-11.5
		c0.1-0.1,0.5-0.1,0.8,0c0.3,0.1,0.4,0.3,0.7,0.5c-0.1,19.9-0.2,39.8-0.4,59.6c0,2.8,0.6,6.9-3.8,6c-3.9-0.8-9.9,4.3-11.6-3.6
		C803.3,354.9,803.8,354.8,804.4,355.7z"/>
	<path fill="#A90505" d="M611.9,412.9c-0.9-1.6-2.4-1.7-4-1.9c17.5-2.4,34.8-5.4,51.4,4.6c5.7,3.5,7.8,8.4,10.1,13.7
		c0.9,5.7,1,11.4-0.1,17.1c0.1,2.6-1.7,3.9-3.4,5.4c0.1-1.7,0-3.5,0.4-5.1c4.7-21.4-4.8-33.4-26.7-33.7
		C630.3,412.8,621.1,412.9,611.9,412.9z"/>
	<path fill="#A40302" d="M925.8,442.4c0,15.5-0.2,30.9,0.1,46.4c0.2,9.4,3.9,17.7,10.3,24.7c-0.7,0.8-1.4,0.9-2.2,0.2
		c-9.2-5.8-10.7-15.5-11.2-24.8c-0.8-14.6-0.2-29.4-0.2-44c0-2.1-0.8-5.1,3.2-4.3c0.6,0.4,0.8,0.8,0.6,1.2
		C926.2,442.2,926,442.4,925.8,442.4z"/>
	<path fill="#A60908" d="M1239.1,507.9c-1.5,6.4-6.8,3.4-10.3,3.6c-3.3,0.1-6.6-1.5-9.9-2.4c-1.7-0.5-3.7-1.2-4.5,0.8
		c-1.1,2.7,1.2,3.4,3.2,3.9c11.4,2.5,22.7,3,33.2-3.6c1.4-0.9,2-4.1,4.7-1.7c-7.8,13-31.8,11.9-42.7,6.7c-4.6-2.2-1.9-5-1.2-7.9
		c0.9-4.1,3.1-3.3,5.7-2C1224.2,508.9,1231.6,508.9,1239.1,507.9z"/>
	<path fill="#5C6375" d="M873.8,355.7c0-18.1-0.4-36.3,0.2-54.4c0.2-5.6-4.6-11-0.5-16.6c3,6.7,3.4,13.9,3.6,21
		c0.4,15.7,0.2,31.5,0.1,47.2c0,2.1,1,4.7-1.7,6.1C874.2,358.2,874.7,356.6,873.8,355.7z"/>
	<path fill="#5F6678" d="M238.9,534.4c3.7-4.2,7.5-0.1,11.3,0c23,0.1,45.8-1,68.3-5.8c4.5-1,9.4-5.1,14.3-0.7
		c-17.4,5.4-35.2,8.2-53.4,8.4c-10.8,2.4-21.6,1.8-32.4,0C244.3,535.8,241,537.7,238.9,534.4z"/>
	<path fill="#545C6F" d="M606.7,355.7c0.6,0,1.1,0,1.7,0c2,2.4,4.7,1.7,7.2,1.7c17.5,0,35,0.1,52.6,0c3.1,0,7.6,1.6,7.7-4
		c0.1-6.3-4.8-4.5-8.1-4.5c-12.3-0.2-24.7,0-37-0.1c-2.9,0-6.5,1.4-8.4-2.5c16.4,0.2,32.8,0.6,49.1,0.4c5.5-0.1,6.6,1.7,6.6,6.8
		c0,5-1.6,6.2-6.4,6.2c-19.8-0.2-39.7,0-59.5-0.2C609.9,359.3,605.8,361,606.7,355.7z"/>
	<path fill="#A90A08" d="M15.3,190.9c-0.1,13.3-6.2,25.5-7.6,38.6C7,235.2,7.3,241,6.5,246.6c-0.7,4.6,1.8,5.7,5.3,6.4
		c-2.7,2.4-5.5,4.9-9,8c0.4-24.6,3.8-47.6,11-70.1C14.2,190.3,14.8,190.3,15.3,190.9z"/>
	<path fill="#606678" d="M950,315.5c-7.5-3.1-15.3-0.7-22.9-1.4c-3.3-0.3-6.6,0-9.8-1.8c16,0,32.1,0,48.1,0
		c13.2,0,12.7,1.4,12.5-11.6c0-2-0.3-4.1,1.5-5.6c4.1,20.8,4.1,20.8-16.4,20.8C958.6,315.8,954.3,315.6,950,315.5z"/>
	<path fill="#5C6476" d="M755.8,357.3c0-17,0.1-33.9,0-50.9c0-4.1,0.6-7.9,2.2-11.6c0.1-0.2,0.5-0.2,0.7-0.2
		c0.3,0.1,0.5,0.3,0.7,0.5c-0.1,18.7,0,37.3-0.2,56c0,2.6,1.5,5.8-1.7,7.8C756.8,358.6,756.2,358.1,755.8,357.3z"/>
	<path fill="#A90A09" d="M1075,510c11.1,6.4,22.8,6.6,34.9,3.7c1.6-0.4,4.9,0.4,4-2.8c-0.8-2.9-3.5-1.3-5.1-0.8
		c-7.7,2.2-15.1,2.7-21.8-2.5c-0.1-0.1,0.1-0.5,0.2-0.8c0.2-0.2,0.4-0.4,0.7-0.6c6.2,1.2,12.2,2.9,18.7,1c4.1-1.2,9.6-2.5,10.5,3.5
		c0.9,5.6-4.1,6.4-8.6,6.3c-2.8,1.7-6.2-0.2-9,1.4c-8.7,1-16.9-0.2-24.3-5.1C1074,512.2,1073.9,511.1,1075,510z"/>
	<path fill="#AB0103" d="M925.8,442.4c0-0.6,0-1.3,0-1.9c8.5-2.1,11,0.9,10.7,9.8c-0.4,15.7-1.9,31.5,1.7,47
		c-6.1-3.3-5-9.5-5.3-14.7c-0.6-11.2-0.4-22.4-0.1-33.6C933,443.8,931,441.7,925.8,442.4z"/>
	<path fill="#575E71" d="M1014.3,268.9c-6.6-0.9-9,1.4-8.9,8.4c0.4,23.3,0.5,46.5,0,69.8c-0.2,8.4,2.4,11.6,10.6,10.2
		c1.1-1,2.2-1,3.3,0c-11.2,5.5-15.8,3.2-15.8-8c0-24,0-48,0-72c0-10.9-0.1-10.9,10.8-10.2c0.5,0.4,0.7,0.8,0.5,1.1
		C1014.6,268.7,1014.4,268.9,1014.3,268.9z"/>
	<path fill="#565E71" d="M618.8,232.5c0.6-1.3,1.7-1.7,3-1.7c0,0.6,0.1,1.2,0.1,1.8c-2.5,3-1.4,6.7-1.4,10
		c-0.1,33.5-0.1,66.9-1.8,100.4C618.8,306.2,618.8,269.3,618.8,232.5z"/>
	<path fill="#AC0A08" d="M1192.9,480.3c-8.3-3.2-17-1-25.4-1.4c-7.7-0.4-15.4-0.1-23-1.8c13.4,0,26.8-0.4,40.2,0.2
		c7.3,0.3,8.8-2.6,8.4-9c-0.5-7.7-4.4-14-6.9-20.9c7.9,5.4,13.6,23.8,9.8,32.3C1195.6,480.2,1193.9,480.1,1192.9,480.3z"/>
	<path fill="#5B6175" d="M756.7,280.9c-2.4-0.8-2.5-2.8-2.6-4.9c-0.1-3.3,0.8-7.5-4.8-7c-5.6,0.5-3.7,5-3.8,8
		c-0.1,21.6-0.1,43.2-0.1,64.7c0,5.2,0,10.4,0,15.5c-0.6,0.6-1.2,0.7-1.8,0c0-24.7-0.1-49.5-0.1-74.2c-1-5.2-1.3-10.5,0.1-15.7
		C756.1,266.1,756.1,266.1,756.7,280.9z"/>
	<path fill="#A60908" d="M518.4,199.2c-0.4,0.7-1.1,2.9-1.5,1.8c-6.5-21.5-15.3-42-24.1-62.6c-0.1-0.2,0.6-0.9,1-1.3
		c9.9,18.3,18.9,36.9,23,57.5C517.1,196.2,517.9,197.7,518.4,199.2z"/>
	<path fill="#5B6375" d="M1159.9,359.1c3.8-1,7.6-2.1,11.4-3c2.4-0.6,4.6-1.5,3.9-4.5c-0.8-3.9-3.5-1.7-5.4-1.3
		c-9.3,2.3-18.5,3.3-27.5-0.9c-2.8-1.3-2.1-2.1,0.4-2.5c9.6,2.7,19.1,2.7,28.7-0.1c2.4-0.7,5.5-3.4,6.2,1.9c0.5,3.6,3.8,7.9-2.7,9.5
		c-5,1.2-9.8,3.3-15.1,2.4c-0.6-0.4-0.8-0.7-0.6-1.1C1159.6,359.3,1159.7,359.1,1159.9,359.1z"/>
	<path fill="#A80A09" d="M1229.3,447.6c6-4.3,12.3-3,18.6-1c1.8,0.5,3.6,1.1,4.3-1.1c0.7-2.3-1.5-2.5-3.1-3.1
		c-9.2-3.6-18-0.7-26.8,1.7c-0.8,0.8-1.5,0.7-2.1-0.2c10.5-8.3,21.9-6.3,33.4-2.9c5.1,1.5,1.9,5,1.3,7.6c-0.7,3.4-2.7,3.4-5.6,1.9
		c-5.8-2.9-12-3.6-18.3-1.5C1230.2,448.8,1229.7,448.3,1229.3,447.6z"/>
	<path fill="#4E566A" d="M1068.3,357.4c2,0,4.1-0.3,6.1,0c6.3,0.8,7.8-2.1,7.7-8c-0.3-26.8-0.1-53.7-0.2-80.5
		c-0.6-0.4-0.8-0.8-0.6-1.2c0.2-0.4,0.4-0.6,0.6-0.6c4,1.5,2,4.9,2,7.4c0.2,25,0.1,50,0.1,74.9
		C1084,360.6,1079.7,362.8,1068.3,357.4z"/>
	<path fill="#AD0102" d="M750.6,480.3c-7.2-3.3-14.7-1.1-22.1-1.4c-9.3-0.4-18.7-0.1-28-1.8c14.4,0,28.7-0.1,43.1,0.1
		c4.1,0,6-0.3,5.6-5.5c-0.5-5.7-1.3-11.4-2-17.1c0.6-0.7,1.1-0.7,1.7,0c2.1,7.1,5.1,14.1,4.7,21.8
		C753.4,478.3,753.7,480.5,750.6,480.3z"/>
	<path fill="#A70A09" d="M69,220.2c13.8-8,29.4-9.1,44.5-11.8c2.6-0.5,5.1-0.6,7.5-1.9c0.5-0.9,1-0.9,1.5,0c-1,2.7-2.2,5.2-5.8,5.3
		c-14.1,0.4-27.6,3.7-40.9,8.2C73.8,220.7,71.3,220.1,69,220.2z"/>
	<path fill="#5E6577" d="M764.6,79.9c-2.3-4.6,0.9-8.6,1.6-12.9c0.3-2.1,3.4-5.2-1.3-6c-3-0.5-6.4-1-7.6,3.5
		c-1.4,5.6-3.4,11-4.8,16.5c-0.5,2.2-1,3.9-3.6,4.1c2-8,4-16,5.9-24.1c0.6-2.6,1.7-3.6,4.6-3.8c10.8-1,12.3,0.5,8.7,10.8
		C766.8,71.9,767.3,76.4,764.6,79.9z"/>
	<path fill="#5D6476" d="M802.6,185.7c10,0,20.1,0.4,30.1-0.2c6.2-0.4,13.5,0.7,17-7c3.5,2.9,3,5.5-1.1,6.7
		C833.3,189.8,818,192.2,802.6,185.7z"/>
	<path fill="#A70D0B" d="M461,425c-8.5,3.8-17.6,1.7-26.3,1.5c-12.7-0.3-25.5-1.7-37.9-5c1.4-1.2,2.8-0.7,4.3-0.2
		c19.9,1.6,39.8,4.3,59.9,2.2c0.6,0.3,0.8,0.6,0.6,1C461.4,424.9,461.2,425,461,425z"/>
	<path fill="#5F6678" d="M781.5,116.1c4,2.8,0.7,5.5-0.2,8.3c-3.6,11.8-4.1,23.4,0.1,35.2c0.9,2.6,3.8,5.6,0.6,8.7
		C772.7,151,773.9,133.6,781.5,116.1z"/>
	<path fill="#5D6577" d="M974.1,355.6c-2.5-6.4-7-5.9-12.9-4.8c-11,2-22.6,4.7-32-4.9c13.2,3.6,26.1,3.9,39.6,0.4
		C975.2,344.6,974.4,351.2,974.1,355.6z"/>
	<path fill="#A80B09" d="M839,450.9c0.6,5.6-3.7,9.5-5,14.5c-3.1,12.1-2.4,23.8,3.6,35c0.9,1.7,1,3.8,1.5,5.7
		C826.3,492,826.2,467.6,839,450.9z"/>
	<path fill="#5F6678" d="M924.1,357.2c8.7,0.1,17.4,0.2,26.1,0.2c5.7,0,11.5,0.5,17-1.8c1.7-0.7,3.4-1.1,3.7,1.6
		C955.3,362.5,939.7,363.5,924.1,357.2z"/>
	<path fill="#A60908" d="M1024.9,470.8c-0.1-1.4-0.2-2.8-0.2-4.1c0.7-10.6,8.3-15,16.7-18.6c2.4-1,6.7-0.4,5.5-4.7
		c-1.5-5.2-5.1-1.2-7.7-0.9c-2.5,0.3-5,1.1-7.5,1.6c2-2.6,5-4.4,7.9-4.8c3.2-0.5,8.5-4,9.7,2.2c0.8,4.4,2.4,9.6-6.5,10
		C1031.6,451.9,1027.8,461.6,1024.9,470.8z"/>
	<path fill="#555C71" d="M873.8,355.7c1.4,0.7,1.7,1.9,1.7,3.3c-14.1,1.2-13.9,1.2-14.1-12.3c-0.3-17.2,1.2-34.5-1-51.7
		c4.6,1.3,2.9,5.1,2.9,7.9c0.1,15.6,0,31.2,0.1,46.7C863.5,357.4,865.6,358.5,873.8,355.7z"/>
	<path fill="#A60807" d="M355.3,483.5c2.7-2.2,5.3-0.9,8.1,0.1c10.8,3.8,21.7,7.2,32.4,11.2c3,1.1,5.5,1.1,8.1-0.4
		c1,0.7,1,1.4,0.2,2.2c-2.7,3-6.1,1.8-8.8,0.9C381.7,493,368.5,488.2,355.3,483.5z"/>
	<path fill="#A60D0A" d="M843,510c9.7,3.2,19.2,6,29.8,5.6c6.1-0.3,10.3-6.2,16.6-4.1C871.5,521.9,855.8,521.4,843,510z"/>
	<path fill="#A70806" d="M1078.5,499.5c-2.7,2.2-3.5-0.8-4.6-2c-7.2-7.9-7.9-27.4-1.4-35.8c0.9-1.1,1.9-1.1,2.7,0.2
		C1069.6,475,1069.7,487.6,1078.5,499.5z"/>
	<path fill="#E67344" d="M426.3,386.8c16.9,1.1,33.6-1.1,50.3-3.5c1.8-0.8,2,0.1,1.7,1.6c-17.7,4.4-35.5,6.7-53.7,3.4
		C424.3,387,424.5,386,426.3,386.8z"/>
	<path fill="#A80D0B" d="M401.1,421.3c-1.4,0.1-2.9,0.1-4.3,0.2c-14.8-3.5-29-8.9-43.1-14.6c-1.9-0.8-3.7-1.8-3.7-4.3
		C366.6,410.1,384.1,415,401.1,421.3z"/>
	<path fill="#A60D0A" d="M386.4,31.6c-6.3,1.7-10.2-3.5-15.3-5.3c-9.4-3.3-18.6-7.1-27.9-10.7c-0.2-0.1-0.4-0.5-0.4-0.6
		c0.2-0.5,0.5-0.9,0.8-1.4C358.7,17.6,372.8,23.9,386.4,31.6z"/>
	<path fill="#A60706" d="M783.2,452.7c0.8-5.1,7.2-9,13.4-8.1c1.7,0.3,3.3,1.2,4.9,1.2c2.4,0,6.1,3.9,7-0.2c0.9-3.7-4.1-2.5-6.4-3.8
		c-0.5-0.3-0.8-0.8-1.2-1.1c2-1.4,4-0.8,6.1-0.2c4.1,0.4,6.9,1,5.2,6.8c-1.7,6.2-4.3,3.7-7.9,2.5
		C796.9,447.4,789.4,445.8,783.2,452.7z"/>
	<path fill="#5C6376" d="M849.7,178.7c-5.5-3-10.6,0.2-15.8,1c-8.4,1.3-16.6,1.6-24.5-1.9c-2.6-1.2-2.4-2,0.3-2.5
		c9.9,2.4,19.7,2.3,29.8,0.6C842.8,175.3,848.2,171.5,849.7,178.7z"/>
	<path fill="#A80504" d="M1189.4,505.2c-0.1,0.9,0.2,2.1-0.3,2.5c-6.9,5.9-29.8,5.2-36.4-1.1c-0.2-0.2,0.4-1.3,0.6-2
		c10.5,6,21.3,3.8,32,1C1186.8,505.2,1188,504.5,1189.4,505.2z"/>
	<path fill="#A70C0A" d="M768.2,508.3c2.5,5.8,7.5,7,13.1,6.9c7.7-0.1,15.4-0.2,23.1-0.2c-11.2,5.5-22.4,4.8-33.8,0.6
		C766.3,514.1,764.8,512.1,768.2,508.3z"/>
	<path fill="#A60A08" d="M269.9,377.1c0.6-0.5,0.5-4.9,2.1-0.9c4.9,12.7,9.3,25.5,13.8,38.3c-0.5,0.7-1,0.7-1.4,0
		C278.4,402.6,273.2,390.2,269.9,377.1z"/>
	<path fill="#5D6476" d="M1216.9,357.4c-1.1,0-2.1,0-3.2-0.1c0-8.8,0-17.6,0-26.4c0-3.4-0.4-7,4.2-8.1
		C1217.6,334.4,1217.2,345.9,1216.9,357.4z"/>
	<path fill="#5A6174" d="M804.4,355.7l-0.8,0l-0.8,0c-0.1-17.1-0.2-34.2-0.4-51.3c0-3.7-0.6-7.4-0.9-11.1c4.5,1.3,2.9,5.1,2.9,8
		C804.5,319.4,804.4,337.5,804.4,355.7z"/>
	<path fill="#A60E0B" d="M670.9,511.7c-5.6-12.7-7.2-26.7-12.2-39.6c6.9,5.8,7.2,14.4,9.3,22.2c1.6,5.8,2.9,11.6,4.3,17.4
		C671.8,512.6,671.3,512.6,670.9,511.7z"/>
	<path fill="#E67648" d="M426.3,386.8c-0.6,0.5-1.1,1-1.7,1.6c-0.6,0-1.2-0.1-1.8-0.1c-3-1.3-6.4,0.1-9.4-1.2
		c-10.6,0.5-20.4-3.2-30.4-5.6c1.3-0.5,2.7-1.7,3.8-1.5C400,382.2,413.1,384.5,426.3,386.8z"/>
	<path fill="#5D6476" d="M1038.7,279.4c-0.9-0.4-3.5,0-1.2-2.1c2.5-2.3,8.6,0,7.9-6.6c-0.7-5.8-6.5-1.9-8.5-4.9
		c12.4-2.8,13-2.2,12.2,9C1048.5,283.3,1042.1,277.8,1038.7,279.4z"/>
	<path fill="#A30402" d="M617.5,472c-0.7-0.1-1.5-0.1-2.2-0.2c4.8-8.8,13.2-5.2,19.9-4.7c4.1,0.3,10.9,1,11.2,8.2
		C637.4,469,627.7,468.5,617.5,472z"/>
	<path fill="#535A6E" d="M961.9,107.7c0.2,0.2,0.6,0.3,0.7,0.5c2.1,20,2.6,40.1-0.2,60.1C960.9,148.1,961.7,127.9,961.9,107.7z"/>
	<path fill="#595F73" d="M976.4,160.8c-0.2,1.3-0.5,2.6-0.7,3.9c-0.4,0-0.8-0.1-1.3-0.1c0-18.8,0-37.5,0-56.3c0-0.2,0.3-0.6,0.4-0.6
		c0.5,0,1,0.2,1.5,0.3C976.4,125.6,976.4,143.2,976.4,160.8z"/>
	<path fill="#A60C0B" d="M186.5,13.7c0.7,0.3,1.5,0.7,2.2,1c-11.6,3.6-22,11-34.7,11.6C164.3,20.8,175.1,16.4,186.5,13.7z"/>
	<path fill="#5C6375" d="M232,343.5c-3.4-4.2-1.2-9.2-1.6-13.8c-0.3-3.6,0.2-7.3-1.8-10.6c3.4-3.1,5.3-2.9,5.2,2.2
		c-0.1,6.8-0.1,13.6-0.2,20.5C233.3,342.6,232.7,343.1,232,343.5z"/>
	<path fill="#A50B0A" d="M419.3,256.8c4,7.2,1.7,15.1,1.6,22.6c-0.1,6.9,1.1,11,8.9,10.2c-3.7,1.4-7.3,2.8-12.4,4.7
		C420.1,281,419,268.9,419.3,256.8z"/>
	<path fill="#A80D0A" d="M15.3,190.9l-0.8,0c0,0-0.8,0-0.8,0c3.1-12.3,7.5-24,13.4-35.2c1,0.6,1.1,1.4,0.3,2.2
		C24.2,169.2,20,180.2,15.3,190.9z"/>
	<path fill="#5E6576" d="M1019.3,357.4c-1.1,0-2.2,0-3.3,0c3.5-7.7,1.3-15.8,1.7-23.7c0.4-8.8,0.1-17.7,0.1-26.6
		c0.5-0.8,1-0.8,1.5,0C1019.2,323.8,1019.3,340.6,1019.3,357.4z"/>
	<path fill="#A40A08" d="M1254.2,481.7c-9.7-4.5-20.9-6.2-28.3-15.1c-0.5-0.5-0.7-0.9-0.5-1.4c0.2-0.4,0.4-0.6,0.6-0.6
		c5.5,5.2,12.9,7.2,19.5,10.4C1248.9,476.6,1252,478.5,1254.2,481.7z"/>
	<path fill="#8795A7" d="M155.7,452.8c-3.8-9.3-1.5-19.1-1.5-28.6c-0.1-7.8-2.1-15.9,1.6-23.4C155.8,418.1,155.8,435.4,155.7,452.8z
		"/>
	<path fill="#62687A" d="M247.1,536.2c10.8,0,21.6,0,32.4,0C268.7,540.9,257.9,540.3,247.1,536.2z"/>
	<path fill="#A60C09" d="M934,513.7c0.7-0.1,1.5-0.1,2.2-0.2c8.7,2.6,17.3,2.5,26,0c1,0.6,1,1.3,0.2,2.1
		C952.6,520.4,943,520.7,934,513.7z"/>
	<path fill="#606678" d="M740.3,166.8c-1.5-11.9,4.4-22.2,7.5-33.1c0.1-0.4,1,1.4,1.4,2.2C746,146.2,744.6,156.9,740.3,166.8z"/>
	<path fill="#A10402" d="M436.9,471.9c-1.4-4.9,3.4-5.9,5.6-8.2c5.3-5.7,11.1-10.8,16.8-16.1c0.5,0.4,0.7,0.8,0.6,1.2
		c-0.2,0.4-0.3,0.6-0.5,0.6C452.6,457.7,445.4,465.5,436.9,471.9z"/>
	<path fill="#5B6375" d="M911.9,175.7c-5.3,6.2-24.2,6.6-29.6,0.6c-0.1-0.1,0.2-0.5,0.4-0.6c0.5-0.2,1.1-0.3,1.6-0.4
		C893.4,177.9,902.6,180.2,911.9,175.7z"/>
	<path fill="#E77749" d="M428,329.5c-9.4,5.7-19.4,4.3-29.4,2.1C408.5,332,418.1,328.4,428,329.5z"/>
	<path fill="#5E6577" d="M835.6,95.7c-9.2,0-18.5,0.7-27.6-1.7C817.4,90.8,826.6,91.5,835.6,95.7z"/>
	<path fill="#E87547" d="M367.3,331.6c-9.9,3.4-19.7,1.2-29.4-0.9c-0.1,0-0.1-0.5-0.1-0.7c0.1-0.3,0.3-0.4,0.5-0.7
		C347.9,330.1,357.6,330.8,367.3,331.6z"/>
	<path fill="#586072" d="M898.2,105c6.8-6.5,16.2-6.2,22.4,0.7C913.2,103.7,905.7,103.6,898.2,105z"/>
	<path fill="#636A7B" d="M708.9,147.6c6.2,5.8,7.3,12.9,5.2,20.8C711.6,161.6,709.1,154.9,708.9,147.6z"/>
	<path fill="#AA0B0A" d="M655,494.9c0.5-1.4,0.9-4.5,2.1-0.4c1.9,6.3,3.4,12.7,5,19c-0.6,0.8-0.8,1.8-1.9,2.1
		C657.2,509,655.4,502.1,655,494.9z"/>
	<path fill="#5D6476" d="M920.5,94.1c-9.1,2.2-18.4,1.6-27.6,1.6C901.9,91.1,911.1,91.7,920.5,94.1z"/>
	<path fill="#A90F0D" d="M786.1,480.8c15.4,1,22.4,10.8,15.9,22.1c3.2-8.9-0.4-14.6-8.5-18.4C791,483.3,788.6,482,786.1,480.8z"/>
	<path fill="#A80B09" d="M807,440.4c-2,0.1-4.1,0.2-6.1,0.2c-7.7-1.3-14.8,3.5-22.5,2.1C787.6,437,797.2,437.2,807,440.4z"/>
	<path fill="#50586C" d="M232,343.5c0.5-0.6,1.1-1.1,1.6-1.7c0.1,4.5,0.3,9,0.4,13.4c0,6.9,0,13.8,0,20.6c-0.7,0-1.3,0-2,0
		C232,365.1,232,354.3,232,343.5z"/>
	<path fill="#A80908" d="M873.8,439c-8,1.8-15.8,4.9-24.2,3.6C857.1,438,865.3,437.7,873.8,439z"/>
	<path fill="#A10705" d="M702.1,444.1c-2.2,6.8-8.5,11.1-11.2,17.6c-0.3-0.7-0.7-1.4-1-2.1C691.3,452.3,696.3,447.9,702.1,444.1z"/>
	<path fill="#A60605" d="M963.9,506.3c-6.8,6.4-13.5,6.5-17.2,0.2C952.5,508.8,958.2,506.8,963.9,506.3z"/>
	<path fill="#9A0404" d="M252.9,110.9c10.2-3.5,20.6-0.5,31.3-1.7c-0.7,0.9-0.9,1.5-1.2,1.7c-0.8,0.2-1.7,0.2-2.5,0.3
		C271.3,111.1,262.1,111,252.9,110.9z"/>
	<path fill="#5A6275" d="M627.7,59c-4.1,2.4-10.5,0.6-12.3,7c-0.7-2.4-1.4-4.9-2.4-8.2C618.4,57.7,623.1,55.6,627.7,59z"/>
	<path fill="#A50907" d="M1226,464.6c0,0.7-0.1,1.3-0.1,2c-6-7.3-5.1-12.1,3.5-19.1c0.6,0.5,1.1,1,1.7,1.5
		C1225.3,453,1223.2,458,1226,464.6z"/>
	<path fill="#A40E0B" d="M299.3,362.6c-7.4-3.5-12.2-9.1-13.9-17.3C290.1,351.1,294.7,356.8,299.3,362.6z"/>
	<path fill="#606879" d="M834.1,277.7c-0.9-0.3-2.9-0.9-1.8-1.5c5.1-2.9,10.6-3.3,15.7,0.3c0.1,0.1,0,0.5-0.1,0.8
		c-0.1,0.2-0.4,0.4-0.6,0.6C842.9,277.8,838.5,277.7,834.1,277.7z"/>
	<path fill="#A20D0B" d="M748.8,454.5c-0.6,0-1.1,0-1.7,0c-4.2-4.9-8-10-14.7-12.4c-2.7-1,0.8-1,1.3-1.7
		C741.3,442.4,746.1,447.3,748.8,454.5z"/>
	<path fill="#A2100C" d="M284.4,414.6c0.5,0,1,0,1.4,0c4.3,5.9,10,11,10.5,19C291.6,427.7,287.7,421.3,284.4,414.6z"/>
	<path fill="#A60D0B" d="M27.4,157.9c-0.1-0.7-0.2-1.5-0.3-2.2c2-6.7,5.4-12.7,9.2-18.5C37,145.6,31,151.3,27.4,157.9z"/>
	<path fill="#A20806" d="M457.6,86.7c-6.9-2.3-11.7-6.7-13.7-13.8C449.2,76.7,453.7,81.4,457.6,86.7z"/>
	<path fill="#A60D0C" d="M30.8,239.4c3.9-7.1,11.3-8.1,18-10.2C43.5,233.9,36.9,236.3,30.8,239.4z"/>
	<path fill="#565D70" d="M775.3,277.8c3.9-5.2,8.7-5.3,13.3-0.1C784.1,277.8,779.7,277.8,775.3,277.8z"/>
	<path fill="#A20D09" d="M461,425c0-0.5,0-1,0-1.5c4-0.3,8.1-0.3,12.1-1.1c7.3-1.4,7.1,1.2,3.4,5.9C472.3,422.8,466.2,425.8,461,425
		z"/>
	<path fill="#9F0402" d="M313.5,452.9c6.2,1.9,10.5,5.7,11.9,12.2C320.6,461.8,317,457.4,313.5,452.9z"/>
	<path fill="#A20908" d="M102,59.1c-2.5,5.3-4.6,11-12.1,10.6C93.6,65.8,97.3,61.9,102,59.1z"/>
	<path fill="#575F71" d="M1108.3,302c2.1,8,2.2,16,0,24C1106.9,318,1107,310,1108.3,302z"/>
	<path fill="#A9B8BB" d="M156.1,241.1c-8.3,0-16.6,0-25,0C139.4,238.4,147.8,238.4,156.1,241.1z"/>
	<path fill="#4F5669" d="M977.9,106.1c7.5-3.3,15-2.9,22.5-0.2C992.9,105.9,985.4,106,977.9,106.1z"/>
	<path fill="#B7B9BF" d="M1255.5,267.5c-0.6-0.1-1.3-0.2-1.9-0.3c5.8-3.4,12-1.2,18-1.4c2.9-0.1,1.1,2.1-0.3,3c0,0-0.7,0.3-0.7,0.3
		l-0.7-0.1C1265.3,266.5,1260.2,269.3,1255.5,267.5z"/>
	<path fill="#545B6E" d="M1258.9,358.7c4.9-3.2,11.2,0.5,16-3.4c0.7,1.3,5.6,3,0.3,3.8C1269.9,360,1264.4,359,1258.9,358.7z"/>
	<path fill="#A00A09" d="M122.6,206.5c-0.5,0-1,0-1.5,0c2.1-5.8,3.2-12.1,9.4-15.4C127.8,196.2,125.2,201.4,122.6,206.5z"/>
	<path fill="#A60D0B" d="M459.3,449.5c0-0.6,0-1.3-0.1-1.9c3.5-3.5,3.9-10,10.4-10.4C466.6,441.6,463.7,446.1,459.3,449.5z"/>
	<path fill="#8693A5" d="M86.5,435.5c2.7,7.4,2.5,14.9,0.1,22.4C86.5,450.4,86.5,442.9,86.5,435.5z"/>
	<path fill="#9F0604" d="M82.7,76.3c-1.2,5.7-4.6,9.2-10.4,10.3C75.1,82.5,78.8,79.3,82.7,76.3z"/>
	<path fill="#A10908" d="M1135.5,503.3c5.2,0.5,8.1,3.3,8.5,8.6C1140.1,510.2,1137.5,507.1,1135.5,503.3z"/>
	<path fill="#52596D" d="M976.4,93.7c-4.2-6.5-1-13.7-2-20.5C979,79.7,975.4,86.9,976.4,93.7z"/>
	<path fill="#9E0C09" d="M660.3,515.6c0.6-0.7,1.3-1.4,1.9-2.1c3.5,2.3,6.8,3.7,8.7-1.7c0.5,0,1,0,1.5,0c0.3,2,4.8,5.6-1.7,5.2
		C667.2,516.8,663.4,518.5,660.3,515.6z"/>
	<path fill="#B20B0C" d="M713.7,517.1c7.3,0,14.5,0,21.8,0C728.3,519.5,721,519.5,713.7,517.1z"/>
	<path fill="#A00704" d="M485.4,258.6c2.1-6.3,4.6-8.6,10.3-9C492.2,252.6,488.8,255.6,485.4,258.6z"/>
	<path fill="#A50B0A" d="M417.5,243.3c0.4-0.7,0.7-1.3,1.1-2c-0.5,4.7,4.6,9.2,0.4,14C416.9,251.5,417.7,247.3,417.5,243.3z"/>
	<path fill="#A20C0B" d="M962.4,515.6c-0.1-0.7-0.1-1.4-0.2-2.1c4.4-0.8,4.7-8.1,10.6-6.6C970.6,511.3,967.1,514.1,962.4,515.6z"/>
	<path fill="#4F576B" d="M900,303.7c2.4,6.9,2.4,13.8,0,20.6C898.9,317.5,899,310.6,900,303.7z"/>
	<path fill="#A50F0B" d="M802.9,477c-4.5-1.5-10.3-0.7-12.4-6.6C794.8,472.2,800.2,472.1,802.9,477z"/>
	<path fill="#545C6F" d="M752.7,123.4c-2.8-5.2,0.3-8.8,3.5-12.2C755.9,115.5,754.6,119.6,752.7,123.4z"/>
	<path fill="#A20906" d="M296.3,433.7c5.5,1.9,9.6,4.9,10.1,11.3C302.6,441.6,298.9,438.1,296.3,433.7z"/>
	<path fill="#565D71" d="M701.8,118.1c4.6,2.8,2.9,8.4,5.4,12.1c-0.7,0.7-0.9,1.9-2,2.3C703.2,127.9,702.1,123.1,701.8,118.1z"/>
	<path fill="#A4B3C0" d="M46.1,414.8c4.2-2.5,0.1-7.9,3.8-10.6c0,4.8,0,9.5,0,16.3C47.9,417.5,47,416.1,46.1,414.8z"/>
	<path fill="#A20F0D" d="M330.2,125.2c5.1,0.9,10.4,1.7,12.6,7.6C338.6,130.2,334.4,127.7,330.2,125.2z"/>
	<path fill="#A10705" d="M1075,510c0,1.1,0,2.2,0,3.3c-3.8-1.8-6.6-4.7-8.8-8.2C1071,503.4,1071.3,509.6,1075,510z"/>
	<path fill="#E3693A" d="M519.8,273.6c-1,4.8-2.7,9-8.8,8.8C513.5,279,516.4,276,519.8,273.6z"/>
	<path fill="#52596D" d="M962.1,78.1c2.9,5.2,3.2,10.5-0.1,15.6C962,88.5,962,83.3,962.1,78.1z"/>
	<path fill="#A30101" d="M154.2,158.5c0.5-5.4,3.5-8.3,8.7-9.2C161.1,153.5,157.4,155.8,154.2,158.5z"/>
	<path fill="#636A7C" d="M743.7,267.4c0,5.2-0.1,10.5-0.1,15.7C742.4,277.9,741.5,272.7,743.7,267.4z"/>
	<path fill="#A50D09" d="M669.3,446.4c0-5.7,0-11.4,0.1-17.1C671.8,435,671.8,440.7,669.3,446.4z"/>
	<path fill="#A60D0A" d="M1246.6,490.9c3.2,3.3,3.1,7,1.1,10.8c0,0.1-0.6,0-0.8-0.2c-0.2-0.1-0.4-0.4-0.5-0.7
		c0.6-3.4,0.2-6.7-1.1-9.9C1245.7,490.1,1246.1,490.1,1246.6,490.9z"/>
	<path fill="#9E0302" d="M434.9,64.6c-4.9,1.3-6.6-1.2-6.8-5.6C430.4,60.9,432.7,62.7,434.9,64.6z"/>
	<path fill="#52596D" d="M1159.9,359.1c0,0.5,0,1.1,0,1.6c-4.6,0.9-9.2,0.8-13.8,0C1150.4,357.5,1155.3,359.9,1159.9,359.1z"/>
	<path fill="#9C0503" d="M359.6,144.3c4.4,0.2,7.7,1.6,7.7,6.8C364.7,148.8,362.1,146.6,359.6,144.3z"/>
	<path fill="#4E5568" d="M892.9,187.4c4.6,0,9.3,0,13.9,0c0.6,0.3,0.8,0.7,0.6,1c-0.2,0.3-0.4,0.5-0.6,0.5c-4.6,0.8-9.2,0.8-13.9,0
		c-0.6-0.3-0.8-0.7-0.6-1C892.5,187.6,892.7,187.4,892.9,187.4z"/>
	<path fill="#535B6D" d="M996.7,176.9c-2.9,4-6.7,1.2-10.2,1.4c-0.1,0-0.3-0.5-0.2-0.7c0-0.3,0.2-0.5,0.4-0.7
		C990,176.9,993.4,176.9,996.7,176.9z"/>
	<path fill="#50576A" d="M979.7,188.8c4.3-2.8,9.2-0.8,13.8-1.4c0.6,0.3,0.8,0.7,0.6,1c-0.2,0.3-0.4,0.5-0.6,0.5
		C988.9,189.6,984.3,189.8,979.7,188.8z"/>
	<path fill="#575F73" d="M1081.9,267.1c0,0.6,0,1.2,0,1.8c-4.5,0-9.1,0-13.6-0.1C1072.3,264.6,1077.3,267.7,1081.9,267.1z"/>
	<path fill="#51586C" d="M877.5,112.9c2.5,4.5,2.3,9.1,0.1,13.7C876.2,122,876.1,117.5,877.5,112.9z"/>
	<path fill="#52586C" d="M743.7,357.4c0.6,0,1.2,0,1.8,0c3.5,0,6.9,0,10.4,0c0.6,0.5,1.1,1.1,1.7,1.6
		C752.9,358.7,747.9,361.5,743.7,357.4z"/>
	<path fill="#A40F0C" d="M700.3,510c0,0.7-0.1,1.3-0.1,2c-2.8-1.9-5.4-3.9-6.9-7.1C697.7,503.8,698.3,507.9,700.3,510z"/>
	<path fill="#596074" d="M918.5,158.5c4.2,2.7,1.4,6.5,1.5,9.9c0,0-0.5,0.2-0.7,0.1c-0.3-0.1-0.5-0.3-0.7-0.5
		C918.6,164.8,918.5,161.6,918.5,158.5z"/>
	<path fill="#4E566A" d="M948.4,104.1c4,0.9,8.6-1.8,12,2.1c-4,0-8.1-0.1-12.1-0.1c-0.5-0.5-0.6-0.9-0.4-1.3
		C948.1,104.3,948.3,104.1,948.4,104.1z"/>
	<path fill="#596172" d="M921.7,106.1c2-0.1,3-1.3,4.3-2.9c1.7-2,1.2,1,1.8,1.6C927.3,112,924.2,107.7,921.7,106.1z"/>
	<path fill="#464F62" d="M948.4,104.1c0,0.7,0,1.3,0,2c-1.8-4-5.2-8.2,1.8-10.7C948.5,98.1,948.1,101,948.4,104.1z"/>
	<path fill="#5B6375" d="M793.9,100.7c0.4,3.9-1.1,5.9-5.3,5C789.7,103.2,791.7,101.8,793.9,100.7z"/>
	<path fill="#E67549" d="M311.8,317.5c-1.3,2.1-3.4,1.7-5.3,1.8c-0.9-0.9-2.5-2.1-0.7-3.2C307.9,314.8,310,316.2,311.8,317.5z"/>
	<path fill="#E77749" d="M462.4,315.6c0.9,0.3,2.9,0.5,2.1,1.3c-1.8,1.9-4.3,3.6-6.9,0.7C459.2,317,460.8,316.3,462.4,315.6z"/>
	<path fill="#E57144" d="M317.3,336.6c3.6,0.9,7.1,1.8,5.2,6.9C320.7,341.2,319,338.9,317.3,336.6z"/>
	<path fill="#9E0605" d="M397.8,189.3c4,1.5,6.2,4,4.5,8.5C400.8,195,399.3,192.2,397.8,189.3z"/>
	<path fill="#A10503" d="M1220.2,443.9c0.7,0.1,1.4,0.1,2.1,0.2c-2.1,2-2.5,6.5-7,5C1216.1,446.6,1218,445.1,1220.2,443.9z"/>
	<path fill="#545B6F" d="M906.7,188.9c0-0.5,0-1,0-1.5c2.8-1.2,5.6-3.1,8.5-0.4C912.4,187.7,909.6,188.3,906.7,188.9z"/>
	<path fill="#A40303" d="M1246.6,490.9c-0.4,0-0.9,0-1.3,0c-1.9-1.8-3.7-3.5-5.6-5.3C1244.9,483.7,1245.8,487.1,1246.6,490.9z"/>
	<path fill="#545C70" d="M705.2,132.5c0.7-0.8,1.4-1.5,2-2.3c-1.2,2.9,3.4,6.1-0.4,8.9C706.3,136.9,705.8,134.7,705.2,132.5z"/>
	<path fill="#52596D" d="M892.9,187.4c0,0.5,0,1,0,1.5c-3.1,0.2-5.9-0.7-8.7-1.9l-0.6-0.6l0.6-0.6
		C887.3,185.4,890.2,185.8,892.9,187.4z"/>
	<path fill="#ACB3BD" d="M200.8,298.4c0-1.2,0-2.5,0-3.7c0.8-1.6,2-2.6,4.7-2.7C204.6,294.8,203.3,297,200.8,298.4z"/>
	<path fill="#585F71" d="M695,83.6c0.5-0.6,0.8-2.9,1.4-1.5c1,2.4,1.3,5.6-0.9,8C695.4,88,695.2,85.8,695,83.6z"/>
	<path fill="#565D71" d="M676.4,90.4c2.9,3.7,0.1,6.1-2.1,8.6C673.9,95.8,675.3,93.1,676.4,90.4z"/>
	<path fill="#9C0402" d="M60.7,100.8c1.9,4.1,0.1,5.4-3.9,5C58.1,104.1,59.4,102.4,60.7,100.8z"/>
	<path fill="#A00C08" d="M403.9,496.6c-0.1-0.7-0.1-1.4-0.2-2.2c2.4-0.2,3.5-5.1,6.9-1.9C408.6,494.2,406.8,496.2,403.9,496.6z"/>
	<path fill="#A50403" d="M498.9,246.3c-2.1-4.2-0.1-5.3,3.8-5C501.4,243,500.2,244.7,498.9,246.3z"/>
	<path fill="#545B6E" d="M725,164.3c-3.7-2.3-2.2-5.1-0.8-7.9C724.4,159,724.7,161.7,725,164.3z"/>
	<path fill="#535A6E" d="M667.2,170c-3.1-3.2-0.9-5,1.7-6.8C669.1,165.7,668.6,168,667.2,170z"/>
	<path fill="#9B0504" d="M142.1,172.4c0.3-3.1,0.1-6.7,5.1-5.7C145.5,168.6,143.8,170.5,142.1,172.4z"/>
	<path fill="#8493A3" d="M87.9,422.7c-0.3,3.6,1.5,7.6-1.4,10.9C86.7,429.9,85,426,87.9,422.7z"/>
	<path fill="#A80D0C" d="M51.7,227.2c2.6-2.9,5.9-3.7,9.6-3.1C58.3,225.8,55.5,228.2,51.7,227.2z"/>
	<path fill="#525A6D" d="M641.5,114.6c-2.7-2.1-2.6-4.4-0.4-6.9c0.5,2.3,1,4.6,1.6,6.8C642.3,114.6,641.9,114.6,641.5,114.6z"/>
	<path fill="#575E72" d="M634.9,142.4c4.3,1.4,3.5,3.9,1.6,6.8C636,146.9,635.4,144.6,634.9,142.4z"/>
	<path fill="#A30403" d="M308.5,372.7c-5.3,1.3-4.7-2.6-5.1-5.7C305.1,368.9,306.8,370.8,308.5,372.7z"/>
	<path fill="#51586A" d="M993.4,188.9c0-0.5,0-1,0-1.5c2.2-1.1,4.4-2.3,6.7-3.4C1001,189.9,996.1,187.9,993.4,188.9z"/>
	<path fill="#E86C3B" d="M514.7,350.4c-3.3-3.3-0.9-5.1,1.8-6.9C516.6,346,516.1,348.3,514.7,350.4z"/>
	<path fill="#A10503" d="M426.4,480.6c-0.7-4.2,1.2-5.3,5-4C429.8,477.9,428.1,479.3,426.4,480.6z"/>
	<path fill="#A40A08" d="M1257.1,485.8c-0.4,0.7-0.7,1.3-1.1,2c-1.7-1.7-2.4-3.7-1.8-6.1C1255.7,482.7,1256.9,483.8,1257.1,485.8z"
		/>
	<path fill="#EB7D50" d="M413.4,387.1c3.2,0,6.5-1.3,9.4,1.2C419.5,388.6,416.4,388.6,413.4,387.1z"/>
	<path fill="#8693A5" d="M89.7,412.3c-0.2,3.1,1.4,6.6-1.6,9.3C88.2,418.4,86.9,415,89.7,412.3z"/>
	<path fill="#E86B3A" d="M452.3,319.6c-0.8,3.5-2.5,4-5.1,1.6C448.9,320.7,450.6,320.1,452.3,319.6z"/>
	<path fill="#A50F0C" d="M970.7,499.1c0.1,0.7,0.1,1.5,0.2,2.2c-1.2,2.5-3.1,3.6-5.9,3.2C966.9,502.7,968.8,500.9,970.7,499.1z"/>
	<path fill="#3E475E" d="M1014.3,268.9c0-0.6,0-1.1,0-1.7c0.6,0.1,1.1,0.2,1.7,0.2c-0.1,2.2-0.3,4.4-0.5,6.9
		C1013.6,272.6,1014.7,270.6,1014.3,268.9z"/>
	<path fill="#4F576A" d="M641.5,114.6c0.4,0,0.7,0,1.1,0c0.5,2.3,1.1,4.6,1.6,6.8C640.1,120.4,641.6,117.2,641.5,114.6z"/>
	<path fill="#555D70" d="M891.7,121.4c-2.6-2-3.9-4.2-0.5-6.7C891.4,117,891.5,119.2,891.7,121.4z"/>
	<path fill="#535C6F" d="M1173.9,279.3c2.2-1,1.1-4.5,3.9-5.1C1176.8,276.2,1179.3,280.7,1173.9,279.3z"/>
	<path fill="#E7784B" d="M478.3,385c-0.6-0.5-1.1-1.1-1.7-1.6c1.8-2.2,3.5-2.2,5.2,0.1C481,384.6,479.8,385.1,478.3,385z"/>
	<path fill="#535B6D" d="M625.5,104.6c0.3-0.7,0.6-1.4,0.9-2.1c0.3,0.2,0.9,0.5,0.9,0.7c0.1,2.1,0.7,4.3-1.2,6
		C626,107.7,625.8,106.1,625.5,104.6z"/>
	<path fill="#525A6C" d="M1019.2,307.1c-0.5,0-1,0-1.5,0c1.1-2.1-2.5-5.5,1.9-6.7C1019.5,302.6,1019.4,304.8,1019.2,307.1z"/>
	<path fill="#575E71" d="M884.2,185.8c0,0.4,0,0.8,0,1.2c-1.9,0.2-3.6-0.4-5.2-1.6C880.9,183.4,882.6,183.5,884.2,185.8z"/>
	<path fill="#A70E0B" d="M1099.3,518.4c2.7-2.5,5.9-1.2,9-1.4C1105.5,519,1102.4,518.8,1099.3,518.4z"/>
	<path fill="#50586B" d="M790.7,148.9c-0.2,0.5-0.2,1.2-0.5,1.6c-0.7,0.9-1.3,0.5-1.3-0.5c0-2.1-0.6-4.5,1.8-5.9
		C790.7,145.7,790.7,147.3,790.7,148.9z"/>
	<path fill="#565E72" d="M1255.5,267.5c4.8,0.4,9.9-1.9,14.4,1.5C1265.2,268.1,1260,270.5,1255.5,267.5z"/>
	<path fill="#FCFCFC" d="M965.2,303.5c-14.6,0-29.2-0.1-43.9,0.2c-5.9,0.1-6.8-1.9-5.2-7.1c2-6.5,6.2-11.5,9.7-17
		c10.5-7.6,20.6-7.8,29.4-0.5c5.5,4.8,7.8,11.5,10.1,18.1C967,299.4,967.3,301.5,965.2,303.5z"/>
	<path fill="#606778" d="M955.3,279.1c-9.9-5.5-19.7-4-29.4,0.5C933.7,269.4,949.5,269.1,955.3,279.1z"/>
	<path fill="#596074" d="M963.6,306.7c-15.4,0-30.9,0-46.3,0c0-0.3,0-0.6,0-0.9c15.4,0,30.8,0,46.2,0
		C963.5,306.1,963.6,306.4,963.6,306.7z"/>
	<path fill="#50586B" d="M965.2,303.5c0.1-2.1,0.2-4.2,0.3-6.4c0.5-0.8,1.4-2.6,1.5-1.9C967.5,298.1,968.8,301.5,965.2,303.5z"/>
	<path fill="#FEFEFE" d="M794,132.2c-2.7-1.1-1.7-3.5-1.9-5.4c-0.9-4.2-0.1-7.7,3.9-9.9c13.1-16.1,24.3-17.7,39.9-5.7
		c7.1,6.7,9.2,13.7,6,20.6l-0.6,0l-0.4,0.4c-6.6,3.1-13.6,1.6-20.4,1.4C811.6,133.3,802.6,135.3,794,132.2z"/>
	<path fill="#5B6174" d="M794,132.2c15.6,0,31.2-0.1,46.8-0.1c-0.4,3.1-2.6,3.3-5.1,3.3c-13,0-25.9,0-38.9,0
		C794.4,135.4,792.6,135.3,794,132.2z"/>
	<path fill="#62687A" d="M841.8,131.7c1-7.7-2.3-14.2-6-20.6c6.2,3.1,11.1,12.1,9.9,18.2C845.3,131.5,843.7,131.7,841.8,131.7z"/>
	<path fill="#5F6577" d="M796,116.8c-1.3,3.3-2.6,6.6-3.9,9.9c-0.8,1.1-1.5,2.3-2.3,3.4C789.3,122.1,791,118.2,796,116.8z"/>
	<path fill="#FDFDFC" d="M648.1,421.7c13.4,12.1,12.8,24.6-1.6,36.2c-1.9,1.9-3.9,3.4-6.8,2c-7.3,0-14.6,1.6-21.9-0.4
		c-2.6-12.5-1.9-25.1-0.4-37.7c1.7-2.8,5.3-1.5,7.3-3.5C632.9,416.3,640.8,416.5,648.1,421.7z"/>
	<path fill="#AD0002" d="M615.3,513.5c-5.2,3.1-8.7,2.9-8.7-4.4c0-30.5,0-61,0-91.5c0-1.8,0.2-3.5,1.8-4.6c0,31,0.1,62-0.1,93
		C608.3,511.1,609.3,514.4,615.3,513.5z"/>
	<path fill="#A20000" d="M617.3,421.9c0.1,12.6,0.3,25.1,0.4,37.7c-3.1-1.4-2.3-4.2-2.3-6.7c-0.1-10.2,0-20.4,0-30.6
		c0-0.2,0.3-0.6,0.4-0.6C616.3,421.7,616.8,421.8,617.3,421.9z"/>
	<path fill="#A80202" d="M648.1,421.7c-7.6-2.8-15.5-3.3-23.5-3.3c-1.3-0.2-2.6-0.5-3.9-0.7c8.4-1.1,16.7-2.6,24.9,0.3
		C647.2,418.6,650.1,418.5,648.1,421.7z"/>
	<path fill="#A80302" d="M639.6,459.9c2.3-0.7,4.6-1.4,6.8-2c-0.2,6.1-5.6,4.6-8.6,5c-6.2,0.9-12.5,0.3-18.8-0.2
		C625.7,460,633.1,463.6,639.6,459.9z"/>
	<path fill="#FEFEFE" d="M876.8,449.6c5.2,3.8,9.2,8.7,12.2,14.3c5.9,10.9,5.2,21.6-1.5,31.9c-6.2,9.5-14.6,15.2-26.1,12.1
		c-11.5-3-16.1-12.5-17.7-23.3c-2.1-14.5,1.7-26.8,14.6-35.2C864.5,445.2,870.6,445.6,876.8,449.6z"/>
	<path fill="#AA0808" d="M887.5,495.8c4.1-10.5,4.8-21.1,1.5-31.9c0.7-0.2,1.8-0.7,1.9-0.6c5.4,8,4.6,25.7-1.4,33.1
		C889.3,496.6,888.1,496,887.5,495.8z"/>
	<path fill="#A10100" d="M876.8,449.6c-6.2-2-12.3-2.4-18.6-0.2C861.5,444.1,873.1,444.2,876.8,449.6z"/>
	<path fill="#FDFBFB" d="M1170.1,447.7c5.5,2.7,9.5,6.8,12.3,12.1c2.1,4.6,6.1,9.3-1.4,12.9c-12.8-0.7-25.6,1.6-38.4-1.3
		c-0.9-11.3,5.8-17.9,14.3-23.5C1161.4,444.9,1165.7,444.9,1170.1,447.7z"/>
	<path fill="#A00000" d="M1142.7,471.4c13.2,0.1,26.5,0.2,39.7,0.2c0.6,0.4,0.7,0.8,0.6,1.3c-0.2,0.4-0.3,0.7-0.5,0.7
		c-10.7,0-21.3,0.1-32,0C1147.8,473.5,1144.6,474.7,1142.7,471.4z"/>
	<path fill="#A80604" d="M1170.1,447.7c-4.4,0.1-8.7,0.1-13.1,0.2c2.9-4.7,11.6-5.4,15.2-1.3C1171.5,447,1170.8,447.3,1170.1,447.7z
		"/>
	<path fill="#A70102" d="M1182.5,473.6c0-0.6,0-1.3-0.1-1.9c4.1-3.9-1.4-7.9,0-11.9c0.4-0.7,0.8-1.4,1.1-2
		C1187.6,461.8,1187.1,469.5,1182.5,473.6z"/>
	<path fill="#FDFBFB" d="M727.6,447.9c8.9,5.2,13.8,12.6,12.5,23.3c-4,3.1-8.7,1.5-13,1.4c-8.8-0.1-17.7,1.3-26.4-0.8
		c-4.1-9.8,3.6-14.8,8.4-21C714.5,445.5,720.6,444.1,727.6,447.9z"/>
	<path fill="#A00000" d="M700.6,471.7c13.2-0.2,26.3-0.4,39.5-0.6c-0.8,0.7-1.6,2.1-2.3,2.1c-12.4,0.1-24.8,0-37.2-0.1
		c-0.1,0-0.3-0.4-0.3-0.7C700.2,472.2,700.4,472,700.6,471.7z"/>
	<path fill="#A90B0A" d="M727.6,447.9c-6.4-0.5-12.8-0.9-18.6,2.9c4.2-6.8,13.2-8.8,19.3-4.2c0.1,0.1,0,0.5-0.1,0.8
		C728,447.5,727.8,447.7,727.6,447.9z"/>
	<path fill="#636A7C" d="M700.4,357.3c0-29.5,0-58.9,0-88.4c8.2-1.5,10.8,1.8,10.6,10.2c-0.6,22.7-0.6,45.4,0,68
		C711.1,355.6,708.6,358.9,700.4,357.3z"/>
</g>
</svg>
