<?xml version="1.0" encoding="utf-8"?>
<!-- Generator: Adobe Illustrator 18.0.0, SVG Export Plug-In . SVG Version: 6.00 Build 0)  -->
<!DOCTYPE svg PUBLIC "-//W3C//DTD SVG 1.1//EN" "http://www.w3.org/Graphics/SVG/1.1/DTD/svg11.dtd">
<svg version="1.1" id="Layer_1" xmlns="http://www.w3.org/2000/svg" xmlns:xlink="http://www.w3.org/1999/xlink" x="0px" y="0px"
	 viewBox="809.6 763.2 383.6 303.1" enable-background="new 809.6 763.2 383.6 303.1" xml:space="preserve">
<g id="Layer_2" display="none">
	<g id="_x32__figures_light.psd_1_" display="inline">
		<g>
			<g>
				<defs>
					<rect id="SVGID_1_" x="521" y="125.1" width="1365.9" height="1053"/>
				</defs>
				<clipPath id="SVGID_2_">
					<use xlink:href="#SVGID_1_"  overflow="visible"/>
				</clipPath>
				<g transform="matrix(1 0 0 1 0 0)" clip-path="url(#SVGID_2_)">
					
						<image overflow="visible" enable-background="new    " width="850" height="656" xlink:href="FF9A35F7.jpg"  transform="matrix(1.6089 0 0 1.6051 521.0464 125.1942)">
					</image>
				</g>
			</g>
		</g>
	</g>
</g>
<g>
	<g>
		<path fill="#961E15" d="M940.9,1065.2H919v-80.9h-11.7v-18.4h3.3c9.5,0,11.5-4.2,13.7-11.1l0.7-2.2h15.9V1065.2L940.9,1065.2z
			 M925.4,1058.6h8.6v-99.5h-4.6c-2,5.5-5.5,11.9-15.9,13.3v5.3h11.7v80.9H925.4z"/>
	</g>
	<g>
		<path fill="#961E15" d="M976.5,1066.3c-16.8,0-26.5-10.8-26.5-30.1v-55.1c0-19,9.7-30.1,26.5-30.1c16.8,0,26.5,10.8,26.5,30.1
			v55.1C1003,1055.5,993.5,1066.3,976.5,1066.3z M976.5,957.7c-16.4,0-19.9,12.6-19.9,23.4v55.1c0,10.6,3.5,23.4,19.9,23.4
			s19.9-12.6,19.9-23.4v-55.1C996.4,970.6,993.1,957.7,976.5,957.7z M976.5,1051.3c-4.2,0-11.3-1.8-11.3-13.7v-57.3
			c0-11.9,7.1-13.7,11.3-13.7s11.3,1.8,11.3,13.7v57.3C987.7,1049.5,980.7,1051.3,976.5,1051.3z M976.5,973c-1.8,0-4.6,0-4.6,7.1
			v57.3c0,7.1,2.9,7.1,4.6,7.1s4.6,0,4.6-7.1v-57.3C981.1,973,978.2,973,976.5,973z"/>
	</g>
	<g>
		<path fill="#961E15" d="M1037,1066.3c-16.8,0-26.5-10.8-26.5-30.1v-55.1c0-19,9.7-30.1,26.5-30.1c16.8,0,26.5,10.8,26.5,30.1v55.1
			C1063.6,1055.5,1054.1,1066.3,1037,1066.3z M1037,957.7c-16.4,0-19.9,12.6-19.9,23.4v55.1c0,10.6,3.5,23.4,19.9,23.4
			c16.4,0,19.9-12.6,19.9-23.4v-55.1C1056.9,970.6,1053.6,957.7,1037,957.7z M1037,1051.3c-4.2,0-11.3-1.8-11.3-13.7v-57.3
			c0-11.9,7.1-13.7,11.3-13.7c4.2,0,11.3,1.8,11.3,13.7v57.3C1048.3,1049.5,1041.2,1051.3,1037,1051.3z M1037,973
			c-1.8,0-4.6,0-4.6,7.1v57.3c0,7.1,2.9,7.1,4.6,7.1c1.8,0,4.6,0,4.6-7.1v-57.3C1041.7,973,1038.8,973,1037,973z"/>
	</g>
</g>
<rect x="1143.4" y="864" fill="#FFFFFF" width="12.8" height="7.1"/>
<g>
	<path fill="#961E15" d="M809.8,1002.2l-0.2-47.5l5.7-3.1h5.7l0.2,50.6H809.8z"/>
	<path fill="#961E15" d="M825,977.4v-19.7c0-3.8,1.8-6.2,4.6-6.4h16.8c2.7,0,4.6,2.7,4.6,6.2l0.2,38c0,3.8-1.8,6.2-4.6,6.4h-20.1
		v-12.6h13.3v-5.7h-9.9C826.8,983.8,825,981.2,825,977.4z M836.3,971h3.1v-6.9h-3.1V971z"/>
	<path fill="#961E15" d="M855.3,1002l-0.2-47.5l5.7-3.1h5.7l0.2,50.6H855.3z"/>
	<path fill="#961E15" d="M870.3,977.2v-19.7c0-3.8,1.8-6.2,4.6-6.4h16.8c2.7,0,4.6,2.7,4.6,6.2l0.2,38c0,3.8-1.8,6.2-4.6,6.4h-20.1
		v-12.6h13.3v-5.7h-9.9C872.3,983.6,870.3,981,870.3,977.2z M881.8,970.8h3.1v-6.9h-3.1V970.8z"/>
	<path fill="#961E15" d="M1087.5,985.8v2.7h14.6v12.6H1076v-16.8c0-4.2,0.4-6.4,3.1-8.6l11.5-9.9V963h-12.6l-1.8-6.4v-6.2h21.4
		c2.7,0,4.6,2.7,4.6,6.2v11.5c0,4-0.4,6.4-3.1,8.6L1087.5,985.8z"/>
	<path fill="#961E15" d="M1109.6,1001.1c-2.7,0-4.6-2.7-4.6-6.2l-0.2-38c0-3.8,1.8-6.2,4.6-6.4h16.8c2.7,0,4.6,2.7,4.6,6.2l0.2,38
		c0,3.8-1.8,6.2-4.6,6.4H1109.6z M1116.4,963v25.2h3.1V963H1116.4z"/>
	<path fill="#961E15" d="M1135.2,1000.9l-0.2-47.5l5.7-3.1h5.7l0.2,50.6H1135.2z"/>
	<path fill="#961E15" d="M1150.5,976.3v-19.7c0-3.8,1.8-6.2,4.6-6.4h16.8c2.7,0,4.6,2.7,4.6,6.2l0.2,38c0,3.8-1.8,6.2-4.6,6.4H1152
		v-12.6h13.3v-5.7h-9.9C1152.2,982.5,1150.5,980.1,1150.5,976.3z M1162,969.9h3.1V963h-3.1V969.9z"/>
</g>
<g>
	<path fill="#DD2D1C" d="M809.8,876.8v-20.6c0-7.1,4.6-12.2,11.3-12.2h48.6V856l-4.4,12.6h-27.4v4.4l24.3,17.7
		c6.2,4.4,7.5,8.8,7.5,16.6v22.1c0,7.1-4.6,12.2-11.1,12.2h-48.9v-24.5h31.8v-6.2l-24.3-17.7C811.3,888.8,809.8,884.6,809.8,876.8z"
		/>
	<path fill="#DD2D1C" d="M888.7,941.8c-6.6,0-11.3-5.1-11.3-12.2v-73.4c0-7.1,4.6-12.2,11.3-12.2h44.7c6.6,0,11.3,5.1,11.3,12.2
		v73.4c0,7.1-4.6,12.2-11.3,12.2H888.7z M905.5,868.6v48.9h11.1v-48.9H905.5z"/>
	<path fill="#DD2D1C" d="M951.3,852.1v-8h27.9l5.7,73.4h3.1l5.7-73.4h27.9v8l-14.1,89.8h-42L951.3,852.1z"/>
	<path fill="#DD2D1C" d="M1028.2,941.8v-97.7h27.9v97.7H1028.2z"/>
	<path fill="#DD2D1C" d="M1066.5,941.8v-97.7h59.9v12.2l-4.4,12.4h-27.6v10.8h27.6V904h-27.6v13.5h32.1v24.3H1066.5z"/>
	<path fill="#DD2D1C" d="M1130.1,868.6v-24.5h62.8v12.2l-4.4,12.4H1175v73.2h-28.1v-73.2H1130.1z"/>
</g>
<g>
	<path fill="#961E15" d="M810.2,763h20.6v53.9h20.8v17.9h-41.3V763z"/>
	<path fill="#961E15" d="M856.2,835v-71.9h20.6V835H856.2z"/>
	<path fill="#961E15" d="M904.2,800.5h-1.5V835h-20.1v-8.8l6.9-63h23l5.1,28.3h1.3l5.1-28.3h23l6.6,63v8.8h-20.1v-34.5h-1.8
		l-5.1,34.5h-17.2L904.2,800.5z"/>
	<path fill="#961E15" d="M959,835v-71.9h44v8.8l-3.3,9.1h-20.3v8h20.3V807h-20.3v9.9h23.7v17.9h-44V835z"/>
	<path fill="#961E15" d="M1050.1,763c4.9,0,8.2,3.8,8.2,8.8v28.5c0,3.3-2.4,7.3-5.5,8.2l6.4,17.7v8.8H1039l-5.5-22.3h-4.2V835h-20.6
		v-71.9h41.3V763z M1029.3,781.1v13.5h8.2v-13.5H1029.3z"/>
	<path fill="#961E15" d="M1064.9,835v-71.9h20.6V835H1064.9z"/>
	<path fill="#961E15" d="M1137.2,763v8.8l-3.1,9.1h-20.3v35.8h23.4v17.9h-35.8c-4.9,0-8.4-3.8-8.4-8.8v-53.9c0-5.3,3.3-8.8,8.4-8.8
		L1137.2,763L1137.2,763z"/>
	<path fill="#961E15" d="M1171.9,763h19.7v8.8l-7.7,25l9.3,29v8.8h-20.6l-5.5-27.9h-3.8v27.9h-20.6v-71.9h20.6v26.1h3.8L1171.9,763z
		"/>
</g>
</svg>
