<?xml version="1.0" encoding="utf-8"?>
<!-- Generator: Adobe Illustrator 18.0.0, SVG Export Plug-In . SVG Version: 6.00 Build 0)  -->
<!DOCTYPE svg PUBLIC "-//W3C//DTD SVG 1.1//EN" "http://www.w3.org/Graphics/SVG/1.1/DTD/svg11.dtd">
<svg version="1.1" id="Layer_1" xmlns="http://www.w3.org/2000/svg" xmlns:xlink="http://www.w3.org/1999/xlink" x="0px" y="0px"
	 viewBox="0 0 1453.9 508.5" enable-background="new 0 0 1453.9 508.5" xml:space="preserve">
<g>
	<path fill="#EC6608" d="M543.1,206.4c19.7,0,30.7,20.5,30.7,45.2c0,24.8-11,45.1-30.7,45.1c-19.7,0-30.6-20.3-30.6-45.1
		C512.6,226.8,523.5,206.4,543.1,206.4z M543.1,282.2c9.8,0,15.2-13.9,15.2-30.6c0-16.8-5.4-30.7-15.2-30.7
		c-9.7,0-15.1,13.9-15.1,30.7C528.1,268.3,533.4,282.2,543.1,282.2z"/>
	<path fill="#EC6608" d="M636.9,206.4c10.8,0,22,6.7,28.2,16.8l-9.2,8.1c-5.9-7.2-11.8-10.4-18.4-10.4c-11.5,0-21.5,11.7-21.5,30.7
		c0,18.9,10,30.6,21.5,30.6c6.6,0,12.5-3,18.4-10.4l9.2,8.1c-6.2,10.1-17.4,16.8-28.2,16.8c-22,0-36.9-20.3-36.9-45.1
		C600.1,226.8,614.9,206.4,636.9,206.4z"/>
	<path fill="#EC6608" d="M724.5,206.4c10.8,0,22,6.7,28.2,16.8l-9.2,8.1c-5.9-7.2-11.8-10.4-18.4-10.4c-11.5,0-21.5,11.7-21.5,30.7
		c0,18.9,10,30.6,21.5,30.6c6.6,0,12.5-3,18.4-10.4l9.2,8.1c-6.2,10.1-17.4,16.8-28.2,16.8c-22,0-36.9-20.3-36.9-45.1
		C687.6,226.8,702.4,206.4,724.5,206.4z"/>
	<path fill="#EC6608" d="M791.1,207.8v55.5c0,12.7,6.6,18.9,14.6,18.9c8,0,14.6-6.2,14.6-18.9v-55.5h14.7v55.5
		c0,21.5-13.1,33.4-29.2,33.4c-16,0-29.1-11.9-29.1-33.4v-55.5H791.1z"/>
	<path fill="#EC6608" d="M925.3,237.1c0,16-13.1,29.1-29.1,29.1c-1.3,0-17.6,0-17.6,0v29.1h-14.6v-87.5h32.1
		C912.2,207.8,925.3,220.9,925.3,237.1z M910.7,237.1c0-8.1-6.6-14.7-14.6-14.7c-1.6,0-17.6,0-17.6,0v29.2h17.6
		C904.2,251.6,910.7,245.1,910.7,237.1z"/>
	<path fill="#EC6608" d="M937,207.8h16.8l19.7,35.9l19.7-35.9h16.8l-29.2,52.5v35h-14.6v-35L937,207.8z"/>
	<path fill="#EC6608" d="M1088.3,296.7c-9.5,0-16.5-3-24.7-9.3l1.7-13c8.8,4.7,16,7.7,23.5,7.7c6.6,0,15-3.5,15-10.6
		c0-16.7-41.3-10.2-41.3-39.5c0-15.2,13.4-25.7,28.9-25.7c9.8,0,16.5,3.4,25.6,10.5l-4.6,11.5c-6.2-4.1-13.5-7.6-20.5-7.6
		c-8.8,0-14.2,4.7-14.2,10c0,15.6,41.4,11.7,41.4,38.6C1119.1,287.3,1104,296.7,1088.3,296.7z"/>
	<path fill="#EC6608" d="M1202.4,237.1c0,16-13.1,29.1-29.1,29.1c-1.3,0-17.6,0-17.6,0v29.1h-14.5v-87.5h32.1
		C1189.3,207.8,1202.4,220.9,1202.4,237.1z M1187.8,237.1c0-8.1-6.6-14.7-14.6-14.7c-1.6,0-17.6,0-17.6,0v29.2h17.6
		C1181.3,251.6,1187.8,245.1,1187.8,237.1z"/>
	<path fill="#EC6608" d="M1243.2,295.3h-14.5v-55.3c0-21.6,13.1-33.6,29.1-33.6c16.1,0,29.3,11.9,29.3,33.6v55.3h-14.7v-29.1h-29.1
		V295.3z M1272.3,239.9c0-12.9-6.6-19-14.6-19c-8,0-14.6,6.2-14.6,19v11.7h29.1V239.9z"/>
	<path fill="#EC6608" d="M1351.6,206.4c10.8,0,22,6.7,28.2,16.8l-9.2,8.1c-5.9-7.2-11.8-10.4-18.4-10.4c-11.5,0-21.5,11.7-21.5,30.7
		c0,18.9,10,30.6,21.5,30.6c6.6,0,12.5-3,18.4-10.4l9.2,8.1c-6.2,10.1-17.4,16.8-28.2,16.8c-22,0-36.9-20.3-36.9-45.1
		C1314.7,226.8,1329.5,206.4,1351.6,206.4z"/>
	<path fill="#EC6608" d="M1403.7,207.8h43.7v14.6h-29.1v17.6h29.1v14.6h-29.1v26.2h29.1v14.6h-43.7V207.8z"/>
</g>
<path fill="#EC6608" d="M472.1,254.5c0.7-46.5-12.7-90.5-36.4-127.7c0,0.2,0,0.4,0,0.5c-0.7,0-1.6-0.2-1.7,0.4c-1-0.1-0.2-1.8,0-2.1
	c0.3,0,0.6,0,0.9,0c-5.6-8.7-11.8-17.1-18.6-24.9c-0.2,0-0.4,0-0.6,0c0.1-0.3,0-0.5,0-0.6c-36.2-41.9-87.4-71-146.7-78.3
	c-67.6-8.4-132,13.3-179.8,54.6c0,0.1,0,0.2,0,0.3c-0.1,0-0.2,0.1-0.3,0.1C83,81.9,77.4,87.3,72,93c2,1.8,3.5,3.9,3.9,6.6
	c-1.8-1.4-2.2,0.3-4.6-0.4c-0.3-1.2-1-2.1-1.7-2.9c0-0.4,0.1-0.7,0.2-0.9c-6.6,7.2-12.7,14.8-18.3,22.8c0.9-0.9,2.5-1.3,3.6-0.6
	c-1.1,1.7-2.5,1.2-4.2,1.7c0.1-0.4,0.3-0.7,0.6-1c-16.4,23.2-28.7,49.7-35.7,78.5c0.4,0.3,0.6,0.6,0.7,1c-0.3,0-0.6,0-0.9-0.1
	c-0.1,0.4-0.2,0.7-0.3,1.1c0.3-0.2,0.5-0.4,0.4-1c0.7,0.6,2.1-0.4,3.7,0c0.4,1.1,1.3,1.7,2.5,2.1c0.7-0.1-0.4-0.7,0.4-0.8
	c1.9-0.3-0.6,1.1,1.2,0.8c-1.3,2.2,0.3,3.3,1.2,3.7c0.5-0.1,0.4-0.8,0.4-1.2c0.7,1,0.7,0.3,1.7,0.8c-0.6,1.4,0.7,2.8,2.1,3.3
	c-0.2,0.5-0.5,0.9-1.3,0.8c0.5,0.8,1.8-0.5,2.9,0.4c-0.1,0.7-2.2,1.6-0.8,2.5c-0.3,1-1.1-0.8-2.1-0.4c0.2,0.8,1.6,0.3,1.3,1.7
	c-0.3-0.1-0.4-0.4-0.8-0.4c0.5,1,1.1,1.5,0,2.1c0.1,1.7,1.8,1.8,2.5,2.9c-1.6,0.3-0.7,1-2.9,1.6c0.4,1,1.2,1.6,1.7,2.5
	c-1.3,0.6-0.1,3.8,1.7,3.7c-0.1,0.6-1.2,0.2-1.2,0.8c-0.5-0.1-0.2-0.4,0-0.4c-0.3-0.7-1-0.3-0.8,0.4c-1.3,0.2-1.1-1.1-2.1-1.2
	c0.4,0.4,0.1,1.5,1.2,1.2c-0.1,0.5-0.7,0.7-0.8,1.2c-1,0.2-0.9-0.8-2.1-0.4c1.2-0.7-0.2-1.6,1.3-1.7c-0.3-0.4-1-0.4-0.8-1.2
	c-1.5,1.2-1.8-1.3-2.5,0.4c-2.2-1.2,0.1-3.1-1.7-4.2c1.5-1,2.6,0.9,2.5-1.3c0.6,0.2,2.2-0.5,2.1,0.4c0.5-0.8,0.5-2.3,2.5-1.7
	c-1.3-1.4-3.6-0.8-5.4-3.3c0.4-0.9,1.3-1.5,2.5-1.7c-0.5-0.5-0.4-0.9,0.4-0.8c-0.5-0.6-0.5-1,0-1.7c-1.3-0.2-0.9,1.3-2.5,0.8
	c-0.3,1.2,0.6,1.1,0.4,2.1c-0.4,0.2-0.7,0.4-0.8,0.8c-3-0.9-2.5-0.6-5-0.4c0.6,0.2,0.5,0.4,1.7,0.8c-0.8,1.5-0.5,1.5-1.2,2.9
	c-1.9-0.5-0.8-1.4-1.7-2.9c-0.9,0.5-0.9,0.4-0.4-0.4c-0.7,1.4-3.4-0.1-3.3,1.2c-0.5-0.1-0.7-0.2-0.8-0.4c-0.5,3.2-1,6.4-1.5,9.7
	c-0.7,5.6-1.1,11.3-1.4,16.9c0.7,0.2,1.2,1.1,0.4,1.2c0.2,0.6,1.3,0.3,0.8,1.6c-0.3-0.2-0.7-0.4-1.2-0.4c0,0,0,0-0.1,0
	C8.6,260.4,10,278,13.2,295c0.1,0.1,0.2,0.2,0.3,0.2c0,0.1-0.2,0.2-0.2,0.3c0.7,3.7,1.5,7.4,2.4,11.1c0.7-0.7,1.7-1.1,3.2-1
	c-0.1,0.5,0.1,0.7,0.4,0.8c0.4,1.5-1,1.2-0.8,2.5c-0.8-0.5-1.5-0.4-2.4-0.6c0.2,0.7,0.4,1.5,0.6,2.2c0,0,0.1,0,0.1,0
	c0,0.1,0,0.2,0,0.2c0.6,2.2,1.2,4.4,1.8,6.5c0.4,0,0.8,0,1.1-0.1c0.1,0.7-0.4,0.7-0.4,1.2c0.9-1.1,2.5-1.9,3.3-2.1
	c0.2-0.6,0.5,0.2,1.2,0c-0.4,1-0.3,1.1-0.4,2.9c-0.9,0.2-2.9,1.5-3.7,0.4c-0.4,0.3,0.4,1.1,0.2,1.8c0.1,0.2,0.1,0.5,0.2,0.7
	c0.1,0,0.3-0.1,0.4,0c0,0.7,0.3,1.1,0.8,1.3c0,0.5-0.3,0.6-0.7,0.7c4.5,13.5,10.2,26.5,17,38.9c0.1,0,0.3,0.1,0.2,0.2
	c1.3-0.6,1.4-0.1,2.9,0c-0.6,0.7-0.9,1.6-1.2,2.5c-0.2,0-0.3,0.1-0.4,0.1c1.6,2.7,3.2,5.4,4.8,8c0.7,0.4,1.3,1.1,1.4,2.2
	c2.9,4.6,6.1,9.1,9.3,13.4c0.7-1.8,3.2-5.1,3.6-6.7c0.4-1.6,0.1-7.4,4.6-5.8c0.8,0.3-0.5,2,1.7,0.8c-0.8,0.6-0.1,2.7-0.8,3.3
	c3.1-0.7,2.3-3.2,5-4.6c1.6,0.5,2.8,1.4,2.5,3.7c-2,0.1-3,2-5,0.8c1.3,1.4,0.1,2.1-2.1,2.1c-0.2-0.6-0.6-1-0.8-1.7
	c-0.9,0.4-1.3,1.2-1.2,2.5c-2-0.6-1.2,0.9-3.7,2.9c0.2,0.8,1.6,0.3,1.2,1.7c2.8,0.4,1.8-2.5,2.9-4.1c0.3,0.3,1.1,0.6,1.2,0
	c1.5,0.9,0.9,4-1.7,3.3c1.2,0.7,0.4,1,0.4,2.5c1.1,2.5,5.3-1.4,2.9-2.1c0.6-1,2.5,0.3,3.3,0.4c-0.1,1.3-0.6,2.4,0,3.7
	c-0.6,1.4-1-0.9-2.1-0.4c-1,0.8-1.9,1.7-1.7,3.7c1.4-0.1,1.8-1.2,2.5-2.1c1.1,1.2-0.8,2.7-1.2,3.7c-1.6-1.5-1.9,0.1-3.7,0.4
	c-0.2,1.3,0.9,1.3,2.1,1.2c0,0.9-0.4,1.4-0.8,1.9c7.8,9.2,16.2,17.8,25.4,25.7c-0.3-0.8,0.6-2.3,1.2-2.7c1.4,0.1,0.2,2.3,0,3.3
	c-0.2,0-0.4-0.1-0.5-0.1c6.2,5.3,12.7,10.3,19.4,14.9c0.7-0.8,1.3-1.7,0.6-2.4c0.4-2,5.1-1.8,4.2,1.2c-0.8,0.5-2,0.5-1.7,2.1
	c-0.4,0-0.9,0.1-1.2,0.3c2.4,1.6,4.8,3.2,7.3,4.7c0.2-0.8,0.7-1.6,0.6-2.6c-0.9-1.7-1.2,0.5-2.1-0.4c2.1-0.4,2.3-4.7,2.1-7.1
	c1,1.7,4.3,0.5,5,3.3c2.9,0,3.9-0.2,5.4-2.1c-0.6-1.1-0.5-3-2.1-2.1c0.2-0.7,1.3-0.4,0.8-1.7c1.2,0.4,1.4,0.5,2.1-0.4
	c1.7-0.1,2.1,1.3,3.7,1.2c-0.3,0.9-1.6,0.9-1.7,2.1c-1,0-1.2-0.7-2.5-0.4c0.9,0.9,2.2,1.3,3.3,0.8c-0.7,0.8-1.8,2.6-1.3,3.3
	c0.1,0.9,1-0.5,2.1,0c1.2,1.8-0.4,3.9-2.5,3.7c-0.3-2.5-4.4-1.9-5.4-2.5c-0.4,1.3-1.3,2.3-2.1,3.3c0.1,0.8,1.4,0.3,1.7,0.8
	c-0.7,0.6-1.3,1.5-2.9,1.3c0.9-0.8-0.3-1.1-1.2-1.3c0.3-0.4,1-0.4,0.8-1.2c0.5,0.1,0.4,0.8,0.4,1.2c1-0.3,0.1-1.9-0.4-2.1
	c-1.6,0.3-1.4,2.5-2.3,3.6c0.8,0.5,1.6,1,2.3,1.4c0.5,0.1,0.8,0.4,1.1,0.7c6.7,3.9,13.5,7.5,20.6,10.8c0.3-0.8,1-1.3,1.9-1.5
	c0,1-0.3,1.6-0.9,2c0.8,0.3,1.5,0.6,2.3,1c-0.1-1.4,0.5-2.7,1.1-2.9c-0.3-0.5-0.9-0.8-1.7-0.8c0.6-1,2.7,0,2.5,1.2
	c0.4-0.3,0.9-0.4,1.7-0.4c0-0.7,0.2-1.6-0.4-1.7c1-1.1,2.3,1,2.5,2.1c1.2-0.3-0.4-0.9,0-1.7c2.2,0-0.2,2.2,2.1,1.7
	c-0.5,0.6-1.6,1-2.1,0.4c0.1,1.5,0.8,1.8-1.3,1.7c0.4,1.4,0.8,0.2,2.1,0.4c0.1-0.5-0.1-0.7-0.4-0.8c0-1.5,1.4,0.9,1.2-0.4
	c1.7,1.6,0.9,1.9,0.4,4.2c-0.6-0.2-0.9-0.1-1,0c3.4,1.4,6.8,2.6,10.3,3.8c0.2-0.5,0-1.2,0.2-1.7c0.2,0.6,0.3,1.3,0.4,2
	c1.4,0.5,2.9,1,4.4,1.4c-0.2-0.6-0.2-1.2,0.2-1.7c-0.4-0.4-1.2-0.1-2.5-0.4c-1.3,0.4,2.2-0.6,1.7-2.1c0.5,0.1,0.3,0.8,0.4,1.3
	c0.9-0.7,2.2-1.1,2.5-2.5c0.8,1,2.8-0.1,4.2,0.8c-1.1,1.4-1.8,3.2-2.9,4.6c0.1,0.9,1,0.9,2.1,0.8c0,0.2-0.6,0.5-0.8,0.7
	c6.9,2,13.9,3.8,21.1,5.2c0-0.2,0.1-0.3,0.1-0.5c1.2,0.1,1.3-0.9,2.5-0.8c0.2,0.2,0.2,1.1,0,1.9c1.7,0.3,3.4,0.6,5.1,0.9
	c0-0.2-0.1-0.5-0.1-0.7c0.6,0,1.1,0,1.7,0c0,0.3-0.1,0.6-0.1,0.9c2.5,0.4,5,0.8,7.5,1.1c0.4-0.2,0.7-0.4,0.9-0.8
	c0.2,0.1,0.3,0.5,0.4,0.9c2.4,0.3,4.8,0.5,7.2,0.7c0.2-0.3,0.4-0.7,0-0.8c0.1-0.5,1.8-1.4,2.1-0.4c1.2-0.4-1-0.6-0.4-1.7
	c0.9-0.2,1.1,0.3,1.7,0.4c0,1.1-0.8,1.5-0.8,2.7c2.5,0.2,5,0.3,7.5,0.4c-0.1-0.1-0.3-0.1-0.4-0.2c0.3-1.5,1.7-0.3,2.5,0
	c0,0.1-0.1,0.2-0.1,0.3c4.7,0.2,9.5,0.2,14.2,0.1c-0.2-0.3-0.3-0.8-0.3-1.2c0.7-0.1,1.1,0.7,1.3,0c0.5,0.3,0.1,0.5,0.3,1.2
	c4.3-0.1,8.6-0.4,12.9-0.8c-0.1-0.4-0.4-0.8-0.3-1.7c1,0.4,2.2,0.5,3.7,0.4c-1,1,0,0.7,0.8,0.8c1-0.1,2-0.2,2.9-0.3
	c0.3,0,0.5-0.1,0.9-0.1c0,0,0,0,0,0c10.1-1.2,20.1-3.1,29.9-5.7c-0.1-1.4-0.8-2.4-1.2-3.5c-0.2-0.7,2.3-0.7,2.1,0
	c0.7-0.5,0.8-1.7,1.7-2.1c-0.4-0.6-1.1-0.8-1.7-1.3c0.2-1.3,0.3-2.7,0.8-3.7c0.8,1.1-0.7,1.2,1.7,0.8c-0.2,0.6-0.6,1-1.2,1.2
	c0.6,1.4,2.2,3.4,1.7,4.6c0.5,0.1,0.7-0.1,0.8-0.4c1,0-0.1,1.1-0.8,0.8c0.7,0.9,1,1.6,1.2,2.2c0.6-0.2,1.2-0.4,1.8-0.5
	c-0.1-0.4-0.1-0.8,0.3-1.2c0.8,0.1,1.3,0.4,2.2,0.5c3.4-1,6.8-2.2,10.2-3.4c-0.4-0.2-0.8-0.6-0.7-1.3c2.7,1.2,0.2-2,2.5-2.1
	c-0.5,1.1,0,1.8-0.1,2.7c13.6-5,26.7-11.1,39-18.5c-0.1-0.2-0.2-0.5-0.3-0.9c0.4-0.7,1-1.2,1.3-2.1c0.8,0.2,1.4,0.7,1.9,1.2
	c1.9-1.2,3.9-2.4,5.8-3.7c-0.2-0.9-0.2-1.7,0.2-2.5c1.5,0.7,1-0.3,2.5-0.4c-0.6,0.6-0.4,0.9-0.1,1.2c1.8-1.2,3.6-2.4,5.3-3.6
	c0.3-0.6,0.5-1.3,0.6-2.1c0.6,0,1.1,0,1.7,0c0,0.2,0,0.3,0,0.4c10.7-7.9,20.8-16.7,30-26.3c-0.6,0.4-1.5,0.1-3,0.1
	c0.2-0.7,1.3-0.4,0.8-1.7c1.3-0.2,1.9,0.3,2.9,0.4c-0.1,0.4-0.2,0.6-0.4,0.8c8.8-9.2,16.9-19.2,24.1-29.9c-0.3,0.4-0.8,0.6-1.8,0.4
	c-0.3-0.5-0.5-1.1-0.4-2.1c1.7-0.6,3,0,3.9-0.8c11.7-17.7,21.1-37.3,27.7-58.2c-0.1,0-0.3,0.1-0.4,0c-0.1-1,0.1-1.6,0.4-2.1
	c0.1,0.2,0.3,0.4,0.5,0.5c3.4-11.2,6-22.9,7.8-34.8c-0.9-0.5-0.5-2.9,0.4-2.9c0.1-0.6,0.2-1.1,0.3-1.7c1-8.1,1.6-16.3,1.7-24.3
	c-0.2-0.3-0.2-0.8-0.3-1.2C471.9,254.5,472,254.5,472.1,254.5z M424.5,222.5c0.3-0.8,0.7-1.5,0.8-2.5
	C427.7,220.1,426.1,222.9,424.5,222.5z M422,300.6c0.6-0.5,1.5-0.5,2.1,0c-0.3,1.7-0.3,1.7,0,3.3c-0.4,0-0.8,0-1.2,0
	c0.1-0.5-0.1-0.7-0.4-0.8C424.1,302.2,421.9,302.1,422,300.6z M424,319.7c0.6,0.2,1,0.6,1.7,0.8c-0.1,0.5-0.4,0.2-0.4,0
	c-0.8,0.3-0.1,2.1-1.7,1.7C424.4,321.1,423.4,321,424,319.7z M425.3,279c0,0.6,0,1.1,0,1.7C423.7,281,423.7,278.7,425.3,279z
	 M425.3,154.4c-0.5-0.1-0.7,0.1-0.8,0.4c-0.6-0.3-0.8-0.9-0.8-1.7C424.4,153.3,425.4,153.3,425.3,154.4z M425.3,162.7
	c-1-0.6-0.8-0.9-2.1-0.4c0-1-0.7-1.2-0.4-2.5c-0.7-0.1-0.7,0.4-1.3,0.4C421.4,158.6,425.8,160.2,425.3,162.7z M421.1,198.4
	c1-0.2,0.9,0.8,2.1,0.4c-0.6,1.9-0.2,2.7-1.2,3.7C419.7,202.6,421.1,199.7,421.1,198.4z M419.9,301.5c-0.8,0.4-1.4-1.2-1.7,0
	c-0.3-1.2-1.1-4,2.1-4.1C421,298.7,420.5,300.3,419.9,301.5z M416.2,119.1c-1.5,0.1-2.2-0.6-2.1-2.1
	C415.1,117.4,415.8,118.1,416.2,119.1z M414.1,152.3c-0.1,0.9,0.1,1.6,0.8,1.7c-0.6,1.1-1.5-1-2.5-0.8
	C412.5,152.4,413.1,152.2,414.1,152.3z M412.4,164.8c0.5-0.7,2.5,0,2.5-1.2c0.3,0.9,1.4,1.1,1.3,2.5c-1.2,0.4-2.7,0.7-3.8,1.2
	C412.4,165.7,412.9,166.1,412.4,164.8z M410.3,312.7c-1.4,0.3-0.7-0.9-0.4-1.2c-0.4-0.4-0.8-0.8-1.3-1.2
	C410.1,308,411.2,310.8,410.3,312.7z M408.7,307.7c-1,0.4-2.8,0.4-2.9-1.2c-1,0.3,0.1,2.6-0.8,2.9c-2.1-0.3,1.3-1.9-0.4-2.9
	c0.1-0.5,0.4-0.2,0.4,0c1.7-1.3,0.3-0.3,1.7,0.4c0.6-0.2-0.2-0.5,0-1.3c0.6,0,1.1,0,1.7,0C407.9,306.8,408.8,306.7,408.7,307.7z
	 M406.2,322.6c-2.2,1.2-0.7-4.9-1.7-5.4c0.3-0.4,1-0.4,0.8-1.2c0.5,1.5-0.1,4.2,1.7,3.7c-0.3,1.2,0.6,1.1,0.4,2.1
	C407.4,322.2,404.9,322.2,406.2,322.6z M405.8,312.7c1.2-0.1,1.2,1,1.3,2.1c-0.6,0-1.1,0-1.7,0C406,313.8,406.2,314,405.8,312.7z
	 M407,299.8c0.3,1.7-2.7,0.1-2.1,2.1C403,301.1,405.2,299.4,407,299.8z M405.3,289.8c-1.7,0.3-1.7-1.1-1.7-2.5
	C405.5,286.9,405.9,289.2,405.3,289.8z M401.6,252.9c0.9,0.2,1.2,1,2.5,0.8c-0.5,0.9-0.7,2.1-2.1,2.1
	C401.3,254.6,401.4,254.5,401.6,252.9z M395.4,197.2c0.2,0.3,0.4,0.7,0.4,1.2c-0.4,0.3-0.9,0.4-1.7,0.4
	C394,197.8,394.3,197.1,395.4,197.2z M396.2,385.8c-0.5,1.2-1,2.3-2.1,2.9c-0.4-0.3-0.4-1-1.3-0.8
	C393.1,386.3,394.4,385.8,396.2,385.8z M395,398.3c-0.6,1.4,0.2,3.2-2.1,3.7C393.3,399.9,392.2,398.4,395,398.3z M391.6,407
	c1.5,0.5-2.4,1.2-0.8,1.7c-0.5,1.3-1.2-0.4-0.8-1.2C390.6,407.4,391.6,407.6,391.6,407z M388.7,101.2c1.1-0.5,1.1-2.3,2.5-2.5
	c0,0.8,0,1.7,0,2.5C390.4,101.2,389.5,101.2,388.7,101.2z M383.3,163.9c0.3,0.2,0.7,0.4,1.3,0.4c0.1,0.7-0.5,0.9-0.4,1.7
	C382.9,166.1,382.7,164.5,383.3,163.9z M373.8,72.5c0.8,0.4,0.9,1.5,1.7,2.1c-0.4,0.7-0.8,1.4-2.1,1.2c-0.1-0.7,0.5-0.9,0.4-1.7
	c-0.3,0-0.6,0-0.8,0c-0.2,1-0.3,1.3-1.2,2.9c-0.5-0.4-1.5-0.4-2.1-0.8C369.7,73.8,372.1,73.5,373.8,72.5z M361.7,142.8
	c1,0.4,1.8,0.9,2.5,1.7c-0.5,1.4-1.6,2.2-3.3,2.5c-0.3-0.9-0.9-1.6-0.8-2.9C360.6,143.6,361.6,143.6,361.7,142.8z M361.3,152.3
	c-1,0.1-1.6-0.1-2.1-0.4C359.6,151,361.6,150.6,361.3,152.3z M359.6,111.6c1.1,0.6-0.4,2-1.3,2.1
	C358.2,112.4,359.5,112.6,359.6,111.6z M354.7,99.1c0.5,0.9,0.2,1.2,0.8,2.5c-1,0.1-1.3-0.6-2.1-0.8
	C353.1,99.5,354.5,99.9,354.7,99.1z M350.9,112c0.8,0.5,0.3,2.2,0.8,2.9c-0.9,0.2-1.1-0.3-1.7-0.4C350.5,113,350,113.1,350.9,112z
	 M347.6,236.6c-1.1,0.3-0.8-0.8-1.7-0.8c0.2-0.9,0.9-1.3,1.2-2.1C348.1,233.9,347.3,235.8,347.6,236.6z M345.5,83.3
	c0.8,0.1,0.4,1.5,1.2,1.7c-0.1,0.7-0.7,0.9-1.7,0.8C345,84.8,345,83.8,345.5,83.3z M342.2,126.5c-0.3,0.7-3,0.3-2.9-0.8
	C340.8,125.4,340.9,126.6,342.2,126.5z M338.9,185.5c-1.3,0.5-0.3-1.3-1.7-0.8c0.1-1.6,0.6-2.7,2.1-2.9
	C340.6,183.2,338.4,183.6,338.9,185.5z M339.3,244.5c0,0.5,0,1.1,0,1.7c-1,0.1-1.6-0.1-2.1-0.4C337.9,245.4,337.9,244.3,339.3,244.5
	z M337.2,106.2c1,0.3,1.7,2,0.8,2.9c-2.6,0.2-1.3-1.5-2.1-2.5C335.8,105.3,337.2,107.7,337.2,106.2z M335.5,203.4
	c0.5,1.1,2.3,1.1,2.5,2.5c-1.3-0.1-3.1,0.3-3.7-0.4C333.9,203.9,335.2,204.1,335.5,203.4z M334.3,232.1c-1.3,0.1-2-0.5-2.1-1.7
	C333.6,230.2,334.6,230.5,334.3,232.1z M332.6,109.9c0.2,1.4-1.8,0.7-1.3,2.5c-0.6-0.4-0.9-1-0.8-2.1
	C331.7,110.7,331.6,109.8,332.6,109.9z M331.8,227.1c-0.3,0.4-0.5,0.9-0.4,1.7c-1.3,0.2-1.9-0.4-1.7-1.7
	C330.4,227.1,331.1,227.1,331.8,227.1z M331,119.1c-0.6,1.2-2.8,1.4-3.3,1.7C327,120,329.9,119.4,331,119.1z M324.3,64.6
	c0.9,0.1,0.2,1.8,0.4,2.5c-1.3-0.3-0.8-1.4-1.3-1.7C323.6,65,324.3,65.2,324.3,64.6z M325.2,112.4c-0.7,0.8-1.6-0.1-1.7-1.2
	C324.3,111.3,325.3,111.3,325.2,112.4z M323.9,253.7c-0.8-0.3-1.5-0.7-2.5-0.8C321.4,250.4,325.5,252,323.9,253.7z M321,84.6
	c0.4-0.6,1-0.9,2.1-0.8C323.2,85,321.6,85.2,321,84.6z M322.7,76.7c0,0.6,0,1.1,0,1.7c-0.7,0-1.4,0-2.1,0
	C321.2,77.7,321.6,76.9,322.7,76.7z M322.3,94.6c0.7-0.7-0.8,1.3,0,2.5c-1.3,0.3-0.8,0.3-2.1,0C320.8,96.1,321.6,95.4,322.3,94.6z
	 M319.3,242.9c0,0.6-0.1,1.2,0.4,1.2c-0.1,1-1.4,0.1-1.7,0C318.5,243.7,318.2,242.6,319.3,242.9z M317.7,241.2
	c-0.9,1.4-1.9-0.6-2.9-0.4C315.2,239.1,316.5,241.2,317.7,241.2z M313.9,91.2c-0.3,1.3-0.9-0.4-1.7,0c0-1.5,0.2-2.9,1.7-2.9
	C314.9,90.1,313.2,90.4,313.9,91.2z M313.9,240.8c0.1,1-0.1,1.6-0.4,2.1C311.9,243.2,312.6,240.2,313.9,240.8z M313.9,61.3
	c-1,1.5-1.5-1-2.9-0.4C311.5,59.2,312.7,61.3,313.9,61.3z M311.9,88.7c-0.4,0.2-0.7,0.4-0.8,0.8c-1.2-0.9-0.3-1.2-0.8-2.5
	C311.3,87.1,311.8,87.7,311.9,88.7z M308.1,120.7c1.6-1.6-0.7-3,0.8-4.2c0.3,1.4,0.1,2.6,2.1,2.5c-0.1,1.7-2.2,1.4-3.3,2.1
	C307.6,120.8,307.9,120.8,308.1,120.7z M311,265.7c-0.9,0.8-2.6,2.4-4.2,1.2c0.4-0.5,0.4-1.5,0.8-2.1
	C309.6,264.4,309.3,266,311,265.7z M307.9,231c0.6-0.1,1.2-0.2,1.8-0.3c-0.2,0.6-0.6,0.9-0.8,1.4C308.4,231.9,308.1,231.5,307.9,231
	z M307.3,205.5c0.5,0.1,0.7,0.7,1.2,0.8c-0.3,1.4-1.2,0.3-2.1,0C306.6,205.9,307.3,206,307.3,205.5z M302.7,28.9
	c-0.1,1.3,1.5,1.9,0.4,2.9c-1-0.1-1-1.1-0.4-1.7C302.7,29.6,301,28.8,302.7,28.9z M301.1,218.8c1.2-1,2.8-0.6,3.8-2.5
	c0.7,0.7,1.7,1,3.3,0.8c-0.1,0.5,0.1,0.7,0.4,0.8c-0.6,1.4-4.8,0-5,2.9c0.1,0.5,0.8,0.4,1.3,0.4c-0.2,0.8-1.6,0.3-1.3,1.7
	c-1.3,0.5-0.3-1.3-1.7-0.8C303.1,220.7,300.7,219.5,301.1,218.8z M303.1,240.8c-1.3,0.2-1.3-0.9-1.3-2.1c0.6,0,1.1,0,1.7,0
	C303.9,239.9,303,239.8,303.1,240.8z M302.7,253.3c0.9,0.4,1.4,0,2.5,0.8c0.3,3-2,3.3-2.5,5.4c0.5,1.8,2.4,2.3,3.7,3.3
	c-0.2,0.8-0.9,1-0.8,2.1c-0.5-2.5-2.9-1.6-4.6-2.1c0-1.8,2-3.3,0.8-5c-1.3,0.4-2.7,2.8-2.9,2.9c0,0.9-1-0.5-2.1,0
	c1.1-1,1.8-2.3,2.5-3.7C301.1,257.9,303.1,255.8,302.7,253.3z M294,40.5c0.9,0.5,2,2.1,4.2,2.5c0.3,1.4-0.5,1.7-0.8,2.5
	c-0.5-0.4-1.1-0.5-2.1-0.4c-0.2-0.9,0.6-0.8,1.3-0.8c-0.6-1.1-1.8-0.8-2.9-0.4C295,42.3,293.4,42.2,294,40.5z M296.5,240
	c-1,0-1.9,0-2.9,0c-0.4-0.4-0.1-1.5-1.3-1.2c0.3-1.2,1.6-1.5,2.5-2.1C294.8,238.4,296.1,238.7,296.5,240z M293.2,235.4
	c-0.6,0-1.1,0-1.7,0C291,234,293.8,233.5,293.2,235.4z M289.4,104.5c-0.9,0.1-0.2-1.5-0.4-2.1c1.4,0,1.4,1.4,2.9,1.2
	C291.3,105.1,289.5,102.8,289.4,104.5z M287.4,57.6c1.1,0.1,1.6,0.6,1.7,1.7C287.7,59.4,287.2,58.9,287.4,57.6z M288.2,44.3
	c0.4,1.2,0.6,0.5,1.7,0.4c-0.6,1.7-1.3,0.7-3.3,0.8c2.2-1.8-1.3-1.3-1.3-3.3c1.3-0.2,1.5-1.6,2.9-1.7
	C288.3,41.4,290.1,44.1,288.2,44.3z M284.4,38.9c0.8,0.3,1.5,1.4,0.8,2.1c-0.7,0.1-0.7-0.4-1.2-0.4C284,39.8,284.5,39.7,284.4,38.9z
	 M283.6,241.6c1.5,0.5,0.1,1.4,0.8,2.5C282.9,244.5,283.9,242.5,283.6,241.6z M282.4,186c1.1,0,0.8-0.7,1.7,0
	c-0.4,0.6-0.6,1.3-1.7,1.2C282.4,186.8,282.4,186.4,282.4,186z M281.9,30.6c0.1,1-0.1,1.6-0.4,2.1C280.3,32.6,280.7,30.4,281.9,30.6
	z M281.1,60.1c0.2,0.4,0.4,0.7,0.8,0.8c-1,1.8-1.2,2-0.4,4.2c-0.8,0.1-0.9-0.5-1.7-0.4c0.4-1.9-0.7-2.3-0.8-3.7
	C279.8,60.7,279.8,59.7,281.1,60.1z M279.4,266.2c-0.3,0-0.6,0-0.9-0.1c-0.1-0.3-0.1-0.6-0.2-0.8c0.2,0,0.4-0.1,0.3-0.4
	C279.1,265.1,279.3,265.6,279.4,266.2z M277.8,45.5c1.4,0.4,0,1.3,0.8,2.5c-0.7,0.1-0.7-0.4-1.2-0.4c-0.3,0.1-0.4,0.4-0.8,0.4
	C275.9,49,277.4,46.1,277.8,45.5z M277.1,198.3c0.2,0,0.3-0.1,0.4-0.3c0.1,0,0.2,0,0.3,0c0,0.8,0,1.7,0,2.5c-1.2,0-1.7-0.8-1.7-2.1
	C276.5,198.3,276.8,198.4,277.1,198.3z M275.7,190.4c-0.1-0.1-0.3-0.2-0.4-0.3c-0.4-0.1-0.9-0.1-1.3-0.2c0.3-0.4,0.7-0.6,1.3-0.7
	C275.5,189.6,275.7,189.9,275.7,190.4z M276,255.6c-0.1,0.2-0.2,0.4-0.3,0.6c-0.2-0.2-0.6-0.3-1-0.4
	C275.2,255.7,275.6,255.7,276,255.6z M272.4,54.7c0.2,1.1-1.5,0.4-1.7,1.2C269.5,55.3,271.7,53.5,272.4,54.7z M272.4,55.5
	c1.3-0.2,1.1,1.1,2.1,1.2c-2.3-0.1-2.8,1.1-2.1,3.3c-1.2-0.4-1.1,0.6-2.1,0.4C270.7,58.5,271.1,56.6,272.4,55.5z M271.6,98.7
	c-1.4,0.1-1.7-1.9-1.3-2.5C271.7,96.2,272.3,97.9,271.6,98.7z M270.7,85c0.3,1.2-0.6,1.1-0.4,2.1C269.1,87,269.2,84.6,270.7,85z
	 M269.5,51.8c-0.2,1.3,0.9,1.6,0,2.5c-0.3-1.1-1.4-1.4-1.7-2.5C268.4,51.8,268.9,51.8,269.5,51.8z M259.9,232.5
	c0.6-1,1.8-0.4,2.1-0.8c1.1,0.4,0.7,2.4,2.1,2.5c-0.5,1.3-2.6,1-2.1,3.3c-0.7-1-2.4-0.9-4.2-0.8c0.1-2.4-0.5-4,0.8-5.8
	C259.2,231.2,259.5,231.9,259.9,232.5z M257.4,55.9c0.8,0.8-0.2,0.8,0,2.1c-1.1-0.1-1.6-0.6-1.7-1.7
	C256.5,56.4,256.6,55.8,257.4,55.9z M257,67.1c0.7,0.1,1,0.7,0.8,1.7c-0.8,0.1-1.4,0.3-1.7,0.8c-0.7-0.1-0.9-0.7-0.8-1.7
	C256.4,67.2,257,68.6,257,67.1z M254.5,99.6c1.2,0.3,2.1,0.9,2.9,1.7c-1.1,0.8-2.7-0.8-3.7-0.4C253.8,100.2,254.4,100.1,254.5,99.6z
	 M253.3,98.3c0.1-1.5,2.7-0.6,3.7-1.2C255.8,98.5,255.3,97.9,253.3,98.3z M255.4,73.4c-0.2,1.6-1.4,1.1-2.1,0.4
	C253.2,72.9,254.8,73.6,255.4,73.4z M251.6,93.7c1.3-0.3,0.8,1.2,2.1,0.8c-0.1,0.5-0.8,0.4-1.2,0.4c0,0.5,0,1.1,0,1.7
	C251.2,96.6,251.1,94.3,251.6,93.7z M250.8,57.6c1.4,0.9-0.7,1.7-0.8,2.5c-0.5-0.2-0.8-0.5-0.8-1.2
	C249.7,58.4,250.7,58.4,250.8,57.6z M247.1,86.7c1-0.1,1.6,0.1,2.1,0.4c0.2,1.4-1.3,1.2-1.7,2.1c0.4,0.7,1.8,0.5,2.5,0.8
	c-0.8,1.4-1.9,2.5-4.2,2.5C246.1,89.6,247.1,89.2,247.1,86.7z M247.5,249.2c0,0-0.1,0-0.1,0c0,0,0,0,0,0
	C247.4,249.2,247.5,249.2,247.5,249.2z M244.9,114.5C244.9,114.5,244.9,114.5,244.9,114.5C245,114.5,245,114.5,244.9,114.5
	c0,0-0.1,0-0.1,0C244.8,114.5,244.9,114.5,244.9,114.5z M244.2,96.2c0,1.6,0.3,3.4-1.7,2.9C242.7,97.8,242.6,96.2,244.2,96.2z
	 M237.5,206.7c-0.7-0.1-0.9,0.5-1.7,0.4c0-0.8-0.3-1.4-0.5-2c1.7,0.5,3.3,0.9,5.1,1.2c-1.6,1.8-0.4,4.7-2.4,6.6
	c-1.8-0.3-2.1-2.1-3.7-2.5c1.2-0.9,2.1-0.8,2.1-2.9c0.7,0.1,0.9,0.7,0.8,1.7c0.8,0,0.5-1.1,1.7-0.8
	C238.6,207.5,237.6,207.6,237.5,206.7z M236,148.1c0.1,0,0.2,0,0.3,0c0,0,0,0,0,0.1C236.2,148.1,236.1,148.1,236,148.1z
	 M238.3,195.5c-0.9,0.1-1.7,0.1-1.7-0.7c0.6,0.1,1.1,0.2,1.7,0.2C238.3,195.2,238.4,195.3,238.3,195.5z M235.4,25.6
	c0.4,0,0.8,0,1.3,0c0,0.6,0,1.1,0,1.7C235.6,27.4,235.3,26.7,235.4,25.6z M234,185.8c0.6,0.1,1.1,0.2,1.7,0.3
	c-0.6,0-1.3,0.1-1.9,0.1C233.9,186.1,234,185.9,234,185.8z M223.8,23.9c3.4,0.4,9,0.1,10,5c-1.3-0.2-1.1,1.4-2.1,0.4
	c0.2,1.9-2.3,2.3-4.6,1.7c-0.2,0.7,0.3,0.8,0.8,0.8c-0.1,0.6-1,0.3-1.7,0.4c0.4-2.1-1.2-2.1-2.5-2.5c0.1-1.4-0.5-3.6,1.2-3.3
	C223.9,25.8,223.4,25.2,223.8,23.9z M232.8,88.4c-1.2-0.1-2.4-0.2-3.6-0.4c0.5-0.6,1.3-0.8,1.7-0.1c1.4-0.9,0.3-2.9,0.8-4.2
	c1.5-0.4,0.8,1.4,1.7,1.7C231.5,86,232.6,87.2,232.8,88.4z M232.1,126.5c0.2,1.3-1.1,1.1-1.2,2.1c-0.9-0.1-0.1-1.8-1.3-1.7
	c1-0.7,0.3-0.7,0.8-1.7C231.2,125.5,230.8,126.9,232.1,126.5z M225,78.4c1.1,0.4,1.4,1.6,2.5,2.1c-0.8-0.1-1.8,1-2.1,2.5
	C223.8,82.2,224.9,78.9,225,78.4z M224.2,76.3c0.2-1.3,1.8-1.2,1.7-2.9c1.1,1.2,3.1,1.3,2.9,3.7C227.1,78.7,225.9,76.9,224.2,76.3z
	 M229.2,82.1c1-0.1,0.2-2,1.7-1.7c0.2,2-1.5,2.1-3.3,2.1C227,81.3,229.5,80.5,229.2,82.1z M224.2,81.3c0.1,1.8-0.7,2.2-2.5,2.9
	c-2.8-0.5-0.9-2.9-0.4-4.6C222.7,79.7,222.9,81.1,224.2,81.3z M219.6,21.8c0.4,2.2,1.5,2.6,0.8,5c-1.4-0.3-1.8-1.5-3.3-1.7
	c0.1-1,0.9-1.8-0.4-2.1C217.6,22.6,218.6,22.2,219.6,21.8z M211.3,55.5c1.3,0.4,2.5-0.3,3.7,0.8c0,0.7,0,1.4,0,2.1
	C212.7,60.3,211.1,57.7,211.3,55.5z M209.1,108.3c2.8,0.3,5.5,0.5,8.2,0.7c0,0.2,0.1,0.4,0.1,0.6c-0.3,0.5-0.7,0.9-1.2,1.3
	c-2.4-0.6-4.9-1.2-7.3-1.9C208.9,108.8,209,108.5,209.1,108.3z M216.9,194.6c-0.4-0.2-0.8-0.3-1.3-0.5c0.1-0.3,0.5-0.4,1-0.3
	C216.7,194.1,216.8,194.3,216.9,194.6z M215.1,191.8c0.1,0.9-1.5,0.2-2.1,0.4c0-0.4-0.1-0.7-0.2-1c0.6,0.1,1.3,0.3,2,0.4
	C214.7,191.7,214.7,191.7,215.1,191.8z M208,58.4c0.1,1-1.2,0.5-1.3,1.2c-1-0.4-1.1-1.7-1.2-2.9C207.6,56,206.5,58.5,208,58.4z
	 M206.2,174.1c-0.1,0-0.3,0-0.4,0c0-0.1,0.1-0.1,0.1-0.3C206,174,206.1,174.1,206.2,174.1z M205.1,37.6c-1.6,0.4-1.3-0.9-2.1-1.2
	C203.7,35.2,205.4,36.5,205.1,37.6z M203.9,172c0,0.1,0,0.1-0.1,0.2c-0.1-0.1-0.3-0.3-0.4-0.5C203.6,171.9,203.8,171.9,203.9,172z
	 M203,47.6c-0.7,1.8-3-0.2-2.5-2.1C201.5,45.8,201.4,47.1,203,47.6z M197.6,83.3c3.4,0.3,4,4.6,1.2,5.8c-0.2-1.6,0.8-2,1.2-2.9
	C199.3,84.4,197.4,86.2,197.6,83.3z M197.6,130.7c1.7,0.4,1,1.9,0.8,3.3c-0.7-0.2-1.7-0.2-2.1-0.8
	C196.5,131.7,198.8,132.6,197.6,130.7z M198.5,67.6c0.5-0.9,1-1.8,1.2-2.9c1,0.8,1.9,1.9,1.2,3.3C199.9,68,198.9,68,198.5,67.6z
	 M200.5,51.8c0.3,0.2,0.7,0.4,1.3,0.4c0.5,2-1.7,1.4-1.7,2.9c-0.8,0.4-0.3-2.4-0.8-0.8C198.5,53.8,200.3,52.6,200.5,51.8z
	 M201.8,173.9c0,0.4,0,0.6,0.2,0.8c-0.3,0-0.6,0.1-0.9,0.1c0.2-0.2,0.4-0.4,0.7-0.5C200.7,174.4,201.1,173.8,201.8,173.9z
	 M200.9,63.8c0.4-0.5,0.4-1.5,0.8-2.1c0.5,0.1,0.7,0.7,1.2,0.8C202.7,63.4,201.9,63.7,200.9,63.8z M200.5,27.3
	c-1.7,0.2-2.8-0.2-3.7-0.8C197.5,25.6,200.6,25.9,200.5,27.3z M197.2,34.3c-1.1,0.3-0.8-0.8-1.7-0.8
	C195.8,31.5,198.6,32.7,197.2,34.3z M197.6,72.1c-0.4,1.5-3.1,1.5-3.7,0.4C195.3,70.7,195.8,73,197.6,72.1z M193.5,83.3
	c-0.7-0.2-1.7-0.2-2.1-0.8c0.2-0.7,2.2-1.7,3.7-0.8C195,82.7,193.2,81.9,193.5,83.3z M195.5,95c0.2,0.9,0.3,0.9,0.2,1.4
	c-0.3-0.3-0.6-0.6-1-0.7c-0.1,0-0.2-0.1-0.3-0.1C194.6,95.1,195,94.8,195.5,95z M194.3,179.3c0.1,0,0.3,0,0.4,0
	c0.2,0.8,0.5,1.7,0.8,2.4c-0.3,0.1-0.7,0.1-1.2,0.1C194.3,181,194.3,180.1,194.3,179.3z M193.9,177.2c-0.3-0.2-0.7-0.4-1.2-0.4
	c0.8-0.6,0-2.7,0.8-3.3c2,0.2,1.2,1.3,1.6,2.6c-0.2,0.1-0.3,0.2-0.4,0.4C194.3,176.7,194,176.9,193.9,177.2z M194.3,126.5
	c-3-0.8,1.3-3.6,1.7-0.8C195.2,125.8,193.9,125.3,194.3,126.5z M191.8,43c1.1-0.3,0.8,0.8,1.7,0.8c-0.7,0.4-1.1,1.1-2.1,1.2
	C192.3,44.3,191,43.8,191.8,43z M190.1,57.2c-1.6,0.6-0.1-1.9-1.7-1.2C189.1,54.1,190.2,56,190.1,57.2z M191.4,80
	c-0.4,1.4-2.2,1.4-2.1,3.3c-0.6-0.7-0.6-2.2-0.8-3.3C189.4,80,190.4,80,191.4,80z M188.1,55.5c-0.1,0.5-0.7,0.7-0.8,1.2
	c0.3,0,0.6,0,0.8,0c-0.1,1-1.4,0.1-1.7,0C186.8,56.1,186.7,55.1,188.1,55.5z M186.8,124.1c-0.9-0.2-0.8,0.6-0.8,1.2
	c-0.3-0.2-0.7-0.4-1.3-0.4c0.4-1,0.1-2.6,1.7-2.5C186.4,123.1,186.9,123.3,186.8,124.1z M178.1,40.1c1.9,0.5,3.6,1.2,5,0.4
	c2.1,1.3,6,5.6,2.5,7.5c-0.3-2.4-0.7-4.5-2.1-5.8c-1.5,0.1-1.5,1.8-3.7,1.2C180,41.5,177.5,42.4,178.1,40.1z M180.2,152.7
	c-0.4,0.4-1,0.3-2.5,0.4c-0.6-0.6-0.6-2.3,0-2.9C179,150.6,178.9,152.4,180.2,152.7z M179.3,144.4c0.4-0.1,0.7,0.1,0.9,0.2
	c-0.1,0.8,0,1.7,0.3,2.6C179.1,147.1,178.6,145.3,179.3,144.4z M183.4,154.4c0.1,0.6,0.2,1.3,0.5,1.9c-1,0.3-2.1,0.5-3.3,0.6
	c0.1-0.8-0.1-1.3-0.8-1.2C180.6,154.9,182.7,155.3,183.4,154.4z M182.2,154c-0.1-1,1.2-0.5,1.2-1.2c0,0,0,0,0,0
	c-0.1,0.5-0.2,1-0.1,1.6C183.2,154,182.7,154,182.2,154z M177.7,87.1c-0.7,1.5-1.1-0.7-2.1-0.4C176.2,84.8,176.9,86.7,177.7,87.1z
	 M176.4,40.1c-0.8,0.7,0.1,1.3,0.8,1.7c-1.4,0.6-1-0.4-0.8,2.1C175.2,43.7,174.2,40,176.4,40.1z M176,167.7c0.1,0.8-0.5,0.9-0.4,1.7
	c-0.4,0-0.8,0-1.3,0C174.1,167.9,175.1,167.8,176,167.7z M172.7,41.4c1.3-0.2,1.8,0.4,1.7,1.7c-1.3,0.3-0.8,0.3-2.1,0
	C172.6,42.7,172.7,42.1,172.7,41.4z M172.7,74.2c1,0.3-1.1,1.1-2.1,0.8c0.4-0.6,0.6-1.3,1.7-1.2C171.8,74.7,171.8,74.7,172.7,74.2z
	 M170.6,71.3c1.1-0.1,1.1,0.9,1.2,1.7c-0.5-0.1-0.7,0.1-0.8,0.4C170.1,72.7,170.4,72.4,170.6,71.3z M170.1,116.4
	c-0.3,0.2-0.7,0.1-1.1-0.1C169.4,116.3,169.7,116.4,170.1,116.4z M165.1,101.8c-0.5,0.4-0.8,1.2-1,2.1c-1.7-1-1.5-3.8-2.7-5.2
	C162.6,99.8,163.7,101,165.1,101.8z M163.1,161.4c-0.3,1-2.6,1.1-3.3,0.4C159.8,160.6,162.5,160.9,163.1,161.4z M160.4,108.1
	c0.9-0.9,1.6-0.2,3.1-0.7c0,0.2-0.1,0.3-0.1,0.5C162.5,108,161.5,108,160.4,108.1z M162.3,141.1c0.3,0.2,0.7,0.4,1.3,0.4
	c0,0.7,0,1.4,0,2.1C162.2,143.7,161.4,142,162.3,141.1z M163.1,129.5c1.3-0.2,1.3,0.9,1.2,2.1C163.1,131.7,163,130.6,163.1,129.5z
	 M162.3,104.1c0.6,0,1.3,0,1.9,0c0,0.4,0,0.8,0,1.2c-0.6-0.2-1-0.3-1.4,0.9c-1.1,0-0.7-1.5-1.2-2.1c-2.3,1-2.4,2.4-2.5,4.1
	c-0.6,0.1-1,0.4-1.2,0.9c-1.5-0.5-1.4-3.1-3-2.1c0.2-0.8,1-4.5,2.1-5.8c1.5,0.5,1.2,3,2.9,3.3c1.5,0.2,0.2-3.4,0-2.5
	c-1-0.4,0.9-1.3,1.7-1.2C161.1,102.5,162.3,102.8,162.3,104.1z M155.6,120.6c-0.2,0.1-0.5,0.2-0.8,0.2c0,0,0,0,0-0.1
	C155.1,120.6,155.4,120.6,155.6,120.6z M159,73.8c0.3,0.2,0.7,0.4,1.3,0.4c-0.3,1.3,0.4,1.5,0.4,2.5C159.3,76.5,158.2,74.8,159,73.8
	z M157.3,46.4c0.8,0.3,1.5,1.5,0.8,2.1C156.9,48.5,156.9,46.8,157.3,46.4z M156.1,92.5c1-0.2,0.9,0.8,2.1,0.4c0.5,1.8,0.5,4-0.8,5
	c-2.2-1.7-1.1-1.8-2.1-4.2C155.5,93.3,156.2,93.3,156.1,92.5z M155.2,55.9c-1.1-0.1-1.6-0.6-1.7-1.7
	C154.7,53.3,156.1,54.7,155.2,55.9z M155.2,104.5c-1.5-0.3-1.6,0-2.5-1.3C153.3,102.3,155.5,103.3,155.2,104.5z M154.8,154
	c-0.2,1-1.6,0.9-2.5,1.2c-0.3-1-0.6-1.9-0.4-3.3C153.1,151.9,151.9,154.7,154.8,154z M153.2,85c-1.1,0.9-3.2,0.4-2.5-1.7
	C152,83.4,153.2,83.6,153.2,85z M149,156.1c-1.3,0.1-1.4-1.1-1.7-2.1c0.7,0,0.9-0.5,1.7-0.4c0.5,0.6,0.4,1.9,1.7,1.7
	C151,156.3,148.7,154.9,149,156.1z M148,178c0,0.2,0,0.3,0,0.5c-0.1,0-0.1-0.1-0.3,0C147.8,178.3,147.9,178.1,148,178z M149.8,106.6
	c0.2-1.3-0.8-1.3,0-2.1C150.9,104.7,151.8,106.7,149.8,106.6z M151.5,55.9c-1.4,1.2-3.6,0.8-3.7-1.2c1,0.2,0.9-0.8,2.1-0.4
	C150.1,55.1,150.6,55.7,151.5,55.9z M149.4,41.4c-0.9,1.5-2.1,1-3.3,0.4C146.9,40.4,147.8,41.5,149.4,41.4z M145.7,185.1
	c-1,0-1.9,0-2.9,0c0.3-0.5,0.5-1.1,0.4-2.1C144.6,183.2,145.7,183.5,145.7,185.1z M143.8,210.1c0,0.1-0.1,0.2-0.2,0.3
	c-0.3,0.1-0.6,0-1,0c0-0.1,0-0.2-0.1-0.3C143,210.1,143.4,210.2,143.8,210.1z M144.8,93.3c-0.1,0.5-0.7,0.4-1.2,0.4
	c0.3-1.3,0.3-0.8,0-2.1C145.2,91,143.8,93.4,144.8,93.3z M144,91.2c-2.4,0.3-1.2-3-3.7-2.5c0-1.3-1-2.7,0-3.7
	c0.1,1.5,0.9,4.2,3.7,4.2C143.2,90,144,90.2,144,91.2z M142.4,243.9c-0.5,0.1-1,0.1-1.4,0.2c0.2-0.2,0.5-0.5,0.7-0.7
	c0.2,0.2,0.4,0.4,0.5,0.4C142.3,243.9,142.3,243.9,142.4,243.9z M141.1,65.9c1.1,1,1.5,2.6,2.5,3.7c-0.8,1.4-3.8,2.2-2.9,2.9
	c-2.9,1.4-5.2-1.5-5.4-4.2C137.3,65.8,138.5,67.2,141.1,65.9z M137.7,237c0.2,0,0.4-0.1,0.6-0.1c0.4-0.1,0.6-0.4,0.7-0.8
	c0.2,0,0.4,0,0.8,0.2c0,0,0,0.1,0,0.2C139.3,237,138.5,236.8,137.7,237z M139.1,245.3C139.1,245.3,139.1,245.4,139.1,245.3
	C139.1,245.4,139.1,245.4,139.1,245.3C139.1,245.4,139.1,245.3,139.1,245.3z M137.5,237c-0.3,0.1-0.6,0.2-0.9,0.5c0-0.1,0-0.2,0-0.3
	C136.8,237.1,137.2,237.1,137.5,237z M132,75c1.3-0.3,0.8,1.1,2.1,0.8c-0.3,0.8-1.1,1.1-2.1,1.2C132,76.4,132,75.7,132,75z
	 M130.3,120.3c0.6-1,2.1,0.7,2.1,1.7c-0.9-0.1-1.3,0.3-1.3,1.2c-0.8-0.2-0.8-1.2-2.1-0.8c0.2-1.6,1.6,0.3,2.5-0.8
	C131.3,121,130.9,120.5,130.3,120.3z M129.1,114.9c-0.1-1.4,2.4-1.8,2.1,0C130.5,114.9,129.8,114.9,129.1,114.9z M129.5,103.3
	c-0.9-0.4,0.5-1.9,0-3.3c1.1,0.6,1.8,1.5,2.5,2.5C130.9,102.5,130,102.7,129.5,103.3z M129.5,77.1c-0.9,0.9-0.1,1.8,0.4,2.5
	c0.9-0.1,0.8-1.1,1.7-1.2c1.2-0.5-1.8,1-1.2,2.5c-0.6,0-1.1,0-1.7,0c1.2-1.6-0.6-1.6-1.2-3.3C128.6,77.9,128.5,76.9,129.5,77.1z
	 M127.8,116.6c0.4-0.6,0.6,0.1,1.7-0.4c-0.6,1.9,1.3,2.4,0.4,3.3c-1.2,0.4-0.7-0.9-0.8-1.7c-1.6-0.5-0.8,1.4-2.5,0.8
	C126.6,117.8,128.8,117.1,127.8,116.6z M116.6,168.5c0.3,1.1-2-0.3-1.7,0.8c0.2-2.7-3.4-4.6-1.7-7.5c2.3-0.1,2.4,0.9,3.7,0.8
	c-0.5,1.8-1.6,3.1-2.1,5C115.2,168.2,115.8,168.5,116.6,168.5z M112.4,133.2c0.2-1.3-0.8-1.3,0-2.1c1.1,0,1.6,0.6,1.7,1.7
	C113.4,132.7,113.2,133.3,112.4,133.2z M115.8,145.8C115.8,145.8,115.8,145.7,115.8,145.8c0.1,0,0.2,0,0.3,0.1
	C115.9,145.8,115.9,145.8,115.8,145.8z M111.2,127.4c0.4-1.3,1.3-2,2.5-2.5c-0.7-1.8-3.6-1.7-3.7-2.9c-1,0.6,0.3,2.9-1.7,1.7
	c0.6-1.3,2-1.9,2.5-3.3c1.7,2.1,3.4,1.3,5.4,0.8c0.6,0.5,0.4,1.8,0.4,2.9c1.5-0.7,2-2.4,2.9-3.7c1.3,0.3,1.5-0.4,2.5-0.4
	c0.6,1.5,1.2,2.9,1.2,5C118.8,123.9,116.3,128.9,111.2,127.4z M105.4,191.8c0-0.7,0.6-0.5,1.1-0.3c0.1,0.4,0.3,0.8,0.5,1.1
	c-0.3,0.3-0.9,0.3-1.1,0.8c-0.1-0.2-0.2-0.3-0.2-0.5C105.8,192.4,106.2,191.8,105.4,191.8z M102.5,127c-2.1,0.8-2.5-2.5-3.3-0.4
	c-0.4-2.5,2.1-5.6,5-6.2c0.4,0.3,0.4,1,1.2,0.8c-0.4,1.2-1.7,1.4-2.9,1.7C103.4,124.7,102.9,124.8,102.5,127z M102.5,168.9
	c-0.7,0.1-0.9-0.5-1.7-0.4c0.6-0.3,0.6-1.3,1.7-1.2C103.2,168.1,102.4,167.8,102.5,168.9z M93.4,261.3c-0.3,0.4-0.3,1.1-0.3,1.8
	c-0.1,0-0.1,0,0,0.1c0,0.2,0.1,0.4,0.1,0.6c-1.3,0.5-3.9,0.2-4.9,0.6c-1-0.1-0.1-1.4,0-1.7c-2,4.7-5.5,1.8-8.7,2.1
	c1.3-0.7,3.7-3.4,0-3.3c0.1,1.9,0.8,2.8-1.2,2.1c1.8,1.3-2.5,0.4-2.1,2.1c-0.3-1.1-2.2-0.6-2.9-1.2c-0.6-0.9,1.1-1.6,0-1.7
	c0.1-1.1,0.7,0.6,1.7,0c1.1,0.3-0.3-2,0.8-1.7c-0.1-0.6-1-0.3-1.7-0.4c0.2,0.3,0.4,0.7,0.4,1.2c-0.4-0.3-0.4-1-1.3-0.8
	c1.4-1.1,2.2-2.8,4.1-3.3c0.1,0.5-0.1,0.7-0.4,0.8c0.2,0.5,0.5,0.9,1.3,0.8c-0.4,0.6-1.3,0.6-2.1,0.8c0.1,1,0.9,2.1-0.4,1.2
	c0,0.4,0,0.8,0,1.2c1-0.1,0.8-1.4,2.1-1.2c-0.2-0.4-0.4-0.7-0.8-0.8c0.5-0.6,1.4-0.8,2.5-0.8c0-0.3,0-0.6,0-0.8
	c-0.6-0.6-1.5-1.7-1.4-3.2c4.1,1.5,8.2,2.1,12.8,2.3c1.2,0,0.7-3.5-0.2-5.9c0.3-0.2,0.8-0.8,0.8-1c1.1,0.4-0.8,1.5,0.8,1.7
	c0.5-0.1,0.2-0.4,0-0.4c0.1-0.1,0.2-0.2,0.4-0.2c0.2,0.4,0.5,0.6,0.8,0.7c-0.1,0-0.2,0-0.3-0.1c1.8,0.9-0.1,2.2-1.2,2.5
	c0.1,0.9,1,0.9,2.1,0.8c-1,0.5,1,1.7-0.8,1.7c0.5,0.5,1.9,0.6,3,0.4c0.4,0.8,0.8,1.5,1.3,2.1c-1.1,0.1-2.2,0.1-3.3,0.3
	C93.9,260.7,93.6,260.9,93.4,261.3c0-0.1,0-0.1,0-0.1C93.3,261.2,93.4,261.2,93.4,261.3z M70.9,286.1c-0.3,0.7-2.2,1.9-1.2,2.5
	c-0.4,1.2-0.6,0.5-1.7,0.4c1.4,1.3-1.6,0.1-0.4,1.3c-0.4,0.7-3.5-0.9-2.5-1.7c-0.6,0.2-1,0.6-1.7,0.8c-0.7,0.5,3.2-3.2,4.2-2.5
	c0.3-0.7-0.5-1.1,0.4-2.5c1.4,0.7,1.9-1.2,3.7,0c-0.4,0.6-1,0.9-2.1,0.8C70,285.6,70.4,285.9,70.9,286.1z M66.3,299.4
	c-1,1.7-0.5-1.3-1.2-1.3C66.5,296.4,66.1,299.5,66.3,299.4z M57.6,308.1c0.3,1.3,0.3,0.8,0,2.1c-0.9-1.2-1.2-3-3.3-2.9
	c1.4-1.2,3.3-0.3,5-1.7c-0.5-0.5-0.2-0.7,0-1.3c-1.4,0.7-1.3,2.2-1.7-0.8c-0.9,1.4-1.4,1.1-3.7,2.1c-0.1-0.7,0.4-0.7,0.4-1.3
	c-2.3,0.5-2.9-0.7-4.6-0.8c-0.6,0.6-0.7,1.8-0.8,2.9c-2.6-1.4-3.8,1.5-6.6,2.1c-0.4,1.3,1.3,0.6,1.7,1.3c-0.6,1.7-2.5,2.3-2.9,4.1
	c-1.9-0.5-1.6,1.1-3.3,0.8c0.7,3.2-1.2,3.8-0.4,6.6c-2.4-0.2-1.8,0.1-1.7,2.1c-1.8-1.1-1.6-2.1-3.3-1.7c0.3-0.4,0.5-0.9,0.4-1.7
	c0.5-0.5,0.6-0.2,1.2,0c0.1-1.9-1.5-2.1-2.1-3.3c0.6-0.3,0.1-1.6,0.8-1.7c0-1.1-1.4-0.8-2.5-0.8c0-0.6,0-1.1,0-1.7
	c1.2,0.2,2.3,0.5,2.5,1.7c0.8-1-0.6-2.2,2.1-1.7c0-1.1-0.7-0.8,0-1.7c-1,0.5-1.3-0.2-1.7,0.4c-0.6-0.5-0.8-1.4-0.8-2.5
	c0.5,0.1,0.7,0.7,1.2,0.8c-0.2-0.8-1.2-0.8-0.8-2.1c-0.4-1-1.9-0.9-3.3-0.8c-0.1-1.3,0.1-2.8-1.3-2.9c0.8-1.5,0.5-1.5,0.4-3.7
	c1.4,0,1.4-1.4,2.9-1.2c-1.1-1.9-1.5-4.4-1.7-6.2c1.1-0.5,1.3-0.4,0.8-1.7c1.3-0.5,0.3,1.3,1.7,0.8c0.1,1,0.1,2-0.4,2.5
	c0.8-0.7,1.9-1.1,2.1-2.5c1.2,0.4-0.6,1.1,0.4,1.7c2.2-1.5,1.1,0.2,2.9-0.4c-0.7-0.3-0.6-1.3-1.7-1.3c0.7-1.3,2-0.6,2.9,0
	c-0.6,1.5,1.2,2.6-0.4,4.2c0-1.9-1.1,0-1.2-2.1c-0.7,0.4-0.7,1.5-1.7,1.7c0.1,0.9,1.1-0.5,2.1,0c-0.9,1,0.7,2.1-0.8,2.1
	c2.3,0.4,0.7,2.2,1.7,3.7c0.3-1.8,2-2.1,3.3-2.9c1.5,0.5,0.3,3.3,0.8,3.3c4.7,3.7,7.7-4.1,12.5-2.1c1-3.5,4.6-3.7,5.4-5.4
	c1.3,0.4-0.5,1.1-0.4,1.7c1.8-0.6,1.3,3.4,3.3,3.7c-0.8,1.2-2.9,1.2-3.3,2.9c0.1,0.9,1.1-0.6,1.7,0.4c-0.8,3.6,1.6,2.8,3.3,5
	c-0.8,0.8-2.8,3.4-3.7,0.8c0.6,0,1.1,0,1.7,0C60.6,307.4,60.3,307.6,57.6,308.1z M60.9,344.7c-0.8,1-1.2,2.4-3.3,2.1
	c0.3-0.4,0.5-0.9,0.4-1.6C59.4,344.6,59.4,345.2,60.9,344.7z M56.8,310.6c-0.1,0.6-1,0.4-1.7,0.4c0.2-0.9,0.9-1.3,1.2-2.1
	C57.8,309.1,55.6,310.8,56.8,310.6z M48,344.7c-0.4,0.9-3,0.6-2.5-0.8c4.1,0,1.2-4.7,4.6-5c0.2,1.1,1.2,1.3,1.2,2.5
	c-2.4,0.1-2.7,2.3-4.2,3.3C47.5,344.7,47.8,344.7,48,344.7z M45.1,332.2c1.3-0.2,1.9,0.3,2.9,0.4c0,0.7,0,1.4,0,2.1
	c0.5-0.6,2-0.6,2.5,0c-0.2,0.8-1.2,0.8-0.8,2.1c-0.4,0-0.3-0.5-0.4-0.8c-1,1.5-1.4-1.4-2.1,0c-0.4-0.1-0.4-1.1,0-1.3
	c-0.2-0.5-2-0.1-2.9-0.8C44.3,333,45.4,333.3,45.1,332.2z M44.3,329.3c0.3-0.8,1.1-1.1,2.1-1.2C46.4,329.3,45.2,330.2,44.3,329.3z
	 M45.6,347.6c0.4,1.2,0.4,1.3,0,2.5c-1,0-1.2-0.7-2.5-0.4C42.9,348,43.7,347.2,45.6,347.6z M36.4,330.1c-0.4,1.2-0.6,0.5-1.7,0.4
	c0-0.4,0-0.8,0-1.3C35.9,329,35.6,330.1,36.4,330.1z M31.8,322.2c-0.4,1.1-1.5-0.4-2.1-0.4c0.9-0.8,0-1.8-0.8-2.1
	c0.4-1,1.7-1.1,2.9-1.3c0.8-1.1,0.1,1.1-1.2,0.4C31.8,320.2,30.5,321.5,31.8,322.2z M31,238.7c0.4-1.1,0.9,1,1.7,0.8
	c-0.1,1-1.8,0.2-2.1,0c0-0.4,0.5-0.3,0.8-0.4C31.5,238.8,31.3,238.7,31,238.7z M33.1,258.7c1.1-1.1,3.4-3.2,5.4-2.1
	c-2,1.3-4.2,1.9-3.7,6.7c-0.5,0.1-1.6,1.7-2.1,0.4c-1.2,0.4,1,0.6,0.4,1.7c-1.5-0.1-2,0.8-3.3,0.8C28.5,262.9,34.2,261.8,33.1,258.7
	z M33.5,239.5c-1.1-1,1.8-1,2.1,0c-0.5,0.6-1.4,0.8-2.5,0.8c0.1-0.5,0.7-0.6,0.8-1.2C33.6,239.1,33.5,239.3,33.5,239.5z M38.9,289
	c-1.3,2.4-2.7,0.1-2.5-1.2C36.7,287.1,38.4,288.5,38.9,289z M31,277.8c1.2,0.4-1.2,0.3-0.4,1.7c-0.9,0.2-1.1-0.3-1.7-0.4
	C29,278,30.5,278.4,31,277.8z M40.2,263.2c1.1-0.1,1.8,0.1,1.7,1.2C41.2,265.1,39.8,264.7,40.2,263.2z M39.7,221.7
	c1.9,0.4,0.7,1.3,0.4,2.5C39.2,224.1,40,222.4,39.7,221.7z M36.8,219.6c0.3-1.3,1.6-1.4,2.1-2.5c-1.4,0.3-0.2-2.1,1.7-2.1
	c-0.9-0.5-2.2-0.6-2.9-1.3c0.6-1,1-1.6,0.4-2.9c0.4-0.1,0.4,0.2,0.4,0.4c0.1,0.5,2.6-0.2,2.1-1.7c2,0.6,2.3-0.9,4.2,0
	c-0.2,1.2,1.7,3.1-1.7,3.3c-0.1,1.9,0.8,1.1,1.2,2.9C43.1,218.7,40.8,220.7,36.8,219.6z M42.2,186.8c0.2,1.4-2.3,0.2-2.5,1.2
	c-0.3-1.3,0.2-2.6,1.7-3.3c0.5,0.1,0.2,0.4,0,0.4C43.1,185.9,40.4,186.1,42.2,186.8z M58,214.6c0.6,0.5,1.7,0.5,2.1,1.3
	c0.3,2.4-2.6,1.5-2.9,3.3C55.4,217.2,58.6,216.7,58,214.6z M59.3,199.7c0.3-1.5,2.6-1,3.7-1.7c1,1.1-0.2,3.6,0.4,4.2
	c-0.9,0.1-2.3,1.1-4.1,0.4C59.6,201.1,61.2,200.2,59.3,199.7z M65.5,193.4c-0.4,1.4-2,1.6-2.1,3.3c-2.9-0.1-2.5-3.9-2.1-2.9
	c1.7-0.2,1.5-2.4,3.3-2.5C64,192.8,64.5,192.8,65.5,193.4z M68.4,187.2c0.6,0,1.1,0,1.7,0c-0.9,2,1.2,5.6-2.5,5.4
	c0-1.2-0.1-2.3-1.7-2.1c0-0.6,0.1-1.2-0.4-1.2c0.1-0.5,0.4-0.2,0.4,0c0.7,0.1,0.8-0.3,0.8-0.8c0.9,0.1,0.8,1.1,1.3,1.7
	C69.2,189.4,68.5,188.6,68.4,187.2z M75.1,195.9c1,2.4,2.9-0.9,3.3,2.1c-1.4,0.3-2.4,0.9-2.1,2.9c-1-0.1-1.7,0.2-2.1,0.8
	c-0.7-0.3,0.3-2.1,1.3-2.1C74.7,198.7,74.4,197.3,75.1,195.9z M79.6,211.7c1-1,1.7-0.2,2.5-2.9c1.5,0.3,2.5,1,3.6,1.7
	c0,0-0.1,0-0.1,0c-1.1,0.1-0.9,2.5-0.3,4.6c-0.8,0.6-1-1.1-1.6-2.5c-1.8,0.3-2.7,1.4-4.6,1.7c1.2,1.7-1.5,2.5-2.5,3.3
	c-0.5-1.1-0.3-1.6,0-2.5c1.1-0.3,0.8,0.8,1.7,0.8c0.3-0.1,0.4-0.4,0.8-0.4c-0.1-0.8-0.3-1.4-0.8-1.7
	C78.8,213.4,80.6,212.2,79.6,211.7z M81.3,203c-1.1-0.2-1.4-1.1-1.7-2.1c1.9-0.4,2.1-2.6,2.5-4.6c2.2,0.2,0.8,1.3,2.5,2.1
	c0.2,1.6-1.1,1.7-1.2,2.9c-1,0-1.2-0.7-2.5-0.4C80.7,201.9,81.6,201.8,81.3,203z M90,249.5c0.6,0,1.1,0,1.7,0c0,1.1-0.6,1.5-1,2.2
	c-0.1-0.1-0.1-0.2-0.2-0.4C90.7,250.8,90.8,250,90,249.5z M90.8,242.5c0.2-0.4,0.5-0.7,0-0.8c-0.1-0.6,2.1-0.8,0.8-1.2
	c1.2-1.1,1.4,1.4,0.4,2.1C91.7,242.5,91.3,242.5,90.8,242.5z M92.5,204.7c-0.7-0.1-1-0.7-0.8-1.7c0.8,0,0.9-0.5,1.7-0.4
	c0.2,0.4,0.4,0.7,0.8,0.8C94.3,204.5,91.8,203,92.5,204.7z M92.9,183.5c-1.3,0.2-1.3-0.9-1.2-2.1C93,181.3,93.9,182.5,92.9,183.5z
	 M92.1,209.6c-0.2-0.2-0.4-0.5-0.5-0.8c1.2-1.2,1.4-1,3.3-1.3c0-0.6,0.1-1.2-0.4-1.2c-0.1-1,1.2-0.5,1.2-1.2
	c0.8,0.8,0.7,1.5,0.4,2.5c0.4-1.2,1.4-0.3,1.7-0.8c0.8,0.4,1,0.9,1,1.5C96.7,208.9,94.4,209.3,92.1,209.6z M95.6,202.3
	c0.1,0,0.2,0.1,0.2,0.1c0,0.1,0,0.1,0,0.2C95.7,202.6,95.7,202.4,95.6,202.3z M96.5,202.7c0.2,0.1,0.3,0.1,0.5,0.2
	C96.9,203.1,96.7,202.9,96.5,202.7z M97.5,139c-0.4,0.3-0.6,0.8-0.8,1.2c-0.3-0.1-0.4-0.4-0.8-0.4c0-0.3,0-0.5,0-0.8
	c1,0.1,1.7-0.2,2.1-0.8c0.2,0,0.3,0,0.3,0.1c0,0.4,0,0.8,0,1.2C97.8,139.5,97.6,139.3,97.5,139z M97.1,116.6c-0.8,0-0.5-1.1-1.7-0.8
	c0.8-1,1.5,0.4,2.5-0.4C98.1,116.3,97.1,115.9,97.1,116.6z M94.2,112c-1.9-0.5-2.7,0.3-4.2-0.8c0-0.8,0-1.7,0-2.5
	c1.8-0.1,3,0.2,5.8,0.4C96.1,110.9,93.6,109.9,94.2,112z M92.5,121.6c-0.2-0.6,1.3-2.6,2.9-1.3c0.1,1.5-1.6,1.1-1.7,2.5
	c-1.2-1.4-1.1,0-2.9,0c-0.2-0.9,0.8-0.6,0.8-1.2c-0.4-1.2-0.6,1-1.7,0.4c-0.5-0.5-0.5-1.5,0-2.1C91.2,120.1,92.1,120.6,92.5,121.6z
	 M90.8,168.5c0.2,1.3-0.4,1.8-1.7,1.7C89,168.9,89.5,168.3,90.8,168.5z M91.3,192.6c0,0.4,0,0.8,0,1.3c-0.5,0.1-0.7-0.1-0.8-0.4
	c-0.3,0.1-0.4,0.4-0.8,0.4c0.5-0.1,1.9,1.2,0.8,2.5c-0.3-1.3-1.2-1.9-2.5-2.1C88.2,192.9,90,193,91.3,192.6z M89.8,210
	c-0.1,0-0.2,0-0.3,0c0.1-0.1,0.1-0.2,0.1-0.4C89.7,209.8,89.7,209.9,89.8,210z M91,219.9c-0.3,1-0.5,2.5-0.2,3.6
	c-1.6,0-3.3-0.1-4.9-0.1c0.3-0.2,0.7-0.4,1.2-0.4c-0.3-2-2.3-2.1-2.9-4.6c0.8,0.8,0.8-0.2,1.7-0.4c0.3-1.3-0.4-1.6-0.4-2.5
	c0.5,1.6,1.3,3,2,3.3C88.7,219,89.8,219.5,91,219.9z M81.3,227.1c0.6-0.2,1.2-0.2,1.8-0.1c0.3,1.3,0.8,2.5,1.2,3.3
	c0,0-0.1,0-0.1,0.1c0.1,0.3,0.2,0.5,0.4,0.7c-0.1,0-0.2,0-0.3,0c-0.2-0.2-0.4-0.3-0.9-0.2c-0.3,0-0.4,0.1-0.4,0.2
	c-0.1,0-0.2,0-0.3,0c0-0.2,0.1-0.4,0.2-0.7C82.3,229.3,81.7,229.2,81.3,227.1z M80.2,245.5C80.2,245.5,80.2,245.5,80.2,245.5
	C80.2,245.5,80.2,245.5,80.2,245.5C80.2,245.5,80.2,245.5,80.2,245.5z M73.8,257c-1,1.9-1.2-1.1-2.5-1.3c0.9-0.4,1-1.5,0.8-2.9
	c-0.3,0.2-0.7,0.4-1.3,0.4c1.3-1.1-1.4-2,0-3.3c-0.3-1-2.6,0.1-2.9-0.8c0.6-1.5,0.7-0.9,0.8-2.9c1-0.3,2-0.7,2.8-1
	c0.2,0.2,0.3,0.3,0.5,0.5c-0.1,0-0.2,0-0.3,0c-2.1,0,0.4,7.5,1.8,8.2c0.3,0.2,0.6,0.3,0.9,0.4c0.2,0.2,0.3,0.5,0.1,1.1
	c0.3,0.5,1.2,0,2.1,0.8c-0.7,1.1-2.1,1.5-2.9,2.5C72.7,258.6,74.4,257.9,73.8,257z M72.2,285.7c-0.7-0.3,0.7-2,0.8-2.9
	c0.8-0.4,1.4,1.3,1.7,0c1.1,0.1,0.7,1.8,1.7,2.1c-1,1.8-2.2,1.1-4.1,1.7C72.1,285.8,72.8,284.7,72.2,285.7z M72.6,272.4
	c-0.1-1.6-0.8-0.9-2.9-1.7c-0.1-0.8,0.5-0.9,0.4-1.7c2.1,0.7,2.2-1.4,3.7,0C73.8,270.6,73.2,271.5,72.6,272.4z M71.3,222.1
	c0.7,2.2-1.9,1.2-2.5,2.1C66.6,223.3,70.1,220.8,71.3,222.1z M72.2,215C75.1,220.3,66.7,216.6,72.2,215L72.2,215z M74.2,228.7
	c0-1.6,1.6-3,2.9-2.1C77.3,228.5,76.1,228.9,74.2,228.7z M76.7,209.2c1.4,1-0.6,1.8,0.8,3.3c-1-0.9-2.4,0.4-3.7,0.4
	c0.1-1.1-0.1-1.8-1.2-1.7c-0.3-1.1,0.8-0.8,0.8-1.7c2.2,2.1,0.3-2.5,2.5-1.7c-1.2-0.8-0.3-1.2-0.8-2.5c1.6,0.4,1.2-1,2.5-0.8
	c-0.2,1.4-1,2.7,1.3,2.5C78,207.7,77.3,208.4,76.7,209.2z M77.1,201.8c0.6,0.9-1.1,1.6,0,1.7c-1.5-0.3-3.5,1.2-2.9,2.5
	c-0.5,0.6-0.9,0.1-2.1,0c-0.2-0.9,0.3-1.1,0.4-1.7c-0.1-0.5-0.8-0.3-0.8-0.8c-0.5,0.1-0.2,0.4,0,0.4
	C68.4,203.8,74.4,201.1,77.1,201.8z M71.7,213.8c-0.6,1.7-1.3,0.7-3.3,0.8C68,212.8,71,213.2,71.7,213.8z M68,195.1
	c0.4-0.7,0.8-1.4,2.1-1.2c0.1,1-0.6,1.3-0.8,2.1C68.8,195.7,68.8,195,68,195.1z M68.4,224.2c0.2,0.7,0.4,2,1.3,1.2
	c0.2,0.3,0.5,1,0.9,1.7c-1.8-0.7-3.5-0.8-5.9-0.7c0-0.2,0-0.4,0-0.6C66.3,227.1,66,223.5,68.4,224.2z M62.6,283.2
	c1-0.1,0.5,1.2,1.2,1.3c0,1.7-0.2,3.1-2.1,2.9C62.5,285.6,61.3,284.7,62.6,283.2z M61.8,277.4c-0.3-0.2-0.9-3.1,0.4-2.1
	c-0.3-1.5-2.6,0.4-3.3-1.2c0.1-1.7,1.5-2.1,1.2-4.1c1.3,0.3,0.8,0.3,2.1,0c0.4,1.3-1.1,0.9-1.2,1.7c0,0.7,2-0.7,2.5,0.4
	c-0.1,0.5-0.4,0.2-0.4,0c-0.6,0.8,2.3,3.3,0.8,5C62.8,276.7,62.4,276.4,61.8,277.4z M63.8,292.3c-0.2,1.4-1.2,1.8-1.7,2.9
	c-0.9-0.1-0.9-1-0.8-2.1C62.6,293.3,62.6,292.2,63.8,292.3z M56.4,265.7c0-1.1,1.6-1.1,1.7,0c0.1-1.2,0-3.3-1.2-4.6
	c1.3,0.6,2.4,1.5,2.5,3.3c1.3-1.5,1.5,2.4,0.4,3.3c-0.7,0-1.4,0-2.1,0C57.6,266.7,58,265.2,56.4,265.7z M51.8,246.6
	c1.9-2,0.6-0.8,0.4-3.3c2.4-1,4.4,0.8,5.4,3.3c-2.1-0.6-1.5-1.5-3.3,0c0-0.4,0-0.8,0-1.2C52.7,245,53.6,247.2,51.8,246.6z
	 M51.4,234.6c-4.1,1.9-4.1,6.7-2.5,9.1c0,1.2-1.6,0.9-1.3,2.5c-1.6-0.1-2.1-0.5-2.9-2.1c-1,0.5-0.8-0.1-2.1,0.4
	c-0.6-1.4,0.5-2-0.4-2.9c1.3,0.3,1.4-2.2,3.3-1.7c-0.9-1.6-1.7-1.5-1.7-4.6c3.6-0.4,2.8-4.5,7.9-4.1C51,232,49.8,233.7,51.4,234.6z
	 M45.1,251.6c-0.5,0.3-1.1,0.5-2.1,0.4c0.1-0.7-0.5-0.9-0.4-1.7c0.4-0.2,0.7-0.4,0.8-0.8C44.6,249.6,45.2,250.2,45.1,251.6z
	 M55.1,230.4c2.5,0.3,1.8,3.8,4.6,3.7c-0.7,0.4-0.8,1.4-1.7,1.7c1.1-0.2,3.2,0.6,4.6,1.2c-0.1,1.2-0.6,1.1-0.8,2.9
	c-1.9,0.2-2.7,1.5-4.6,1.7c-0.3-0.4-0.4-0.9-0.4-1.7c1.4-0.3,1.8,0.5,2.5,0.8c0.9-2-1.9-1.7-2.1-3.3c-0.4,2.9-4.9-1.5-1.7-2.5
	C54.8,232.8,54.6,232.8,55.1,230.4z M63.4,247.9c-0.4,0-3.2,0.8-5.4,0.4c1-0.9,2.3-1.5,3.7-2.1c-0.3-0.4-0.5-0.9-0.4-1.7
	c1.2,0,1.8-0.7,2.1-1.7c0.6,0.1,0.1,1.2,0.8,1.2c-0.3,0.6-0.9,0.8-1.7,0.8C62.9,245.9,61.8,248.2,63.4,247.9z M60.1,260.7
	c1.1-0.3,0.8,0.8,1.7,0.8c-0.4,0.6-1.3,0.6-2.1,0.8C60,262,60.1,261.5,60.1,260.7z M62.6,254.9c-0.2,0.7-1.8-0.7-2.1-1.2
	c0.3-1.3,2.1-1.4,0-2.1c1.9-2.9,5.1-0.3,4.2,2.5C64.6,254.8,61.3,254.2,62.6,254.9z M63.4,241.6c0-0.7,0-1.4,0-2.1
	c1,0.7,1.2,0.6,2,0.9c0.1,0.4,0.3,0.7,0.4,1C65.2,242,64.3,242,63.4,241.6z M58,226.7c0.1,1-0.6,1.3-0.8,2.1
	c-0.7,0.1-0.7-0.4-1.2-0.4c0.1-0.5,0.4-0.2,0.4,0C57.2,228.1,56.5,226.2,58,226.7z M56.4,191.4c-0.6,0-1.1,0-1.7,0
	c0-0.6,0-1.1,0-1.7C56,189.5,56.6,190.1,56.4,191.4z M55.9,161.4C57.6,165.9,51.6,162.1,55.9,161.4L55.9,161.4z M55.9,223.8
	c-0.1,0.5,0.1,0.7,0.4,0.8c-0.1,0.8-1.4,0.2-1.7,0.8c0.2,0.6,0.5-0.2,1.3,0c-0.7,1.3-0.9,2.9-0.8,3.3c-1.3,0.6-0.9-0.2-1.7,1.7
	c-0.5-0.8-1.4,0.1-0.4,0.4c-0.6,0.9-1.7-1-2.5-1.2c0.7-1.9-1.7-3-3.7-3.3c0.3-1.3-0.7-1.2-0.4-2.5c0.4,0,0.3-0.5,0.4-0.8
	c3.2-0.7,2.5,2.5,4.6,2.9C53.5,225.2,52.9,225.2,55.9,223.8z M48,214.6c-2.7,0.3-2.3-2.6,0.4-2.1C48.6,213.6,47.7,213.5,48,214.6z
	 M43.9,198.8c-0.3-0.4-0.4-0.9-0.4-1.7c1.7,0.6,1.7,0.8,3.3,0c0,0.4,0.5,0.3,0.8,0.4C47.1,200.5,44.8,197.1,43.9,198.8z M43.5,230.4
	c0,0.7,0,1.4,0,2.1c-0.6-0.5-0.6-1.7-1.7-1.7C41.9,230.3,42.9,230.5,43.5,230.4z M72.2,297.3c0.7,0,1.4,0,2.1,0
	c0.6,1.4-0.2,1.8,0.4,2.5c-0.2,0.7-2.4,0.2-1.3,0c-0.1-0.6-1-0.3-1.7-0.4C71.4,298.2,72.3,298.3,72.2,297.3z M73,326
	c1.8-0.1,0,0.6,0,1.2c2.7-0.3,3.4,1.3,4.6,2.5c0.2,1.3-1.3,1-0.8,2.5C73,333.6,71.4,329.4,73,326z M75.5,346.7
	c1.3,0.3,0.8-1.1,2.1-0.8c0.5,0.8,0.3,2.5,1.7,2.5c-0.7,1.6-2,0.8-3.3,1.2C75.8,348.7,75.2,348.1,75.5,346.7z M75.5,293.1
	c0.1-0.5,0.8-0.3,0.8-0.8c-0.3-1.2-2.8-0.3-2.5-2.1c0.7-0.2,0.8,0.3,0.8,0.8c0.4-0.3,0.4-1,1.2-0.8c1.4,1.1,1.4,3.6,2.5,5
	C78.7,296.3,75.7,294.3,75.5,293.1z M94.6,253.2c0.1,0,0.1,0,0.2,0c0,0,0,0,0,0C94.7,253.2,94.6,253.2,94.6,253.2z M96.6,243.2
	c0.3,0.2,0.6,0.4,1,0.7c-0.3,0.1-0.4,0.3-0.6,0.4C96.9,243.8,96.8,243.5,96.6,243.2z M96.9,232.9c0-0.5-0.3-0.9-0.7-1.2
	c0.7,0,1.4,0,2.1,0c0.1,0.3,0.3,0.6,0.4,0.8C98.1,232.6,97.5,232.7,96.9,232.9z M94.7,223.4c-0.2-1.5-1.7-2.1-1.1-2.7
	c1.9,0.7,3.8,1.5,5.6,2.3c0,0,0,0.1,0.1,0.1C97.8,223.3,96.3,223.4,94.7,223.4z M105,118.2c1.4-0.3,1.8,0.5,2.5,0.8
	c-0.7,0.3,0.1,2-1.2,1.7C107,118.7,104.8,119.6,105,118.2z M107.4,136.9c0,0.3,0,0.5,0.1,0.8c-0.6,0.6-1.7,0.3-2.5-0.3
	C105.8,136.5,106.3,136.7,107.4,136.9z M107,200.1c-0.2,1.2,1.3,1.3,2.3,2c0.2,0.6,0.5,1.2,0.8,1.6c-0.7-0.5-1.4-0.7-2-0.9
	c-0.6-1-1.5-1.9-2.4-2.7C106.2,200.1,106.6,200.1,107,200.1z M109.5,169.8c-1.8-0.2-0.9-1.5-0.8-2.9
	C110.7,167,110.2,168.5,109.5,169.8z M108.4,143.5c0.1-0.1,0.2-0.2,0.3-0.3c-0.7-0.6-1.3-1.2-2.1-1.7c0.5-0.6,0.4-1.8,1.2-2.1
	c0.3,0.8,0.8,1.4,1.3,1.8c0.4,0.3,0.9,0.6,1.3,0.9c0.2,0.8,0.5,1.5,0.7,2.3C110.3,144.1,109.3,143.8,108.4,143.5z M119.9,112
	c1.6,0.7,0.9,3.6,3.3,3.3c-0.3,4.4-4.3,1.3-4.6-1.2C120.1,114.2,118.6,112.6,119.9,112z M121.2,113.3c1.1-0.6,2.5,0.3,3.7-0.8
	c1,0.9-0.3,1.8-0.8,2.5C122.7,113.9,122.1,114.7,121.2,113.3z M119.1,97.1c-0.7-0.4-1.6-0.9-0.8-1.7c-0.3-0.4-1-0.4-0.8-1.2
	C118.4,94.7,119.9,96,119.1,97.1z M112.4,93.3c0-0.7,0-1.4,0-2.1c2.8,0.2,3.4-4.5,5.8-2.1C116,91.1,114.1,91.1,112.4,93.3z
	 M114.9,107.4c1.9-0.9,0.7-1.1,0.4-3.7c0.8-0.1,0.9,0.5,1.7,0.4c-0.2,0.8-1.7,2,0.4,1.7c0.2,1.3-0.6,1.6-0.8,2.5
	c-0.5-0.1-0.2-0.4,0-0.4C116.5,107.3,115.6,107.5,114.9,107.4z M114.5,109.9c1.7-0.4,1.7,0,3.7,0c0,1,0.7,1.2,0.4,2.5
	c-3.7,0.2-4.9-3.2-8.3-2.1c0.1-1.2,0.7-1.8,2.1-1.7c-0.7-0.5-1.7-0.8-2.1-1.7C112.1,107,114.3,107.5,114.5,109.9z M111.6,82.1
	c-1.4-0.3-1.4,0.8-2.1,1.2c-1.1-0.6,1.5-0.9,0.8-2.5c0.7-0.1,0.7,0.4,1.2,0.4C111.6,81.5,111.6,81.8,111.6,82.1z M109.9,78.8
	c-0.7-0.7-1.9-0.9-2.1-2.1C110.1,76.3,111.5,77.7,109.9,78.8z M108.3,96.2c0.5-0.6,1-1.2,1.7-1.7c1,0.1,0.2,1.8,0,2.1
	c-1.4,0.3-1.7-0.5-2.5-0.8C107.6,95.2,108.2,95.8,108.3,96.2z M119.1,127.4c0.4,0,0.3-0.5,0.4-0.8c0.5,0.9,0.2,1.2,0.8,2.5
	c1.3-0.3,0.8-0.3,2.1,0c-0.7,0.8-1,2.1-2.1,2.5c-2.4,0.4-1.1-3.1-2.1-4.1C118.4,126.8,118.6,127.4,119.1,127.4z M122,132.8
	c1.4,0,2.2-0.2,3-0.2c0.3,0.3,0.7,0.6,1.1,0.7c0,0,0,0.1,0,0.1c-0.8,0-1.5,0.1-2.3,0.1c-0.3-0.1-0.5-0.2-0.7,0c-0.4,0-0.8,0-1.2,0
	C122,133.3,122,133,122,132.8z M127,158.1c1.2,0.4,0.5,0.6,0.4,1.7c-1.5,0-2-1-3.3-1.2C124.7,155.9,127.1,160.2,127,158.1z
	 M127.1,125.2c-0.4,0-0.8,0-1.3,0c-0.4,0-0.8,0.1-1.1,0.3c1.2-1.2-1.1-0.9-1.1-2.7c0.8,0.1,0.8,1.1,1.7,1.2
	c-0.4-0.7-0.9-1.3-1.7-1.7c0.3-0.7,0.8-0.1,1.2,0c-1-1-0.4-1.1-0.4-2.9c1.9-0.4,2.4,0.7,3.3,1.3C127,122.7,127.7,124.4,127.1,125.2z
	 M122.8,92.5c1.4,0.3,0.5-1.7,2.1-1.3c-0.6,0.9,0.9,1.2,1.2,0.7c-0.1,1-0.8,2.1-2,3.1c0.9-0.9-0.3-1.5-1.7-1.3
	c0.7-0.6,0.3-1.7-0.4-2.1C122.7,90.6,123.5,91.4,122.8,92.5z M121.2,84.6c0.4,0.7,1.2,1.1,0.8,2.5c-2-1.5-2.3,0.3-5,0
	C118.3,85.4,118.9,84.5,121.2,84.6z M113.7,63.4c-0.4-0.3-0.3-1.1-0.8-1.2c0.1-0.4,3.8-0.1,1.7-0.8c1.6-1.6,3.3,2,2.5,2.9
	c-0.8,0.1-1.3-0.1-1.3-0.8c-1.1,0.7,0.4,3.2-0.8,5.4C112.1,68.6,110.7,64.5,113.7,63.4z M110.4,64.6c0.4,0,0.8,0,1.2,0
	c0,0.7,0,1.4,0,2.1C110.6,66.5,109.7,65.3,110.4,64.6z M109.5,70.5c1.8,1.4,2.1,2.4,1.2,5c-0.9,0.2-1.1-0.3-1.7-0.4
	c-0.2-0.9,0.8-0.6,0.8-1.2c-0.8-1.3-1.9,0.5-2.1,1.2c-0.3-0.2-0.7-0.4-1.3-0.4c0.1-0.8,1.4-0.3,1.7-0.8c0.3-1.3-1.1-0.8-0.8-2.1
	C108.5,71.7,108.9,70.9,109.5,70.5z M107,71.3c-0.9,0.2-2,1.7-0.4,2.1c-0.1,0.5-0.7,0.4-1.2,0.4c1.3,2,0.2,3.3,1.2,4.1
	c-0.4,0.7-1,1.2-1.2,2.1c-0.5-0.1-0.2-0.4,0-0.4c-0.4-1.7-1.6-2.5-3.7-2.5c0.4-0.5,0.6-1.1,0.4-2.1c0.7-0.3,2.4-1.8,2.1,0.4
	c1-0.8-0.4-1.5,0.4-2.5c-1.3,1.8-1.8-2-3.7-1.2C101.7,70.8,106,70.9,107,71.3z M105.4,81.3c-0.3,0.6-1,0.9-2.1,0.8
	c-0.4-1.2-0.4-1.3,0-2.5C104.7,79.4,104.6,80.8,105.4,81.3z M103.3,93.7c0.1,0.9,1,0.9,2.1,0.8c-0.8,0.8-0.1,1.5,0,2.5
	c-0.3,0.1-0.4-0.2-0.4-0.4c0.2-0.7-1.5,0-1.7,0.4c0-0.7-1-1.4-2.9-1.3c0.3-1.3-0.4-1.5-0.4-2.5C100.9,94.8,101.9,94.5,103.3,93.7z
	 M101.2,116.6c-0.6-0.2-1.1-0.2-0.8-2.1c0.2-0.7,2,0,2.1-0.8c0.5,1.4,0.4,5.6-2.5,5.8C99.7,117.8,100.6,117.3,101.2,116.6z
	 M96.7,103.7c2.5-0.6,2.8,1.8,2.9,2.5C99,106.6,96.3,105.6,96.7,103.7z M98.3,84.2c-0.1,0.7-0.7,0.9-1.7,0.8c0-1,0-1.9,0-2.9
	C98.5,82.1,95.7,84.6,98.3,84.2z M95,75.5c-1-1.7,0.9-0.8,0.8-2.5c1.6,0.2,1.2,2.4,2.9,2.5c-1.2,1.6-0.4,2.5-0.8,5
	c-2.1,0.4-3.4,1.6-5,2.5c-0.3-1.4,2.1-5.4-0.4-7.1C92.6,74.9,94.3,75.7,95,75.5z M90.4,102.9c1.5,0.5,1.4,0.6,2.5,0.8
	c-1.8,0.2-1.7,2.2-3.7,2.1c0.3-0.4,1-1.5-0.4-1.2C88.9,103.5,90.1,103.6,90.4,102.9z M89.6,138.6c-1,0.3-3-0.5-3.3,0.4
	c-1.4-0.7,2.5-1.3,0-2.1c0.3-0.6,2.5,0.1,1.3-1.2C88.4,134.9,89.9,136.9,89.6,138.6z M85,83.8c1.1-0.1,1.8,0.1,1.7,1.2
	c-0.4-0.1-0.4,0.2-0.4,0.4C85.2,85.5,84.9,84.8,85,83.8z M86.3,126.5c0.3,0.9-0.4,3.2,1.7,3.3c0.6,1.3-1,2.5,0,2.9
	c-1.2,0.2-0.8,0.6-2.1,1.3c-0.9-1.1,0.9-1.9,0.8-3.3c-1.4-0.7-2.2-1.9-2.5-3.7C84.7,126.6,85.3,126.4,86.3,126.5z M83.4,129
	c1.1-0.1,1.8,0.2,1.7,1.2c-0.6,0-1.1,0-1.7,0C83.4,129.9,83.4,129.5,83.4,129z M83,124.1c0.3,1.6-0.9,1.8-2.1,2.1
	C80.6,124.5,81.8,124.3,83,124.1z M76.7,114.5c0.2,0.9-0.3,1.1-0.4,1.7c-0.7-0.1-0.9-0.7-0.8-1.7C75.9,114.5,76.3,114.5,76.7,114.5z
	 M75.5,118.6c-0.2,1.2-1.6,1.2-2.5,1.7C73.6,119.5,73.9,118.5,75.5,118.6z M72.2,136.9c0.1-0.9,1.8-0.1,2.1-0.8
	c-0.3-0.6-1.3-0.6-2.1-0.8c0.3-0.4,0.5-0.7,0-0.8c0.8-1.4,3.5-0.9,4.6-2.1c-0.1,0.8-1.1,0.8-1.2,1.7c1.1,3.3,5.8-1.7,5.8,2.1
	c-1.4-0.2-1.9,0.3-2.9,0.4c0.1,3.5-4.7,3.9-6.2,3.3C70,138.6,74.6,137.2,72.2,136.9z M79.2,141.9c0.3,0.1,0.4,0.4,0.8,0.4
	c0,0.3,0,0.6,0,0.8c-1,0-1.3,0.8-2.1,0C77.8,142.2,79.9,143.4,79.2,141.9z M73.4,145.7c1.4,0.3,1.8-0.8,2.5,0c0,0.4,0,0.8,0,1.3
	c-0.5,0.8-2.2-0.8-2.5,0.8C72.2,147.4,73.9,146.7,73.4,145.7z M65.9,160.6c-0.3,0.8-1.4,1.8,0,2.1c-0.7,0.6-2.5-1.1-2.9-2.1
	C64.2,160.2,64.7,160.2,65.9,160.6z M66.7,170.6c0.1,1,0.1,2-0.8,2.1c1.1,0.6,3.6-0.6,5.4,0.4c-0.2,0.6-1.3,0.4-0.8,1.7
	c0.6,1.1,2.5,0.1,3.3,0c0.5,1.1,1.5,1.5,1.7,2.9c1.4-0.4,0-0.9,0.8-1.7c0.8,0.2,0.8,1.2,2.1,0.8c-0.1,0.9-1,0.9-2.1,0.8
	c2.1,2,2.9-1,5-1.7c-0.1-0.8-1.1-0.8-1.2-1.7c-0.3,0.7-2-0.1-1.7,1.2c-0.5-0.1-1.1-0.7-0.4-0.8c-0.1-0.5-0.8-0.4-1.2-0.4
	c0.5-1.3,0.9-0.2,2.1-0.8c0.5-1.4-1.3-0.3-0.8-1.7c-1,0.4-1.5,1.2-3.3,0.8c0.2-1.5-1.7-1.1-1.3-2.9c0.5,0.1,0.7-0.1,0.8-0.4
	c1.5,2.2,3,0.4,5.4-0.4c2.5,1.6,1.8,6.5,3.7,7.5c-0.3,1.2-1.3-0.3-2.1,0c0.7,2.9,1.7,3,2.5,5.4c-1.9,0.3-1.7,2-2.1,2.9
	c-1.5-0.5-1.5,0-2.9-0.4c-0.8-0.9-0.4-2.3-0.8-2.5c0.3-0.7,1-0.3,0.8,0.4c0.6-0.1,0.1-1.2,0.8-1.2c-1.1-0.8-3.7-0.2-3.7-2.1
	c-0.3,0.2-0.7,0.4-1.2,0.4c-0.6,0.4-0.6,1.3-0.8,2.1c-3.3,0.4-2.6-4.8-5.4-3.7c-0.1-0.7,0.3-0.8,0.8-0.8c-1-0.2-2.3-1.4-3.3,0
	c-0.3-0.9-2.5-0.8-1.2-2.1c-0.4,0-0.8,0-1.3,0c-1.3-0.1,1.1,1.2-0.4,1.2c-1.9,0.1,0.5-1.6-1.2-1.7C63.4,172.8,61.8,168.7,66.7,170.6
	z M63.8,180.1c-2.7,2-2.4,4-1.7,7.1c-1,0-1.2,0.7-2.5,0.4c-2.5-3.3,1.6-5.8,0.8-8.3C61.8,177.8,62.6,180.3,63.8,180.1z M60.1,114.1
	c0.7,0.1,0.9,0.7,0.8,1.7c-0.4,0-0.8,0-1.2,0c0.1-0.5-0.1-0.7-0.4-0.8C59.4,114.5,60.1,114.6,60.1,114.1z M59.3,132.8
	c1,0.4,2,2,1.2,2.9C59.9,134.6,58.5,134.3,59.3,132.8z M59.3,137.4c0,0.3,0,0.5,0,0.8c-0.7,0-1.4,0-2.1,0
	C56.8,136.8,58.5,137.5,59.3,137.4z M58,121.6c-0.6,0.9-1.1,1.9-2.9,1.6c-0.1-1-0.4-1.8-1.3-2.1C55.2,119.7,56.5,121.8,58,121.6z
	 M52.6,151.5c0.1-0.9,1.1,0.5,2.1,0c0.1,1.2-0.9,1.3-0.8,2.5C51.6,153.9,53,151.8,52.6,151.5z M48.5,154.4c0.3-0.6,1.6-0.1,1.7-0.8
	c0.5,0.1,0.2,0.4,0,0.4c0,1.4,2.1,0.7,2.1,2.1c1.4,0.1,1.6-2.1,2.9-0.8c-0.3,1.3-3.4,1.2-1.3,2.5c-0.4,1-1.9,0.9-3.3,0.8
	c-0.8-0.8,0.2-0.8,0.4-1.7c-0.6-0.1-0.9-0.8-2.5-0.8C48.5,155.5,48.5,154.9,48.5,154.4z M47.6,184.3c2.3-0.5,2,1.7,3.7,1.7
	c-0.6,1.1,0.9,3.1-1.7,2.9c-0.1-0.7,0.4-0.7,0.4-1.3c-1.3-0.4-1.6,0.4-2.1,0.8c-2.6-1.1-2.1-2.6-4.6-2.5c-0.2,0.9,0.6,0.8,1.2,0.8
	c-0.1,0.6-1,0.4-1.7,0.4c0.2-1.9-0.1-1.9,1.2-2.9c0.6,0.2-0.2,0.5,0,1.2C44.7,184.4,47.9,186.1,47.6,184.3z M41,172.7
	c2,0.3,3.1,1.4,2.9,3.7c-1.1,0-2.2,0-3.3,0C40.7,175.1,40.3,173.4,41,172.7z M41,177.7c-0.6,1.6-0.7,1.3-0.4,3.3
	c1.4-0.8,2.1-1.5,3.7-0.4c-0.3,1.2-1.3-0.3-2.1,0c0.5,0.7,0.9,1.6,2.1,1.7c-1.2,0.5-3.5,1.5-4.6,0.8c0,0.7,0.3,1.1,0.8,1.2
	c-0.1,0.7-0.7,0.9-1.7,0.8c0.9-1.5-0.3,0-1.7-0.4c0.8-2.4-2.1-0.8-0.8-2.5c-0.7-1.6-2.3-0.5-3.3-1.2c0.1,0.8,0.3,1.4,0.8,1.7
	c-0.1,1-1.8,0.2-2.1,0c1.4-1-0.4-3.6,1.7-3.3c-1.4-1.1-0.4-1.9,0.8-2.5c-0.5-1.1-2.2-0.8-3.3-0.4c-0.2-0.6,1.6-1,0.4-1.3
	c0.9-0.7,2.4-0.9,4.2-0.8c-0.4,1.9,2.3,1.9,0.4,2.9c0.6,1.4,1-0.9,2.1-0.4C38.3,178.3,40,178,41,177.7z M34.8,193.4
	c-0.6,1.2-0.3,0.5,0.8,0.4c0.8,2.1,0.2,2.4-1.2,3.7c-1.3-0.7-0.9-3-2.9-2.9c0-0.5,0-1.1,0-1.7c1.1,0.2,1.5,0.6,2.1-0.4
	c0.5,0.1,0.2,0.4,0,0.4C33.6,193.5,34.3,193.4,34.8,193.4z M38.9,176.4c0.6,0.9-1.9-1.5-2.5-2.1c0.4-0.7,0.8-1.4,2.1-1.2
	C39.7,174.1,37.9,175.6,38.9,176.4z M35.6,167.7c0.6,0.6,2.2,1.5,1.2,2.5c-0.3-0.4,0-1.7-2.1-1.2C34.5,168,35.6,168.3,35.6,167.7z
	 M32.3,166.4c0,1.8-1.7,1.9-2.5,0.8C30.3,166.7,31.2,166.5,32.3,166.4z M29.8,171.4c0.8-1.1,2.6,0.4,3.3,0.8c-1.2,2.4-2-1.2-3.3,0
	C30,171.9,30.3,171.5,29.8,171.4z M28.5,178.1c0-1.7,0.8-2.3,2.1-1.7c-0.2,1.5,1,1.8,1.2,3.7c-0.7,0.8-1.2-0.2-2.1-0.4
	C31.1,179.9,30.1,178.3,28.5,178.1z M30.6,186.4c-0.9,0.2-0.6-0.8-1.2-0.8c-0.2-1.3,1.9-0.3,2.1-1.2C32.9,185.2,30,185,30.6,186.4z
	 M30.2,227.5c1.3,0.3,0.8,0.3,2.1,0c-0.3-0.4-0.4-0.9-0.4-1.7c0.7,0,1.1-0.3,1.3-0.8c2.1,0.8,6.9-0.9,8.7,2.1
	c-0.6,0.9,0.1,4.5-1.7,2.9c0.1,0.9,1.1,0.8,1.7,1.3c-1.1,0.1-1.1,0.4-1.2,1.7c-1.2,0.1-1.3-0.9-2.5-0.8c0.3,0.6,0.9,0.8,1.7,0.8
	c0.4,1.9-0.9,2.2-2.5,2.1c0.4-3.4-2.3-1.8-2.9-3.7c-0.4,0.3-0.4,1-1.2,0.8c-0.5-0.5-0.2-0.7,0-1.2c-1.2,0.8-2.4-1.3-4.1-1.2
	C28.8,227.5,30.2,228.9,30.2,227.5z M27.3,231.7c-0.7,0-1.6-0.2-1.7,0.4C22.4,230.6,27.6,227.7,27.3,231.7z M16.9,214.6
	c0,0.4,0,0.8,0,1.3c-1.7-0.4-2.3,0.5-2.9,1.2c-0.5-0.3-0.8-0.9-0.8-1.7C14.7,217.5,14.3,213.9,16.9,214.6z M16.9,252.9
	c-2.1-0.3-0.4,0.7-0.8,2.1c-1.5-0.8-2.4,1-3.7,0c-0.1-2.1,2.7-1.4,3.7-2.5c-0.3-0.4-0.8-0.6-1.3-0.8
	C15.3,250.6,17.4,251.4,16.9,252.9z M17.7,221.3c-0.5-0.1-0.2-0.4,0-0.4c-0.7-0.3-0.7-1.3-1.2-1.7c0.5-0.6,1.4-0.8,2.5-0.8
	c0.5,0.9-0.2,1.6,1.2,2.1C20.1,221,18.3,220.2,17.7,221.3z M19.8,263.2c0-0.3,0-0.6,0-0.8c1.2-0.3,1.1,0.6,2.1,0.4
	C21.7,263.3,20.1,264.3,19.8,263.2z M21.5,282.3c1.3,0,1.2-1.3,2.9-0.8c-0.6,1.1-1.3,1.3,0.4,0.8c-1.2,1-0.8,1.1-1.2,2.5
	c-0.4-0.3-0.9-0.4-1.7-0.4C22.1,283.4,21.1,283.5,21.5,282.3z M23.1,296.1c-0.1-0.5-0.8-0.3-1.3-0.4c-0.2-0.9,0.3-1.1,0.4-1.7
	c1.8,1.5,0.2-0.5,2.9,0.4c0.2,0.9-0.3,1.1-0.4,1.7c-0.7-1.2-2-0.3-1.2,0.4C23.6,297.8,21.7,296,23.1,296.1z M23.5,316
	c-0.3-1.9,0.7-2.3,2.1-2.5c0,0.7-0.2,1.6,0.4,1.7C25.5,315.8,24.6,316,23.5,316z M21.9,293.1c0.7-1.7-0.1-2.3,0.4-4.2
	c2.2-0.2,2.2,0,3.7-0.8c1,0.8-0.9,2.2,0.8,2.5C25.2,291.4,24,294.1,21.9,293.1z M30.2,237.9C26,239.6,26.3,237.2,30.2,237.9
	L30.2,237.9z M29.4,260.7c-1,0.1-1.6-0.1-2.1-0.4C27.4,259,29.5,259.5,29.4,260.7z M32.3,346.7c-0.5-0.1-0.2-0.4,0-0.4
	c-0.7-0.8-1.3,0.3-2.1-0.8c-0.3-2,1.8-1.5,2.1-2.9C34.4,343.1,32.7,345.2,32.3,346.7z M31.8,330.5c-0.1,1,1.9-0.2,1.3,1.3
	c-1.8-1.4-3-0.4-5,0c0-1.8,2.4-3.4,1.7-4.6c-0.2-0.3,2.6-0.2,1.2-1.2c0.1-0.9,1.8-0.2,2.5-0.4C34.9,327.7,34,329.8,31.8,330.5z
	 M38.5,345.9c-1.6,0.4-2.8,1.2-4.2,0c0.2-1.7,1.6-2.3,2.9-2.9C37.6,344,38.9,344.1,38.5,345.9z M37.7,318.5c0.1-0.5,0.8-0.4,0.8,0
	c0.2-2.5,2.1,0.9,4.6,0.8c-0.6,1-1.9,1.2-2.9,1.7C40,319.5,38.4,319.5,37.7,318.5z M42.7,347.6c0.1,0.9-1.5,0.2-2.1,0.4
	c0.3-0.9,1.6-0.9,1.7-2.1C43.7,346,41.2,347.5,42.7,347.6z M41.4,351.7c2.1-0.4,1.8,1.3,3.3,0.4c0.1,0.8,0.3,1.4,0.8,1.7
	c-0.2,0.4-1.9,1.4-0.8,1.7C42.6,356.9,38.5,354.7,41.4,351.7z M47.2,364.2c-1.7,0.6-4.3,0.4-5,2.1c-1.7-0.9,0.8-3.6,2.1-4.1
	c-0.4-0.6-0.7-1.3-1.2-1.7c0.7-1.8,1.7-3.4,6.2-3.7C49.5,360,45.9,362.4,47.2,364.2z M55.1,381.2c-1.4,0.3-1.8-0.4-2.1-1.2
	c-1,0.3-3.2,2.4-3.3,0c2.9,1,3.2-4.5,7.1-3.3C56.5,378.4,55.9,380,55.1,381.2z M52.6,366.3c0.7,0,1.4,0,2.1,0
	c-0.5,2-0.8,1.6-0.8,3.7c-1.1,0-2,0.3-2.5,0.8C51,368.4,50.4,368.8,52.6,366.3z M63.8,358.4c0.9-0.5,1.3-1.4,1.7-2.5
	c-0.7-1.3-2.2-1.7-3.3-2.5c-4,1.3-4.8,3-7.5,4.1c1.3,3.8-1.9,6-2.5,8.3c-0.5-0.1-0.2-0.4,0-0.4c-0.2-0.6-0.7,0-0.8,0.4
	c-0.9-0.6-0.2-2.9-0.4-4.2c1.3,0.4,1.3-0.7,2.1-0.8c-2.7-4.1,0.6-8.9-1.2-11.2c0.6-0.3,2.9-2.8,5.4-0.8c0.6-0.2-0.2-0.5,0-1.3
	c1,1,0.8-0.6,2.1-0.4c0.6,0.6,1.4,1,1.7,2.1c2.3-1.5-1.2-4.8,2.5-5.8c0.3,1.5-0.3,2.2-0.8,2.9c1,0.1,3.3-0.5,5-0.4
	c0.7,0.7-0.4,1.7,0,3.3c-1.7,0.7-1.8,0.7-3.7,0.8c0.7,0.1,1.8,2.1,2.5,0.8c1.4,0.7,0.6,3.1,0,4.2c1.4,0,3.4,1.4,3.3,2.9
	C68.5,359.9,65.2,360.9,63.8,358.4z M68,361.3c0.6-0.7,2.3-1.3,2.1,0.4C69.1,361.8,68.5,361.6,68,361.3z M68.8,353
	c0.7-1.8,1.8,1,3.3,0.8C70.9,355.3,70.6,352.4,68.8,353z M73,392.4c-1.5,0.5,0-1.8-1.2-0.4c-0.6-1,1.5-4.7,3.3-3.3
	C74.8,390.4,73.7,391.2,73,392.4z M76.3,356.7c-2.1,0-1.9-2.3-3.3-2.9c3.2-1.1,4-2.1,7.1-2.9C80.7,354.7,76.8,354,76.3,356.7z
	 M82.5,396.2c1.5-1.2,3.7-1.4,5.4,0c-0.5,2.1-2.4,2.8-4.2,3.7C82.4,398.7,83.6,397.5,82.5,396.2z M87.5,278.6c0.5,0.5,1,0.2,0.4,0
	c-0.1-0.4,0.2-0.4,0.4-0.4c0.3,0,0.5,0,0.8,0c-0.3,0.4-0.5,0.7,0,0.8c-0.1,0.6-1.7,0.8,0,0.8c-0.5,0.5-0.4,0.8,0.4,0.8
	c-0.3,0.4-0.4,0.9-0.4,1.7c-1.4-0.2-1.9,0.3-2.9,0.4c-0.2-0.5-0.5-0.9-1.2-0.8c1.8-0.1,1.7-2.7,2.5-1.7
	C88.6,280.2,86.9,279.6,87.5,278.6z M101.4,301.8c-0.3,1.4,0.1,3.4,0.8,4.8c-0.8,0-1.7,0.1-2.5,0.1c-1.1,0.1-1.3,1.8-1,3.6
	c-1.5-2-3.5-4.1-2.1-6c-0.4-0.7-0.8-1.4-2.1-1.3c-0.3,2.1,1.7-0.7,1.2,1.3c-1.7-0.1-0.9,0.2-0.8,1.3c-0.9-0.1-1.6,0.1-1.7,0.8
	c0.1,0.5,0.8,0.3,1.3,0.4c0,1.3,0.2,2.7-1.3,2.5c-0.1-2.9-1.5,1.2-3.7,0c-1.2-3.9,1.4-5.3,1.3-7.9c-0.6-0.8-2.3-0.5-2.1-2.1
	c0.7-0.1,0.7,0.4,1.2,0.4c0.2-1.3-2.1-0.2-1.7-1.7c1.5,1.2,2.2-1.1,4.6-0.4c-0.7,2.2,6.5,2.1,3.7,5
	C98.4,300.9,99.7,302.1,101.4,301.8z M103.7,347.6c-0.9,1-2.3,1.6-3.3,2.5c-0.7-0.8-0.9-2.2-1.2-3.3c2.2,0.6,1.9-1.4,4.1-0.8
	C102.8,346.5,103,347.2,103.7,347.6z M90.4,386.6c-1.4-1.8,1.5-3.2,2.9-5c-1.5,1.9,1.8,1.8,1.7,3.7c-0.4,0.7-2.1,3.6-4.6,2.1
	c0-0.7,0.5-0.9,0.4-1.7C90.4,385.8,90.5,386.3,90.4,386.6z M87.1,369.6c0.9-1.5,2.4-0.3,3.3,0.4C89.7,371.1,87.5,370.2,87.1,369.6z
	 M92.1,343.8c-1.3-0.1-0.4-0.9-0.8-2.5c0.5-0.3,1.1-0.5,2.1-0.4C93.6,342.6,91.8,342.1,92.1,343.8z M91.7,318.9
	c1.1-1.3,1.9-0.3,3.3,0c-1.5,2.8-1.1,4.5,0.4,7.1C90.8,330.3,92.6,321.1,91.7,318.9z M97.5,380.8c-0.4,1-1,1.8-2.5,1.7
	C95.4,381.5,96.3,381,97.5,380.8z M96.2,340.9c0.8-1.3,1.8-2.4,3.3-2.9c-0.6,1-0.7,2.4-1.2,3.3C97.4,341.5,96.7,341.3,96.2,340.9z
	 M99.2,322.6c1.5,0,3.6-0.6,2.9,1.7C100.5,324.4,99.5,323.9,99.2,322.6z M93.3,296.5c-0.3-1.2-2.6,0.2-3.3-2.1
	c2.6,1.8,1.8-1.3,4.6-1.2C94.7,294.8,94.1,295.7,93.3,296.5z M87.1,290.2c-0.2-1.7,2.3-2.1,3.3-1.3
	C90.7,291.2,87.6,292.3,87.1,290.2z M85.9,294.8c1.3,0.2,2.1,2.3,1.2,3.3C85.1,298.7,84.3,295.3,85.9,294.8z M85,303.1
	c1.7,0.3,1.4-1.3,3.3-0.8c-0.3,0.8-1.1,1.1-2.1,1.3c2,0.4,0.6,0.7,2.5,0.4c-0.8,1.3-2,1.4-2.9,1.7c-0.6-0.2,0-0.4,0.4-0.4
	C86.7,303.6,84.7,304.5,85,303.1z M87.1,307.3c0,1-0.8,1.3,0.4,1.7c-0.1,0.9-1,0.9-2.1,0.8c0.5-3-1.7-0.8-1.7-2.9
	C84.8,307.1,85.7,307.5,87.1,307.3z M91.7,420.3c-0.3-1.3-1.9-1.2-1.3-3.3c1.4,0.1,2-0.5,2.1-1.7c0.7,1.7,2.6,0.4,3.3,2.5
	C94.8,419.7,93.7,420.1,91.7,420.3z M92.9,414.9c0.1-0.9-0.3-1.3-1.2-1.2c0.3,0.4,1,0.4,0.8,1.2c-1.4-0.8,0,0.1-0.8,0.8
	c-0.3-0.3-1.1-0.6-1.3,0c-0.3-1.1,0.1-4-1.7-5.4c1.8-1.3,2.5-0.3,2.1-3.3c-0.6,0.5-5.2,1-2.9,0.4c-3-1.6-0.5-4.4,0-7.1
	c0.7,0.7,1.7,1,3.3,0.8c-0.2,5.4,5.7,2.3,7.5,5.4C97.1,409.5,98.9,415.5,92.9,414.9z M98.7,371.7c0.6-0.1,0.9-0.4,1.2-0.7
	c0.4,2,1.3,4.1,2.4,4.4c-0.1,0.6-0.3,1.1-0.7,1.3C99.3,376.4,99,374,98.7,371.7z M102.9,382.1c0.8-1.6-0.4-0.9-0.8-2.1
	c-1-0.2,0.2,1.9-1.2,1.2c0.8-1.4-0.5-3.2,2.1-3.3C102.8,380,106.1,381.4,102.9,382.1z M100.8,338c0.3-1.3,1.4-1.9,2.3-2.6
	c0.4,0.9,0.9,1.7,1.4,2.1C103.5,338.2,102.4,338.6,100.8,338z M104.6,296.5c0-0.2,0-0.4,0-0.6c0.3,0.2,0.6,0.3,0.9,0.5
	C105.2,296.5,104.9,296.5,104.6,296.5z M108.3,387.9c0,1.2-2.3,1-2.9,0.4C105,386.5,108.1,386.8,108.3,387.9z M108.7,401.2
	c-1.3,0.7-2.2,0.9-3.3,0c0.3-1.3,1-2.4,2.5-2.5C108.2,399.4,109,399.7,108.7,401.2z M108.9,338.8c-0.7,0-1-0.4-1-1
	c0.4,0,0.9,0,1.3,0C109,338.2,108.9,338.5,108.9,338.8z M111.6,420.3c-0.6-1.8,1.6-0.9,1.2-2.5c1.2-0.2,0.4,1.5,1.3,1.7
	C114.1,420.5,112.7,420.3,111.6,420.3z M117.4,406.1c-1.4-2.4-1.4-5.8,0.8-7.5C121,400.1,122.3,406.5,117.4,406.1z M117.4,392.9
	c-0.7-0.3-0.1-0.8,0-1.2c0.8-0.1,0.9,0.5,1.7,0.4c-0.6,0.6-0.1,2.4-1.7,2.1c-0.3-1.2,0.6-1.1,0.4-2.1
	C117.4,392,117.5,392.5,117.4,392.9z M119.1,366.1c0.4-0.3,0.9-0.4,1.7-0.3c-0.2,0.6-0.5,1-0.7,1.5
	C119.7,366.7,119.4,366.3,119.1,366.1z M119.9,412.4c0.3-0.4,0.5-0.7,0-0.8c0-1.1,1.6-1.1,1.7,0c-0.2-0.9,1.2-1.5,2.5-2.1
	c-1.4-3,3.4-1.7,4.6-0.4c0.1,0.7-0.5,0.9-0.4,1.7c-0.9,0.2-1.1-0.3-1.7-0.4c0.4,2.4-1.4,0.6-1.7,2.9
	C122.1,412.7,122,412.1,119.9,412.4z M127,431.5c0.8-1.6,1.1-5.7,4.2-3.7C130.8,430.1,128.2,430.1,127,431.5z M133.2,423.2
	c-0.4,0.4-1,0.3-2.5,0.4c-0.6-1.6-0.3-2.1-2.1-2.1c0.5-2.6-2.1-2.9-3.3-2.5c-0.2-0.9-1-1.2-0.8-2.5c2.5-0.3,2.5-3.1,5-3.3
	c-0.1,1.2,0.9,1.3,0.8,2.5c-0.6,1.9-1.4,1-1.3,3.3c1.8-1.1,2.3-1.8,2.9-4.6c3.9-0.3,2.9-3,3.7-6.2c1.5,0.9,0.7,4.2,3.7,3.7
	c-0.9,1.8-1.1,1.8-0.8,4.6c-1.7,0.4-2.3-0.5-2.9-1.2c-1.1,0.4-1.4,1.7-2.1,2.5c0.3,0.4,0.9,0.4,0.8,1.2
	C133.8,420,131,422,133.2,423.2z M138.2,390.8c-0.1,2.5-2.4,1.7-3.7,2.1C134,390.3,137.3,389.6,138.2,390.8z M134.5,371.7
	c-0.1-1.1,2.8-1.4,2.1,0.4C136.1,371.7,135.4,371.5,134.5,371.7z M138.6,419.4c-0.7,0.1-0.7-0.4-1.2-0.4c-0.3-1.1,0.8-0.8,0.8-1.7
	C139.3,417.4,139.2,418.9,138.6,419.4z M135.3,454.3c-1-0.8-1-2.6-2.9-2.5c0.9-1.6,2.3-2.7,3.7-3.7c1.7,1.7,1.5,1.5,1.7,4.6
	C136.8,452.9,136,452.9,135.3,454.3z M134.9,434.8c-0.2-1,1.9,0.2,1.2-1.2c3,2.9,3.2,1.1,3.7,5.8
	C136.7,440.5,135.6,436.1,134.9,434.8z M139,423.6c-0.2-0.4-0.4-0.7-0.8-0.8c-0.1-3,3.2-2.6,5-3.7c-0.3,1.3,1.1,0.8,0.8,2.1
	C142.8,422.3,140.6,422.7,139,423.6z M142.4,401.2c0.4,0.3,0.4,1,1.3,0.8c0.4,1.3-0.7,1.3-0.8,2.1
	C141.2,403.7,142.5,402.4,142.4,401.2z M147.4,440.6c-1,0.2,0.2-1.9-1.3-1.3c0.1-1.3,1.5-1.3,2.1-2.1c0.4,0.3,0.3,2.1,0.8,3.3
	C148.1,441.2,147.4,439.6,147.4,440.6z M153.6,411.6c-1.3,0.4-1.3-0.7-2.1-0.8C152,409.6,154,409.6,153.6,411.6z M157.3,385.4
	c-0.5-0.5-0.6-1.1-0.6-1.7c0.2,0.4,0.4,0.8,0.7,1.2C157.4,385,157.3,385.1,157.3,385.4z M160.6,457.3c-0.6-0.4-0.6-1.3-0.8-2.1
	c0.8-0.8,2-0.2,2.9,0C162.3,456.1,161.2,456.4,160.6,457.3z M165.6,369.3c-1.8,0.1-2.3,1.8-2,3.6c-0.7-0.2-1-0.6-1.7-0.8
	c0-0.7,0-1.4,0-2.1c0.8,0,1.2-0.5,1.6-1c0.8,0,1.8-0.1,2.8-0.2c0,0.1,0.1,0.2,0.1,0.4C166.1,369.2,165.9,369.3,165.6,369.3z
	 M164,298.1c1.6,0.7,0.9,1.1,0.4,2.5C162.5,300.6,164.4,299.2,164,298.1z M173.1,451c-0.9-0.1,0.6-1.1-0.8-1.2
	c0.6-0.5,1-1.2,2.1-1.3C174.4,449.8,173.5,450.1,173.1,451z M181.9,432.6c2.4-0.1,4.9-0.3,7.4-0.5c-2.2,0.7-4.9,0.5-7.1,2.3
	C182.5,433.9,182.3,433.2,181.9,432.6z M184.7,360.4c1.3,0,2.5,1.2,1.7,2.1C185.1,362.6,185,361.5,184.7,360.4z M192.6,432.3
	c-0.1-0.1-0.2-0.2-0.4-0.3c0.3,0,0.6,0,1,0c0.3,0.1,0.7,0.1,1.1,0c0.2,0.4,0.5,0.6,0.4,1.3c-1.9,1.1-2.6,1.9-3.7,3.3
	c-1.7-0.1-2.9-2.4-2.1-3.7c0.5,0.1,0.2,0.4,0,0.4c0.7,0.7,1.1-0.1,2.5,0.4C193,433.4,190.9,432.1,192.6,432.3z M198,447.3
	c0.2,0.4,0.4,0.7,0.8,0.8c0.7,3.1-2.6,2.3-2.9,3.3c-0.5-0.6-1.7-0.5-1.7-1.7C197.1,451.2,194.7,447.1,198,447.3z M198,386.2
	c-1.2,1.8-0.8,2.6-1.7,4.6C195,389.4,196.4,386.7,198,386.2z M186.8,471.8c-1.5,0.2-4.5-3.6-2.1-5.4c1.5,0.8,1.5,2.7,2.5,2.9
	C187.2,470,185.8,471.4,186.8,471.8z M197.6,473.5c0.6-0.6,2.2-0.4,2.1,0.8C199.1,475,197.3,474.9,197.6,473.5z M201.4,478
	c-1.3,0.4-1.3-0.7-2.1-0.8C199.6,476.3,201.6,477,201.4,478z M205.1,473.9c-0.6,1-2.3-0.5-2.9-0.8c1-1.9,2.1-1.1,2.9-2.1
	c-1.5-1.2-2.4,1-4.2,0c-0.4-1.3,0.6-1.3,0.8-2.1c-0.8-0.4-3.6-2-2.5,0c-0.4-0.2-0.8-0.4-0.8-0.8c-0.6,1.5-2.8,3.4-4.2,1.7
	c0.7,0.3-0.1,2,1.3,1.7c-1.6,1.5-1.3,1.4-4.2,1.7c-0.4,1.3-2.8,3.3-2.9,0.4c0.5,0.1,0.6,0.7,1.2,0.8c-1.7-2.1-0.1-6.6,2.5-5.8
	c1.7-1.5,1.8-4.6,5-4.6c-0.9,0.9,0.2,1.2,0,2.5c1,0.6,1.6-1.1,1.7,0c0.6-0.3,0.9-1,0.8-2.1c1.2-0.3,1.1,0.6,2.1,0.4
	c0,0.6,0,1.1,0,1.7c1.4,0,2.5-1.3,4.6-1.7c-1.1-1.3-0.5-2.3-1.2-2.9c0.9-1.6,3-1.2,3.7,0.4c0.4-0.3,0.4-0.9,1.2-0.8
	c-0.9-0.6,0.5-1-0.4-1.2c-0.1-0.7,4.3,0.2,2.1-0.8c0.4-1,1.6,0.6,2.9,0c0,0.4,0,0.8,0,1.2c-3.5-0.6-5.6,2.7-4.2,5.4
	c0.9-1.3,0.8,1.2,1.3,0c0.1,0.4-0.9,3,1.2,3.3c-1.6,1.9-4.1,3.7-7.1,2.1C207.3,472.9,204,472.9,205.1,473.9z M207.2,427.3
	c-1.5,1.4-2.1,1-2.7,0.1c0.3-0.5,0.4-0.9,0.5-1.5C205.4,426.8,205.9,427.4,207.2,427.3z M205.1,422.4c-0.1-1.6,1.9-2.2,2.1-0.4
	c-0.7,0.2-0.8-0.3-0.8-0.8C205.3,420.9,206.6,423,205.1,422.4z M212.2,364.9c0-0.1,0-0.2,0-0.3c0.1,0,0.2,0,0.3,0c0,0.1,0,0.2,0,0.2
	C212.4,364.9,212.3,364.9,212.2,364.9z M225.5,370.4c-0.1,0.5-0.8,0.4-1.2,0.4c-0.1-0.6,0-1,0.1-1.4c0.5-0.2,1.1-0.3,1.6-0.5
	C226.2,369.5,224.3,370.3,225.5,370.4z M225.9,404.5C225.9,404.5,225.9,404.5,225.9,404.5c-0.3,0.4-1,0.5-1.5,0.4
	C224.9,404.7,225.4,404.6,225.9,404.5z M229.6,416.5c-0.6,1.6,1.1,0.8,0.8,2.1c1.4-0.6-0.9-1-0.4-2.1c0.4,0.3,0.9,0.4,1.7,0.4
	c0.9-0.5-1.2-1.1,0.4-1.7c0.5,0.9,0.2,1.2,0.8,2.5c0.7-0.8,1.2,0.2,2.1,0.4c-1,3.2-5.5,2.6-7.5,0.4c-0.7,0.4-1.4,0.8-1.2,2.1
	c-1.1-0.7-2.1-1.6-3.3-2.1c0.7-0.6,0.5-1.9-0.8-1.7C224.2,417.2,226.3,415,229.6,416.5z M238.1,312.7c0.8-0.1,1.7-0.3,2.5-0.4
	c-0.2,0-0.4,0.1-0.6,0.4c-0.1,0.2-0.1,0.4,0,0.5c-0.6,0.3-1.2,0.6-1.8,0.8c-0.2,0-0.4-0.1-0.6-0.1
	C237.5,313.4,238.7,312.8,238.1,312.7z M241.8,312.4c-0.4-0.1-0.8-0.2-1.1-0.1c0.5-0.1,1.1-0.2,1.6-0.3c0.1,0.1,0.1,0.1,0.1,0.2
	C242.2,312.3,242,312.3,241.8,312.4z M242.4,354.3c-0.4,0.5-1.1,0.7-1.6,0.5C241.3,354.6,241.8,354.5,242.4,354.3z M241.2,424.8
	c1-1.3,0.2-0.2,1.7,0c-0.1,0.5-0.8,0.4-0.8,0c-0.4,0-0.3,0.5-0.4,0.8c-0.4-0.3-1.5-1-1.2,0.4c1.1,0.8-1.1,0-0.4-1.3
	C240.4,424.8,240.8,424.8,241.2,424.8z M240.4,431.9c-0.9-0.3-0.4-2.6,0.8-2.1C241.8,431.4,240.1,430.6,240.4,431.9z M238.3,405.7
	c0.3,0.2,0.7,0.4,1.2,0.4c-0.2,1.5-2.3,1.9-0.4,2.5c-0.3,1.3-2.4,0.3-2.5,0.8c-0.6-0.1-0.3-1-0.4-1.7
	C237.4,407.6,238.1,406.9,238.3,405.7z M237.9,442.7c-0.3,1.6,0.5,2,0.4,3.3c1.6,1.7,4.4,0.4,6.2,0c-0.8,1.3-0.8,1.6-1.2,3.7
	c-1.1-0.1-2.7,1.4-2.1,1.7c-0.7,0.7-3,0.2-2.9,1.3c-1.5-0.5-2.7-1.9-4.2-1.3c0.7-1.7-0.1,0.1-1.2,0c0.6-1.5-0.5-1.5-2.1-2.5
	c-0.6-3.1-1.3-2.6,0.4-5c2.3,1.2,2.8-3,3.3-0.8c0.9-0.1,0.1-1.8,0.8-2.1C237.5,440.3,236.4,442.8,237.9,442.7z M245.8,376.2
	c-1-0.2-0.9,0.8-2.1,0.4c-0.1-0.8-0.3-1.4-0.8-1.7c0.3-1.3,1.9-1.2,2.5-2.1c1-0.1,0.5,1.2,1.3,1.3
	C245.9,375.6,244.5,374.5,245.8,376.2z M238.8,468.1c-1.3-0.5-2.5-1-3.7-0.4c0-0.4,0-0.8,0-1.2c2,0.8,1.6-0.4,4.2-0.4
	C239.3,467,238.4,466.9,238.8,468.1z M232.1,456.4c0.3-0.4,0.5-0.9,0.4-1.7c2.1-0.1,0.1,1.4,1.7,1.7c0.1,1-1.2,0.5-1.2,1.2
	c-0.5-0.1-0.2-0.4,0-0.4C233.1,456.5,232.6,456.5,232.1,456.4z M234.7,380.2c-0.1-0.4-0.2-0.7-0.4-1c0.3-0.3,0.6-0.5,1.1-0.4
	c0.2,0.3,0.4,0.7,0.4,1.3C235.4,380.4,235.1,380.4,234.7,380.2z M234.6,402c0.2,1.3-0.4,1.9-1.7,1.7c0.1-0.5,0.2-1.1,0.5-1.4
	c0.3-0.1,0.5-0.2,0.8-0.3C234.3,402,234.4,402,234.6,402z M219.9,409.2c0.2-1.1-0.1-2.4-0.6-3.4c0.2,0,0.4-0.1,0.7-0.1
	c0.4,0.8,0.4,1.7,2.2,1.8C221.7,408.5,220.7,408.9,219.9,409.2z M220.5,412c-1.1,4.2-3.1,2.6-5.6,0.8c1-0.4,2-0.8,3-1.2
	c0.1,0,0.2-0.1,0.3-0.2C219,411.4,219.7,411.5,220.5,412z M219.2,445.6c0.6,0.4,1.3,0.6,1.2,1.7c-0.9,0.2-1.1-0.3-1.7-0.4
	C219,446.5,219.2,446.2,219.2,445.6z M217.6,417.4c-0.1-1.1,0.9-1.1,1.7-1.3c0,0.6,0,1.1,0,1.7C218.9,417.5,218.3,417.3,217.6,417.4
	z M215.9,433.2c-1.5-0.3-1.4-2.5-0.8-3.7c0.7-0.1,0.9,0.5,1.7,0.4C217.3,431.8,215.7,431.6,215.9,433.2z M215.1,395.3
	c-0.3-1.8,1.4-1.7,1.2-3.3c-0.4-1.1-2.8-1.6-1.2-3.3c1.4,0.7,2,2.2,3,3.4c0.2,0.7,0.5,1.3,0.9,1.8
	C218.4,395.4,216.6,396,215.1,395.3z M220.1,480.5c-0.9,0.3-2.7-0.5-2.9,0.4c-1.7-1.6-3.2-3.4-5.4-4.6c0.4-1.3,1.6-1.5,0.8-2.9
	c0.5,0.5,0.9,0.4,0.8-0.4c3.8,0.4,5.2,3.1,7.9,4.6C220.9,478.6,219.9,478.9,220.1,480.5z M220.1,450.2c0.7,0,1.6,0.2,1.7-0.4
	c1.1-0.2-0.3,2.3,0.8,2.1C222.2,452.4,219.6,451.8,220.1,450.2z M223.8,444.8c-0.1,1.1-0.7-0.6-1.7,0c0.1-0.7-1.3-2.2,0.4-2.1
	c-0.8,0.7,0,1.4,1.2,1.2C223.5,444.3,223.3,444.7,223.8,444.8z M230,465.1c-0.5,3-2.5,2.3-4.6,1.2
	C226.3,464.9,228.5,463.7,230,465.1z M231.7,473.9c-3.2,0.8-1.5,3.8-4.6,4.6c-0.3-1.9-1.8-3.2-0.4-4.6c1-0.2,0.9,0.8,2.1,0.4
	c1.3-0.6-0.6-2,0.4-2.5c2,1.7,3.4-1.7,5.4-2.5c1.3,0.3,0.5,1.1,0.4,2.1c0.9-0.1,2.7,0.2,3.7,1.7c-1.6,1.2-2.6,2.6-4.6,2.5
	C234.5,473.1,230.1,475.5,231.7,473.9z M233.8,479.7c-0.6,0.5-0.6,1.6-1.2,2.1c-0.4,0.1-0.4-0.2-0.4-0.4c0-0.3,0-0.5,0-0.8
	c1.5,0.9,0.1-0.3,0.4-1.7c1.8,1.5,3.3-1.6,4.6,0.4C236.4,478.8,234.5,480.5,233.8,479.7z M240,477.2c-0.4-0.3-0.7-0.5-0.8,0
	c-0.4,0.1-0.4-0.2-0.4-0.4c0-0.3,0-0.5,0-0.8c0.7,0,1.4,0,2.1,0C240.6,476.4,239.9,476.4,240,477.2z M244.2,478
	c0.7-0.1,1.1,0.7,1.2,0c0.6,0.1,0.4,1,0.4,1.7C244.9,479.5,244.3,478.9,244.2,478z M242.9,465.1c0.6,0.6,0.1,2.4,1.7,2.1
	c-0.4,1.6-1.5,1.5-0.8,3.3c-1,0.3-2.5,0.8-3.3,0c0.3-1.3,1.6-3.6-0.4-3.7c0.9-0.8,1.3-2,1.7-3.3c2.7,0.4,4.6-2.9,6.2,0
	C246.3,464.2,243.9,463.9,242.9,465.1z M258.3,479.7c-0.8-1.6-3.7,0.3-3.7,2.1c-1.4-0.4-3-0.6-4.1-1.3c0-1.5,1.5-1.5,1.2-3.3
	c-0.4,0.3-0.4,1-1.2,0.8c-0.1-1.5,0.1-2.7,0.4-3.7c1-0.5,1.7,1.2,2.1,0c1,0.8-1.7,4.8,1.3,3.3c-0.8-0.8-0.8-1.8,0-0.4
	c1.3-1.4,1.4-0.5,1.7-2.1c0.7,0.1,1,0.7,0.8,1.7c-0.4,0-0.8,0-1.2,0c1.5,0.7,1.3,2,3.3,1.3C258.7,478.8,258.2,478.9,258.3,479.7z
	 M256.2,463.1c0.7,1.1,0.7,2.9,2.1,3.3c-1.2,2.9-2.1,3.1-4.6,2.1C255.1,466.5,252.1,463.4,256.2,463.1z M257,474.7
	c-0.3-1.4,0-1,0.4-3.3c0.8,0.7,1.7,1.4,1.7,2.9C258.1,474.9,257.3,474.2,257,474.7z M259.9,465.1c-0.5-0.1-0.2-0.4,0-0.4
	c-0.2-0.6-0.5,0.2-1.2,0c0.3-1.5-0.9-1.6-0.8-2.9c-3.1,0.5-3.5,1.1-5-2.1c-0.3,0.9-2.6-0.2-2.9,0.8c-1.6-1.4,0.2-2.4,1.3-3.3
	c0.7,0.1,0.9,0.7,0.8,1.7c1.7-0.1,2.1-1.5,4.1-1.3c0.4,0.9,0.9,1.7,1.3,2.5c0.7,0,1.6,0.2,1.7-0.4c0.7,1.8,1.6,1.9,2.1,5
	C260.6,464.7,260,464.7,259.9,465.1z M255.4,359.6c-0.7-0.7-2.1-0.4-2.5,0.4c-1.1,0-1-1.5-0.4-2.1
	C253.8,358.2,255,358.5,255.4,359.6z M252.9,350.9c0.5-1.7,2-0.3,1.7,1.3C253,352.8,254.5,350.3,252.9,350.9z M266.6,470.1
	c-0.4,0-0.3-0.5-0.4-0.8c-0.4-0.1-0.4,0.2-0.4,0.4c-1.3-0.3,0.4-0.9,0-1.7c0.4,0.3,0.9,0.5,1.7,0.4
	C267.2,469.1,266.8,469.5,266.6,470.1z M270.7,468.5c-1.1,0.3-0.8-0.9-1.2-1.2c0.1,0.9-1,0.4-1.3,1.7c-1.6-0.4-1.1-2.8-2.1-3.7
	c1.3,0.7,1.2-1.9,0.8-2.5c-1.3-0.1-1.8,0.7-3.3,0.4c0.5-1.3,0-0.9,0-2.5c2.3-0.1,2.6-2.2,4.1-2.9c1.1,0.1,0.8,1.4,0.8,2.5
	c1,0.2,0.9-0.8,2.1-0.4c-0.3,1.3-0.3,0.8,0,2.1C267.8,463.9,272.8,464.9,270.7,468.5z M269.1,350.9c0,0.8,0,1.7,0,2.5
	C267.6,353.6,267.2,350.5,269.1,350.9z M268.7,450.2c1.6,0.1,1.8,1.2,0.8,2.1C268.9,451.9,268.6,451.2,268.7,450.2z M272.8,361.3
	c-1.6-0.3-2.3-2.4-4.6-1.7c1.7-1.1,1.9-2.4,1.3-4.2c2-0.8,1.7,0.8,4.2,0.4c-0.9,0.3-0.9,1.6-2.1,1.7
	C273.3,358.2,273.5,359.3,272.8,361.3z M275.3,460.2c-1.4-0.9,1.1-2.7,1.7-1.7C277.4,460,275.6,459.3,275.3,460.2z M277.1,322.5
	c-0.7,0.2-1.5,0.4-2.2,0.6c0-0.2,0-0.3,0-0.5c0.9-0.6,1.8-0.3,2.4-0.2C277.2,322.5,277.2,322.4,277.1,322.5z M281.9,386.6
	c-0.9-0.3-1.6-0.8-1.6-2.1c0.7,0,0.9-0.5,1.6-0.4C282.5,384.7,282.5,386.1,281.9,386.6z M279.5,377.1c-0.4-1.6,1-1.5,1.3-2.5
	c1.2,0,0.8,1.7,0.8,2.9C280.6,377.6,279.9,377.4,279.5,377.1z M280.3,325.1c-0.3,0-0.4-0.1-0.5-0.3c-0.1-0.2-0.2-0.4-0.3-0.6
	c-0.1-0.5-0.2-1-0.5-1.3c-0.1,0-0.2,0.1-0.3,0.1c-0.3-0.4-0.7-0.6-1.1-0.6c0.3,0,0.6-0.1,0.6-0.7c0.9-0.1,1.3,0.3,1.3,1.2
	c0.9,0.2,0.6-0.8,1.3-0.8c1.6-0.2,1.3,1.5,2.1,2.1C282.3,325.2,280.7,323.6,280.3,325.1z M289.4,443.1c-1.5-0.2-0.9-1.8-1.3-2.1
	c0.1-0.6,1.3-0.1,1.3-0.8C290.6,440.7,289.4,442.4,289.4,443.1z M287.8,321.8c1.3-0.2,1.8,0.4,1.7,1.7c-0.5-0.1-0.8,0.1-0.8,0.4
	C288,323.5,288,322.6,287.8,321.8z M294,379.6c-0.6-0.5-0.6-2,0-2.5c1-0.1,1.6,0.1,2.1,0.4C296.2,379,295.5,379.7,294,379.6z
	 M297.7,420.3c-2.2-0.8-0.1-1.6,0-3.3c0.6,0.1,0.7,0.7,1.2,0.8C298.3,418.3,297.9,419.2,297.7,420.3z M301.1,346.7
	c-0.5-0.3-1.1-0.5-2.1-0.4c-0.2-1,1.9,0.2,1.3-1.2c-0.2-0.5-2.3-1-2.1-0.4c-1.2-1.9,1.9-0.5,3.3-0.4
	C301.5,345.2,300.8,345.5,301.1,346.7z M301.9,348.4c0.5,1.8-1.4,1.1-1.7,2.1c-0.5-0.1-0.4-0.8-0.4-1.2
	C301.4,349.8,300.6,348.1,301.9,348.4z M299.4,427.3c-0.8-1.9,0.9-3.5-0.4-5.8c2.3,0.7,1,2.8,3.3,3.7
	C301.2,425.8,301.1,427.3,299.4,427.3z M306.1,451c-0.6,1-1.3-0.8-1.2,0.8c-3.1,0.1-1.5-2.7-2.9-3.7c0.4-2.4,4-0.8,4.6-2.1
	C308.3,447.3,305.7,448.8,306.1,451z M309,342.2c1.2,0.1,0.9,1.5,1.7,2.1c-0.1,0.5-0.8,0.4-1.3,0.4
	C309.1,343.8,308.3,342.8,309,342.2z M311.5,350.5c-0.3-0.2-0.7-0.4-1.2-0.4c0.1-1.2,1.1-1.7,2.1-2.1
	C312.6,349.4,311.8,349.7,311.5,350.5z M315.6,466.4c-0.4,0-0.3-0.5-0.4-0.8c-0.6,0.2-0.4,1.3-1.7,0.8c0-0.7-0.5-0.9-0.4-1.7
	c0.9-0.9,2.1,0,2.9,0.4C315.8,465.5,315.6,465.8,315.6,466.4z M100.8,295.2v-4.7v-0.3v-0.4c-2.1,0.6-5.2,2.1-7,1.6
	c0.1-0.4,0.8-0.3,0.8-0.8c-0.1-0.3-0.4-0.4-0.4-0.8c-0.5,1.3-1.8,0.8-2.5,0c-0.2-2.3,2.1-4.1,3.3-2.5c-0.1-1.1-0.9-1.4,0.8-1.3
	c-0.1-0.6-1-0.3-1.7-0.4c1.5-1.8,0.3-5.5-2.1-6.7c-0.4,0.3-0.6,0.8-0.8,1.3c-1.1,0.1,0.4-2.3-1.3-1.7c0.2-0.5,0.5-0.9,1.3-0.8
	c-0.8-0.5-1-1,0-1.7c0.1-0.7-2.4-1.6-0.4-1.7c-0.1-0.5-0.8-0.3-1.3-0.4c-0.1,0.8,0.5,0.9,0.4,1.7c-1.5-0.2-1-0.7-0.8,0.8
	c-1.5,0.4-1,0-2.5,0.4c0.9,0.9,0.1,1.8-0.4,2.5c-1.2-1-0.5-2.1,0.4-2.9c-2-0.6-2.8,1.7-5.8,0.8c-1.4,0.4-0.4,3.2-2.5,2.9
	c-0.4-0.5-0.6-1.1-0.4-2.1c0.9-0.5,2.3-0.5,2.9-1.3c-1.1-1.3,3.4-2.6,4.6-2.5c-1.3-0.9,0.1-1.2-0.4-1.7c0-0.8,1.5,0.6,2.1-0.4
	c-0.1-0.5-0.8-0.4-0.8,0c-0.3-0.9,0.5-2.5-0.4-2.9c0.3-1.3,2.4-0.3,2.5-0.8c0.3,2.1-1.8,3.8,0,6.2c1-0.8-0.4-1.5,0.4-2.5
	c1.7-0.3,1.7-0.3,3.3,0c0.5,0.9-0.2,1.6,1.2,2.1c-0.4,0.3-0.2,1.1-0.8,1.2c0.6,0.4,2.9,0.4,4.2-0.4c2.2,0.7-0.1,3.2,2.1,3.7
	c-0.2,0.1-0.3,0.4-0.5,0.5c-0.1,0-0.1,0-0.2,0c-2.1,0.5,0.1,7.7,1.8,8.2c0.3,0.1,0.6,0.1,0.9,0.2v-80.2h26.3v59.9h227.1v-59.9h26.3
	v87.4L100.8,295.2z M380,385.8c1,2-3.9-0.4-0.4-0.8c0,0.4,0,0.8,0,1.2C379.9,386.3,380,386.1,380,385.8z M363.8,417.4
	c-0.3,0.9-1.4,1-2.1,1.7c0.1,0.1,0.6-2.8,1.3-4.2C364.1,414.8,362.6,417.4,363.8,417.4z M353,372.5c-0.2,0.3-0.4,0.7-0.4,1.2
	c-1,0.2-0.9-0.8-2.1-0.4C350.1,371.8,352.4,371.9,353,372.5z M346.8,414.9c-0.1,1.1-0.7-0.6-1.7,0c0-0.7,0.5-0.9,0.4-1.7
	c0.3,0.2,0.7,0.4,1.2,0.4C346.9,414.3,346.1,414.7,346.8,414.9z M345.5,423.2c0.4,0.3,0.7,0.5,0.8,0c0.6,0.3,0.8,0.9,0.8,1.7
	c-0.4-0.3-0.9-0.4-1.7-0.4C345.5,424,345.5,423.6,345.5,423.2z M346.4,404.1c-0.8,1.7-2.2-0.4-2.9-1.3c1.4-1.9,3.2,1,3.7,2.5
	C346.3,405.5,346.4,404.7,346.4,404.1z M343.9,350.9c0.1-0.3-0.2-0.4-0.4-0.4c-0.9-1,1.7,0.1,0.8,1.7c-0.7-0.2-0.8,0.3-0.8,0.8
	C341.6,352.3,343.5,351.7,343.9,350.9z M341.4,347.2c1.4-1.9,3.9,1.5,1.7,2.1C341.3,349.7,342.3,347.5,341.4,347.2z M337.6,407.4
	c-0.8,0.8-0.8-0.2-2.1,0c0.2-0.3,0.4-0.7,0.4-1.3C336.8,406.3,337.7,406.3,337.6,407.4z M329.7,426.9c0.1,1.6-0.4,2.6-1.2,3.3
	c-1.1-1-0.6-1.8-0.4-3.3C328.9,427.6,328.6,426.9,329.7,426.9z M319.3,344.2c-0.1-1.5,0.6-2.2,2.1-2.1
	C323,343.5,321.3,345.2,319.3,344.2z M323.5,372.5c-1.1,1.1-3.9,0.3-3.3-1.7C321.9,370.7,322.3,372,323.5,372.5z M323.9,392.4
	c0.1,2.4-2.5,4.7-4.2,2.9C320.4,392.7,321.6,393.1,323.9,392.4z M319.3,458.1c-1.1-0.7,0-2.7,1.3-2.5c-0.1,0.5,0.1,0.7,0.4,0.8
	C321.2,457.7,318.9,456.6,319.3,458.1z M320.6,461.8c0-1.5,1-4.1,3.3-2.9C324.5,460.4,323.1,461.6,320.6,461.8z M327.2,460.2
	c-1.4,0-1.1-1.7-2.5-1.7c-0.7,0,3.5-0.6,4.6-0.4C329.1,459.3,326.7,458.2,327.2,460.2z M332.6,447.3c-0.6,0-1.1,0-1.7,0
	c0-0.4,0.5-0.3,0.8-0.4c-2.8,0.3-4.7-2-5-5.4c0.6,2,3,3,5.8,3.3C332.6,445.6,332.6,446.5,332.6,447.3z M331.8,436.9
	c1-1,2.6-1.3,2.5-3.3c1.9,0,1.5,2.4,2.1,3.7C335.3,436.9,333.1,438.3,331.8,436.9z M336.4,414.5c-1.5,0.4-0.8-1.4-1.7-1.7
	c0.4-0.8,1.6-0.9,1.7-2.1c0.5,0.5,1.5,0.5,2.5,0.4C337.5,411.7,336.5,412.6,336.4,414.5z M341.4,444.8c1.6-0.2,1.8,2.2,3.3,0.8
	C345.2,447.1,339.6,447.9,341.4,444.8z M346.8,455.2c-0.4,0.5-0.9,0.3-1.7,0c0.4-0.5,0.4-1.5,0.8-2.1c1.3-0.4,0.9,1.1,1.7,1.2
	C348,455.1,345.2,454.6,346.8,455.2z M348.8,451.9c-1.6,1.8-1.2-1.5-2.5-2.5c-0.7,0-0.9,0.5-1.7,0.4c-0.5-0.6,0-2.4,0.4-3.3
	c2.7,0,3.1,2.4,4.2,4.2C349.5,451.4,346.8,451.7,348.8,451.9z M345.9,434.8c-1.4-1.1-0.4-2-1.2-3.7c1.8-1.1,3.7,0.9,4.6,2.1
	C349.1,434.7,346.2,433.4,345.9,434.8z M349.3,412.8c2-0.3,2.1,1.2,4.2,0.8C351.5,415.6,348.8,416.3,349.3,412.8z M353.4,430.2
	c-1.3-0.3-0.8-0.3-2.1,0c0.2-1.3-0.5-3.6,0.8-3.7c-0.7-0.3-0.7-1.3-1.3-1.7c0-0.4,1.8-0.8,0.4-1.2c0.6-1.2,1.8-0.4,2.9,0
	c0.2,1.7-1,2.1-1.7,2.9c0.6,1,1.7,1.3,2.5,2.1C354.7,430.6,352.2,427.9,353.4,430.2z M355.9,421.5c-1.3,0.7-1.7-1.5-2.1-0.4
	c-1.1-0.6,0.3-2.2,0.4-2.9C355.9,418.4,356.6,420.1,355.9,421.5z M358.4,379.2c-1,0-1.3,0.8-2.1,0
	C356.6,378.2,358.6,377.2,358.4,379.2z M356.7,444.8c0.6-0.7,0.3-3.4,1.7-2.1c-1.3,1.3-0.6,1,0.8,0.4
	C359.4,444.7,357.7,444.4,356.7,444.8z M362.6,446.5c-1.6,0.1-2-1.1-2.1-2.5c1.2-0.2,0.7-0.3,2.1-0.8
	C362.2,444.7,363.6,445.4,362.6,446.5z M360.5,439.4c-0.3-1.4,0.5-1.8,0.8-2.5c1.3,0,1.8,0.9,1.7,2.5
	C361.5,439.1,361.2,440.2,360.5,439.4z M363.4,427.8c1,6-6.3,8.7-5,0.8c0.6,0,1.2,0.1,1.3-0.4c1.2,0.4-0.6,1.1,0.4,1.7
	c2.7-0.5,2.5-2.7,2.5-4.6c-0.9,0.4-2.8,0.9-3.3,0.4c-0.4-0.9,0.3-2.5,0.4-3.3c-0.6-0.9-2.1-1-2.1-2.5c2.4-1,2.7,0.9,5,0.4
	c0.6,1.2,1,2.6,0.8,4.6C364.4,421.4,365.2,429.2,363.4,427.8z M371.3,439c-3.3,0.7-5.6-3.3-4.2-5.4C370.1,432.7,371.9,436,371.3,439
	z M375,410.3c-1-0.9-1.2-2.6-0.8-3.7c1-0.1,1.6,0.1,2.1,0.4C376.2,408.5,375.1,408.8,375,410.3z M375.8,330.5
	c0.6,0.6,0.7,1.8,0.8,2.9C375.2,333.6,375.2,331.3,375.8,330.5z M377.5,422.8c0.5,0.5,1.5,0.5,1.7-0.4c1.4,1.3-1.2,2.1-1.2,3.3
	C376.4,425.4,378,424.4,377.5,422.8z M381.3,427.3c-0.9-2.1-1.1-1.1-2.1-2.9c0.1-0.3,0.4-0.4,0.4-0.8c0.7-0.1,0.8,0.3,0.8,0.8
	c0.4-0.1,0.3-0.8,0.8-0.8c0-0.4-0.5-0.3-0.8-0.4c0.1-0.8,1.1-0.8,1.2-1.7c0.9,1.2-0.5,2.3,0.8,3.3c-0.3-0.1-0.4-0.4-0.8-0.4
	c1.2,1-0.4,2.3,1.7,2.1C383.3,427.4,382.3,427.4,381.3,427.3z M382.5,419.9c-0.2-1.4,2.4-1.7,2.1,0
	C383.9,419.9,383.2,419.9,382.5,419.9z M384.6,387.9c-0.1,0.3,0.2,0.4,0.4,0.4c-1.2,1.7-0.8-1.7-2.1-1.3c0.2-1.5,1.1-1.5,0.4-2.9
	c2.2-0.2-0.2,1.7,2.1,1.2C384.7,386.5,385.7,387,384.6,387.9z M390.8,94.6c1.3,0.9-0.4,2.3,0,3.7c-1,0.1-1.8,0.4-2.1,1.3
	c-0.4-0.2-0.7-0.4-0.8-0.8C388.4,96.9,390.8,96.9,390.8,94.6z M388.3,391.2c0.7,0,1.4,0,2.1,0c0.5,1.1-0.2,4.1-1.3,5
	C387.7,395.5,387.5,393.3,388.3,391.2z M390.8,422.8c-0.7-2.4-1.4-2.7-2.5-4.2c0.3-1.5,3.6-0.3,3.7-0.8c1.2,0.8-0.5,4.4,1.7,4.1
	C393.1,422.6,392.1,422.8,390.8,422.8z M395,406.6c-0.7,0-1.4,0-2.1,0c-0.7-1.4,0.4-2.7,2.1-2.9c-0.2-0.8-1.6-0.3-1.3-1.7
	c1.1,0,2.4-0.2,2.9,0.4c0.1,0.7-1.3,2.2,0.4,2.1C397.3,405,394.7,404.3,395,406.6z M395,396.6c0.2-0.6,0.6-1,0.8-1.7
	c0.5,0.1,0.4,0.8,0.4,1.2c0.5-0.5,0.7-0.2,1.3,0C396.9,397.5,395.7,396.7,395,396.6z M397,319.3c-1.2-1-0.9-3.1,0.4-3.7
	c0.8,0.5,0.9,1.6,1.7,2.1C399.1,318.9,397,318.1,397,319.3z M399.5,296.9c0.5-0.1,0.7,0.1,0.8,0.4c0.5-0.1,0.2-0.4,0-0.4
	c1.3-1,1.5,2.3,0,2.5C399.6,299,399.4,298.1,399.5,296.9z M400.8,408.6c-1.3-0.3,0.4-0.9,0-1.7c0.5,0.4,1.1,0.6,2.1,0.4
	C402.6,408.8,401,408.1,400.8,408.6z M402,301c-0.5-0.1-0.3-0.8-0.8-0.8c0.7-0.5,1.3-1.6,2.1-0.8C403.6,300.7,401.9,300,402,301z
	 M402.4,260.3c-0.9,0.2-0.6-0.8-1.2-0.8c0.2-1.2,1.8-1,2.1-2.1C404.2,258,402.8,259.7,402.4,260.3z M403.7,347.2
	c0.6-1.5,2.9-1.1,3.7-0.4c-0.2,0.3-0.4,0.7-0.4,1.3C405.5,348.1,404.4,347.9,403.7,347.2z M405.3,385.4c-1.9-0.8,1.2-5.6,2.9-2.9
	C407.8,384,406.2,384.3,405.3,385.4z M410.7,323.1c-0.5,0.5-1.5,0.5-2.5,0.4c-0.7-1.5,0.6-4-0.4-5.8c1.3,0.5,0.3-1.3,1.7-0.8
	c-0.8,2-0.7,2.8,1.3,3.7C410.7,321.4,410.7,322.2,410.7,323.1z M412.4,396.6c-1.4-0.4-1.2-2.9-0.4-3.3
	C413.7,394.6,411.6,394.7,412.4,396.6z M415.7,285.3c-0.6-0.1-0.2-1.2-0.8-1.2c0.5-1.2,2-1.3,3.7-1.3c0.4,1.2,0.3,3.7-1.7,3.7
	c0.4-0.3,0.2-1.1,0.8-1.2C417.7,285.1,416.1,284.7,415.7,285.3z M417,397.4c0-0.7,0-1.4,0-2.1c0.7,0,1.6,0.2,1.7-0.4
	c0.6,0.3-0.2,1.1,0.4,2.1C418.1,396.8,418.2,397.8,417,397.4z M422.8,345.5c-1.4-1-1.1-3.6-4.2-2.9c-1.8-3.1,1.3-4.1,0-7.5
	c1.5-1.7,5.8,1.9,5.4-1.7c1.5-0.3,2.3,0.2,2.5,1.2c-0.8,1-1.5,2.1-2.5,2.9c0.4,0.7,0.8,1.4,2.1,1.2c-0.5,1.6-1.9,2.2-2.1,4.2
	c0.1,0.3,0.4,0.4,0.4,0.8c1,0.1,1.3-0.7,2.1-0.8C427.1,344,423.5,344.4,422.8,345.5z M427.8,355.1c-0.7-0.2-0.3-1.3-1.6-0.8
	c-0.3-1.5,0.6-1.8,2.1-1.7C427.4,353.2,428.8,354.2,427.8,355.1z M429.4,252c0.5-0.5,1.5-0.5,2.1,0c0.4,0.8-1.3,1.4,0,1.7
	C430.9,254.7,429.4,253,429.4,252z M434.4,256.6c-1,0.7-1.1,2.2-2.9,2.1C431.5,256.8,432.9,255.8,434.4,256.6z M432.3,341.3
	c0.8-0.8,1.5-1.8,2.5-2.5c1.5,0.6,0.5,3.1,2.1,2.1c0.8,2.7-2.6,0.4-3.7,1.7C432.8,342.3,432.9,341.5,432.3,341.3z M437.3,362.1
	c-1.5-0.8-0.9-1.1-1.2-2.9c-0.9,1-1.8,0.1-2.5,0.8c-1.2-2.2,2.1-3.5,3.7-4.2c0.8,1.5-0.3,1.4-0.8,2.5
	C438.4,359.4,438.3,360.8,437.3,362.1z M436.9,329.3c-0.6-0.1-0.2-1.2-0.8-1.2c0.3-0.6,1-0.9,2.1-0.8
	C437.8,327.9,437.2,328.4,436.9,329.3z M436.9,214.2c-0.1-0.7,0.5-0.9,0.4-1.7c1.2-0.1,2.3-0.1,2.1,1.2
	C438.2,213.7,438,215.3,436.9,214.2z M439.8,327.2c0.3-0.4,0.4-0.9,0.4-1.7c1.1-0.1,1.1,0.9,1.2,1.7
	C440.9,327.2,440.4,327.2,439.8,327.2z M451.5,243.7c-1.1-0.6-0.4-1.8-2.5-2.1C449.8,239.3,452.8,242.3,451.5,243.7z M452.3,307.7
	c-0.1-1.6,2.3-2.1,3.3-1.2C455,308.2,454.2,307.9,452.3,307.7z M460.6,302.3c-2.6,0.2-0.3-3.8-0.8-3.7c0.8-1.2,1.2,1.5,2.9,0.8
	C462.1,300.5,461.3,301.3,460.6,302.3z M462.3,299c-1.3-0.3-2.7-2.9-1.3-2.5c1.2-1.2-1.3,0.2-0.8-1.3c-1.2,0.5-3.6,0.5-3.3-1.7
	c0.7-0.4,2.2,0,2.1-1.2c1.8,0.4,3.3,1.1,5,1.7c-0.5,0.7-1.3,1.2-1.7,2.1c0.3,0.9,1.3,1.2,2.1,1.7C464.2,298.7,462.5,298.1,462.3,299
	z"/>
</svg>
